<svg width="158" height="101" xmlns="http://www.w3.org/2000/svg" xmlns:xlink="http://www.w3.org/1999/xlink"><defs><path id="a" d="M0 .37h37.903v35.945H0z"/></defs><g fill="none" fill-rule="evenodd"><path d="M27.4 57h-10v-2.8h3.4v-8.9L18.3 47l-1.6-2.3 4.9-3.3H24v12.8h3.4z" fill="#FFF" fill-rule="nonzero"/><path d="M62.493 44.368c.106.006.204.004.326-.01.067-.016.148-.025.238-.025.105 0 .222.012.34.038l.089.004a5.393 5.393 0 0 0-.153-.338h-.591c-.12.009-.245.012-.373.009l.124.322zM65.054 43.304l.003.002.069.171.055.123c.034.078.064.151.09.225l.115-.154c.167-.257.33-.536.503-.856a2.551 2.551 0 0 1-.292-.424c-.09.165-.184.323-.277.48l-.174.296a2.156 2.156 0 0 1-.092.137M63.123 50.573l.11.055.049-.029-.144-.047-.013.016-.002.006M60.295 48.828l.001-.003h-.002l.001.003M78.735 45.265l-.016.002c.007 0 .014 0 .021-.002h-.005M66.95 44.743h.156c.217 0 .408.025.6.05l.055.008c.078-.21.165-.415.251-.588l.053-.114c.05-.107.101-.215.15-.324-.07-.006-.129-.003-.176-.003-.15 0-.313 0-.485-.015a1.853 1.853 0 0 1-.157.282c-.11.164-.234.364-.354.556l-.093.148zM64.974 40.542l-.005-.081c0 .028.002.055.005.08zM71.209 54.197h-.017l.007.018.023.035c.046.006.12.007.224.007h.1c.119 0 .237-.006.354-.014h-.101c-.118 0-.275 0-.442-.03a1.49 1.49 0 0 1-.148-.016" fill="#ffe180"/><path d="M130.04 46.18c-.124.171-.346.238-.552.288-.877.211-1.777.321-2.678.328-.195.002-.411-.01-.545-.15-.125-.13-.138-.329-.144-.509l-.083-2.51c-1.324.171-2.075 1.583-3.196 2.306-1.137.733-2.583.714-3.935.67-2.831-.095-5.714-.198-8.386-1.137l.213-.468c-.93-.294-1.591-1.154-1.901-2.079-.311-.924-.323-1.918-.333-2.893l-.05-5.019c-.002-.267.008-.565.198-.752.183-.18.468-.192.726-.19a36.779 36.779 0 0 1 18.66 5.298c.548.332 1.106.698 1.427 1.25.304.52.36 1.143.41 1.744l.266 3.188c.017.218.03.456-.097.634M97.4 53.845l-2.598.013c.372.436.717.897.992 1.4.31.563-.554 1.067-.863.503a7.223 7.223 0 0 0-.756-1.132 8.737 8.737 0 0 0-.738-.764l-5.523.03c.845 1.582 1.73 3.142 2.643 4.688.563-.044 1.148-.002 1.713 0l1.773.002c.644.001.643 1.001 0 1l-2.886-.005c.384.638.755 1.283 1.152 1.913.342.548-.523 1.05-.865.505-.328-.524-.634-1.06-.955-1.588l-.022.077-.44 1.504c-.18.617-1.145.354-.965-.266l.516-1.76c.069-.24.135-.482.21-.719A126.949 126.949 0 0 1 86.94 54.2c-.768 1.302-1.52 2.614-2.274 3.924l.01.01c.31.39.553.85.799 1.284.247.44.478.887.696 1.342.116.244.069.538-.18.683-.22.13-.567.065-.684-.179a21.73 21.73 0 0 0-1.2-2.178c-.366.641-.746 1.275-1.11 1.92-.317.56-1.181.054-.863-.506.326-.577.668-1.145.996-1.72l-1.427.171c-.27.032-.5-.255-.5-.5 0-.293.233-.468.5-.5l1.638-.196c.135-.016.27-.033.407-.04a400.786 400.786 0 0 1 2.207-3.81c-1.598.01-3.195.017-4.793.025-.127.128-.257.25-.364.361-.313.326-.625.652-.94.978-.445.466-1.151-.243-.706-.707l.599-.625-1.907.011c-.645.003-.643-.997 0-1l2.66-.015-.131-.262-.25-.506c-.18-.36-.357-.722-.536-1.083-.12-.243-.067-.54.18-.684.22-.13.564-.063.684.18l.625 1.263.304.614c.076.154.14.31.18.474l4.713-.026a123.524 123.524 0 0 1-2.317-4.74c-.28.004-.563-.012-.844-.018l-1.81-.037c-.644-.013-.644-1.013 0-1l1.71.035.482.01c-.25-.549-.513-1.09-.753-1.644-.255-.584.608-1.093.863-.504.239.547.5 1.084.747 1.628a12.96 12.96 0 0 1 1.81-2.04c.478-.43 1.187.275.708.707-.421.38-.817.784-1.183 1.216-.314.37-.58.767-.857 1.162a125.422 125.422 0 0 0 2.173 4.455c.682-1.143 1.38-2.276 2.072-3.412-.067-.134-.113-.28-.16-.426a34.458 34.458 0 0 1-.655-2.296c-.156-.626.807-.89.965-.266a33.631 33.631 0 0 0 .524 1.878c.47-.767.927-1.543 1.4-2.307.34-.546 1.205-.044.865.504-.505.813-.991 1.64-1.491 2.455l.636.076 1.402.168c.269.032.5.203.5.5 0 .247-.232.532-.5.5l-1.63-.195-.795-.095c-.06-.008-.12-.013-.181-.019-.75 1.232-1.508 2.46-2.245 3.698l5.31-.028c.073-.219.22-.406.355-.59.306-.42.61-.84.917-1.259.16-.218.432-.327.685-.179.215.127.338.466.179.684l-.845 1.158-.131.18 3.222-.016c.645-.004.644.996 0 1m-21.566-3.948l-.07-.08c-.032-.044-.068-.084-.101-.123a2.408 2.408 0 0 1-.274-.366l-.215-.298c-.123-.173-.254-.357-.373-.543-.112-.137-.18-.269-.231-.369l-.145-.258c-.04-.108-.091-.205-.138-.3a4.656 4.656 0 0 1-.155-.33l-.026-.036-.13-.282-.063-.138h-.26l.067.15h-.002a.784.784 0 0 1 .079.497l-.047.19a1.281 1.281 0 0 1-.324.482l-.11.11-.145.057a.907.907 0 0 1-.701.001l-.18-.087a1.756 1.756 0 0 1-.745-.686c-.02-.02-.071-.1-.122-.18-.025-.04-.05-.08-.078-.118l-.231-.339c-.157.007-.324.01-.49.011l.095.175c.13.191.179.4.145.616.025.057.05.113.082.17.12.167.208.415.126.762v.22l-.054.135c-.11.271-.326.447-.644.524-.146.06-.308.06-.405.06l-.468.024c-.12.001-.196.006-.274.011a4.95 4.95 0 0 1-.355.015 1.398 1.398 0 0 1-.096.012v.017l.009.013c.046.018.084.036.11.05l.17.082c.348.121.627.2.872.243.188.041.387.084.588.197l1.077.304v.23l.013.011c.248.302.307.637.21.972l-.053.187-.137.137a1.153 1.153 0 0 1-.205.164c.163.011.302.031.446.053.146.021.297.044.468.056.04 0 .138.005.235.013.055.005.11.01.165.01h.354c.11 0 .247 0 .403.026h.788l.088.842-.022.153a2.303 2.303 0 0 1-.224.573l-.214.385h-.063l.005.141h.083l.392.934-.146.143v.204l-.47.19a1.797 1.797 0 0 1-.287.113c-.328.063-.62.11-.887.143l.02.04h.388l.025.812c0 .113 0 .262-.025.422v.681l-1.063.025-.245-.22a.932.932 0 0 1-.437-.059.982.982 0 0 1-.425-.25 1.75 1.75 0 0 1-.27.284c-.131.163-.386.371-.833.371h-.315l-.31-.25a.843.843 0 0 1-.24-.613l.015-.142.063-.328c.043-.158.06-.243.078-.329.027-.123.053-.245.09-.37.042-.205.105-.416.176-.628a8.92 8.92 0 0 0-.43.646l-.004.01-.026.105-.057.138c-.064.154-.204.491-.598.64l-.09.052a.985.985 0 0 1-.692.123h-.668l-.063-.813a.82.82 0 0 1 .025-.2v-.128l.139-.195a1.93 1.93 0 0 1 .152-.265l.228-.397c.13-.207.22-.392.329-.612l.056-.14a3.51 3.51 0 0 1 .444-.829c.024-.033.047-.063.064-.093l.12-.286c.033-.077.066-.154.102-.23l-.194-.334c-.013-.013-.026-.03-.04-.05-.074.405-.463.725-.915.725a.904.904 0 0 1-.847-.558l-.054-.135.005-.323c.057-.47.189-.95.382-1.572.019-.062.037-.128.055-.195a5.49 5.49 0 0 1-.088.105l-.065.08v.207l-.2.131c-.14.212-.385.368-.727.368-.376 0-.66-.14-.894-.44-.161-.193-.29-.429-.415-.77a2.831 2.831 0 0 0-.144-.346 7.966 7.966 0 0 1-.233.378c-.067.105-.135.21-.198.32l-.093-.03c.009.026.015.05.02.067a2.2 2.2 0 0 0 .258.553l.205.29c.242.235.314.516.344.67l.173.514-.341.436-.35.357-.708-.174a1.184 1.184 0 0 1-.484-.216l.025.042c.058.098.115.194.163.291l.616 1.107c.04.06.103.172.164.285.046.083.09.166.139.241.064.112.1.187.136.262l.137.314a.83.83 0 0 1 .057.116l.054.135v.145c0 .492-.39.767-.723.861l-.498.028-.133-.053c-.205-.08-.341-.216-.462-.336-.296-.295-.527-.655-.733-1.137a8.493 8.493 0 0 1-.27-.603 4.429 4.429 0 0 1-.104-.24c-.034-.08-.066-.158-.105-.236-.1.134-.163.222-.208.302l-.063.093c.118.191.234.364.374.54.158.184.303.362.435.567.047.084.079.124.102.153l.382.475.025.604-.095.096-.008.151-.205.301a.785.785 0 0 1-.741.21c-.27-.043-.44-.217-.501-.279a5.53 5.53 0 0 1-.547-.648l-.255-.348-.062.116c-.047.083-.068.115-.082.15-.121.425-.466.7-.87.715l-.064.025h-.456l-.42-.382-.053-.185a1.141 1.141 0 0 1 0-.655l.11-.227c.024-.077.07-.19.153-.305l.016-.04c-.214-.009-.512-.06-.757-.304l-.056-.056a.91.91 0 0 1-.311-.984l.156-.543h.542c.13-.026.236-.026.325-.026a4.15 4.15 0 0 1 .568-.025h.65l.023-.04c.035-.066.073-.129.112-.192a3.786 3.786 0 0 1-.35-.023 2.006 2.006 0 0 1-.193-.017l-.103-.006c-.104 0-.218-.007-.333-.015-.081-.005-.162-.01-.235-.01h-.744c-.368 0-.672-.123-.883-.334-.09-.084-.173-.155-.247-.267-.198-.297-.215-.792.1-1.102l.219-.214h1.215c.287 0 .615.001.902.028l.267.025c.299.021.685.021 1.04-.002h.522l.155-.255c-.381-.055-.664-.278-.858-.666l-.08-.159v-.474l.055-.135a.834.834 0 0 1 .784-.532l.208.025c.139.001.24.008.34.015.07.005.14.01.209.01l.6-.008.288-.46h-.913l-.328.09c-.116 0-.313 0-.517-.14h-.042l-.246-.108.033-.064-.023-.023.023.023.028-.057-.002-.003-.554.078.307-.647-.262-.012.026-.266.079-.158c.048-.096.106-.203.164-.309.049-.089.098-.178.138-.259.12-.194.19-.33.267-.477l.143-.287a5.833 5.833 0 0 1-.364-.02 4.352 4.352 0 0 0-.447-.022c-.267.318-.524.631-.731.916a1.457 1.457 0 0 1-.222.26l-.312.224-.286.025h-.75l-.014-.439-.277-.26v-.316l-.057.075c-.263.346-.525.691-.802 1.037l-.422-.243-.021.032.374.291a1.54 1.54 0 0 1-.138.158l-.037.067a4.251 4.251 0 0 1-.09.124l-.077.12c-.003.031-.06.111-.087.15l-.06.148-.12.076c-.058.085-.117.143-.147.173-.053.053-.103.13-.143.186l-.336.47-.694-.187c-.362-.069-.7-.36-.7-.797 0-.097.009-.22.08-.394l.126-.207c.099-.116.182-.253.26-.376l.287-.443c.078-.135.186-.293.294-.45.087-.126.175-.252.253-.387l.029-.046c-.063 0-.121 0-.178-.003l-.056.057a2.887 2.887 0 0 1-.291.353c-.087.115-.18.23-.274.345-.09.11-.18.221-.261.331l-.068.08c-.237.235-.474.338-.738.338-.09 0-.353 0-.585-.192-.393-.304-.46-.78-.164-1.195l.06-.076h-.37c-.226 0-.406-.072-.504-.11-.541-.24-.732-.739-.517-1.256.1-.366.523-.629.99-.576h.384c.147 0 .273-.008.39-.018a1.091 1.091 0 0 1-.245-.67v-.145l.108-.253a.846.846 0 0 1 .819-.68c.316 0 .61.183.764.463l.104.203c.084.085.145.165.21.255l.065.078c.053.062.105.125.149.187.074.124.115.17.155.22l.129.178a.02.02 0 0 1 .004.006h.178a.136.136 0 0 0-.018-.028l-.08-.109a1.852 1.852 0 0 1-.135-.234l-.104-.195a1.288 1.288 0 0 1-.113-.214 1.321 1.321 0 0 1-.112-.208 1.457 1.457 0 0 1-.088-.177 1.211 1.211 0 0 1-.09-.18l-.052-.134v-.893l.676-.086c.347-.15.676-.089.957.192l.163.225c.227.24.362.472.43.724l.182.257c.156.18.306.388.426.6.069.088.115.175.147.243l.168.057a.84.84 0 0 1 .053.022l-.164-.43a.936.936 0 0 1 .098-.68.885.885 0 0 1 .322-.32l.122-.123.399-.025c.26 0 .606.092.784.533.032.063.066.142.099.221l.206.337c.057.097.106.201.154.305.028.06.054.121.087.176l.103.194c.04-.002.079 0 .119 0h.61l-.051-.13-.098-.179a.962.962 0 0 1-.152-.536l-.063-.093-.038-.227a.87.87 0 0 1-.03-.132c-.051-.292-.002-.54.144-.74v-.008l.22-.245a.92.92 0 0 1 .707-.283l.153.016c.273.056.567.115.863.138.033-.005.13.003.23.011l.037.003-.302-.637a2.577 2.577 0 0 1-.174-.019l-.566-.083a.424.424 0 0 0 .107.028 1.632 1.632 0 0 1-.277-.024 2.663 2.663 0 0 1-.235-.02l-.198-.017c-.113-.02-.244-.015-.357-.015-.301 0-.497-.082-.662-.25l-.214-.219v-.307c0-.357.1-.6.307-.807l.186-.14c.058-.044.137-.098.24-.14l.286-.114.283.118a.764.764 0 0 0 .092.005l-.163-.218c-.024-.03-.067-.076-.108-.123l-.012-.013h-.274c-.132 0-.23-.009-.322-.017l-.144-.01a9.9 9.9 0 0 0-1.224-.025l-1.362.001c-.086 0-.182-.007-.275-.016-.041-.004-.081-.008-.116-.008a.882.882 0 0 1-.642-.282l-.154-.154-.05-.214c-.103-.414-.032-.724.202-.959l.22-.22h2.973a1.919 1.919 0 0 1-.054-.097 3.62 3.62 0 0 1-.85-.017h-.244l-.133-.104c-.002 0-.035-.01-.12-.01a1.09 1.09 0 0 1-.983-.62l-.095-.142-.025-.29v-.75l1.073.026c.078.001.15.008.22.015.045.004.088.01.138.01l.12.003-.02-.039-.031-.063c-.058-.092-.094-.18-.12-.24l-.102-.23c-.035-.12-.088-.296-.055-.52v-.678l.776-.026c.534 0 .774.3.876.507.03.051.058.101.084.152a3.26 3.26 0 0 1 .185-.25l.232-.267c.21-.21.418-.305.64-.305.332 0 .538.202.637.3.072.072.13.152.177.237l.075.05.05.38a.873.873 0 0 1-.257.692c-.07.07-.158.21-.236.332l-.308.451c.015.012-.022.077-.07.143-.024.04-.05.1-.073.152a.755.755 0 0 0-.014.03l.053.107c.03.061.06.123.097.184l.083.144a6.23 6.23 0 0 0 .112-.214l.152-.299c.132-.257.275-.53.397-.82.072-.139.118-.212.164-.286l.062-.1c.03-.074.065-.132.088-.172l.229-.799.843.336c.367.158.523.395.593.567.14.35.077.72-.166.962-.09.127-.211.348-.307.604l-.09.205a2.94 2.94 0 0 1-.133.286 11.86 11.86 0 0 1-.24.448 8.938 8.938 0 0 0-.224.42l-.391.738a.915.915 0 0 0 .075.088c.102.082.188.184.264.295l.002-.004c.019-.034.04-.066.053-.1l.33-.695c.235-.344.659-.484 1.097-.348l.015.004.04.014.498.178v.201a.78.78 0 0 1 .095.201.817.817 0 0 1-.07.634v.075l-.072.11a1.602 1.602 0 0 1-.116.3l-.052.105c-.036.061-.066.123-.097.184-.045.09-.09.18-.143.27-.061.133-.107.246-.188.36.019-.024-.001.02-.023.065-.035.073-.07.147-.11.217-.054.117-.094.212-.15.304l-.023.045a.074.074 0 0 1-.004.014c.074.19.16.376.253.57l.25-.336c.03-.092.066-.16.086-.202.084-.198.172-.408.32-.6.22-.316.578-.506.985-.506h.75l.017.54c.07.087.13.174.179.264l.13.192c.074.082.16.191.253.314l.177-.178-.033-.038-.023.008-.037-.092a1.018 1.018 0 0 1-.12-.264l-.153-.219-.054-.21a11.096 11.096 0 0 1-.25-.533l-.037-.112-.023-.042-.102-.125-.012-.684.32-.224c.138-.097.28-.16.425-.19v-1.647l.675 1.72c.213.1.385.286.476.526.026.053.047.105.064.155l.092-.167.007-.013-.331-.802a1.156 1.156 0 0 1-.012-.042 17.746 17.746 0 0 1-1.021-1.788l-.08-.23a2.056 2.056 0 0 1-.106-.479l-.01-.047-.094-.17.012-.935.592-.05a.337.337 0 0 1 .034-.01c.099-.034.183-.048.243-.059l.234-.033c.087 0 .253 0 .426.073a.846.846 0 0 1 .533.705c.037.234.145.481.265.74.08.123.15.267.195.397l.085.186c.08.176.162.355.25.538.052-.09.11-.18.177-.267a2.94 2.94 0 0 0 .134-.188c-.116-.184-.236-.38-.344-.569l-.077-.16c-.136-.292-.29-.623-.362-1.005l-.013-.14v-.362l.282-.376c.11-.093.336-.278.682-.278.487 0 .693.251.83.497l.044.091c.034.057.063.114.088.176l.034.074.472-.485h.31a.88.88 0 0 1 .644.283.965.965 0 0 1 .254.98l.15-.014c.054 0 .104-.006.149-.01.16-.017.269-.043.522.01h.646l.025 1.282-.365.147v.424l-.728.023a6.265 6.265 0 0 1-1.481.091c-.055.09-.108.174-.17.253l-.223.358c-.043.073-.101.162-.16.251l.177.03c.232.037.464.075.69.12l.073.017.112.014.132.013c.1.014.194.031.288.05.07.013.14.027.217.038.127.03.254.051.429.055.37-.052.7.075.935.35a.772.772 0 0 1 .263.864v.14l-.086.085-.131.326h-.217a1.065 1.065 0 0 1-.41.236c-.191.054-.361.054-.473.054a28.21 28.21 0 0 1-1.352-.153 1.345 1.345 0 0 1-.17-.02v.294c.015.07.088.505-.22.901l-.181.168-.187.122-.287.025c-.167 0-.332.007-.496.013-.16.005-.32.011-.481.012a.864.864 0 0 1-.07.014c-.143.037-.258.037-.303.037a2.64 2.64 0 0 1-.266-.018l-.41-.007-.248.43c.159.001.317.006.476.03.042.002.087.008.134.015l.327.006c.234 0 .45.038.645.113h.585l.024 1.015-.284.468c-.05.09-.097.18-.146.263-.02.038-.043.103-.07.171l-.251.59c-.045.122-.092.247-.141.372l.548-.003c.092-.323.228-.592.359-.854l.075-.143c.083-.133.142-.288.2-.434l.128-.26c.22-.309.507-.466.85-.466.362 0 .747.26.825.662.048.201.044.391-.014.595l-.066.16a2.432 2.432 0 0 1-.152.353l-.116.286c.118 0 .238-.006.359-.01l.126-.007c.03-.058.065-.116.106-.173l.086-.218.109-.072a1.1 1.1 0 0 1 .067-.075c.096-.137.162-.224.235-.297l.203-.258.294.152.042-.058-.255-.192c.05-.067.102-.132.157-.187.07-.08.16-.178.258-.31.15-.203.304-.41.437-.637a.866.866 0 0 1 .37-.396l.1-.1.259-.017c.134-.033.245-.033.318-.033h.306l.282.214a.82.82 0 0 1 .195.834 1.612 1.612 0 0 1-.306.58l-.003.003a.819.819 0 0 1-.121.153c-.07.097-.192.243-.313.387l-.181.216c-.072.087-.114.138-.152.18l-.216.296c.097 0 .209.003.332.018l.179.011c.095-.142.179-.28.256-.425.078-.2.21-.41.364-.652.22-.446.882-.686 1.394-.47l.462.191v.5c0 .33-.104.522-.205.638-.035.06-.068.121-.102.183l-.03.052c.032.003.064.007.095.012a.992.992 0 0 0 .288.001c.165-.026.289-.012.399.001.096.011.244.028.545.028h.423l.219.362a.876.876 0 0 1-.131 1.065 1.21 1.21 0 0 1-.713.37c.04.073.077.156.103.247.06.138.104.471-.174.86l-.08.092a.843.843 0 0 1-.798.275.89.89 0 0 1-.634-.432c-.217-.3-.406-.58-.601-.879l-.094-.132h-.553c.008.024.015.046.02.068.023.037.095.181.167.305l.045.09c.03.075.085.15.139.22l.104.18c.028.044.052.086.072.125l.043.066c.018.028.035.06.056.085.18.213.29.39.392.563l.06.04.068.168.12.12v.311c0 .313-.103.482-.142.546-.185.477-.967.685-1.43.224m79.942 16.395l-2.398-10.137c-.387-1.634-.792-3.31-1.751-4.69-1.676-2.413-4.665-3.44-7.304-4.733-9.167-4.486-15.983-13.595-25.92-15.925-4.12-.965-8.416-.653-12.64-.382a576.982 576.982 0 0 1-54.194.924c-.981-.029-2.091-.01-2.76.706-.318.34-.485.791-.63 1.233-1 3.037-1.372 6.28-1.084 9.464.26 2.88 1.05 5.7 1.189 8.59.305 6.39-2.595 12.646-2.074 19.023.725-1.162 2.456-.922 3.769-.538l6.52 1.907a48.482 48.482 0 0 1 6.576-8.588c.486-.507 1.002-1.014 1.65-1.283.675-.279 1.429-.272 2.16-.26l4.449.067c.5.008 1.03.023 1.455.29.529.331.767.967.97 1.556l2.125 6.165c.185.538.38 1.09.762 1.51.475.524 1.175.771 1.85.981 14.679 4.57 30.459.582 45.822.046l-.785.176c1.012.722 2.117-.783 2.477-1.972.658-2.18 1.408-4.376 2.74-6.223 1.334-1.847 3.344-3.323 5.613-3.513 4.352-.363 7.614 3.785 9.793 7.57.419.726.865 1.494 1.599 1.903.93.52 2.079.336 3.126.137 1.948-.369 3.914-.743 5.74-1.515.448-.189.915-.428 1.144-.856.26-.493.139-1.09.01-1.633" fill="#ffe180"/><path d="M63.608 46.54l.013-.017.013-.026h-.97l-.202.373a1.35 1.35 0 0 1 .418-.07l.074-.02c.055-.022.123-.05.205-.07l.121-.052c.088-.042.191-.076.31-.094a.461.461 0 0 0 .018-.023M68.43 53.42l-.035-.058a.468.468 0 0 0 .03.054l.004.004zM67.16 47.359c.27.023.475.02.653.022h.24a15.852 15.852 0 0 1-.248-.417c-.006-.01-.014-.023-.022-.04-.05 0-.1-.002-.151-.004-.054-.003-.112-.01-.164-.004-.17.02-.331.036-.494.042l.096.209c.036.065.067.129.09.192" fill="#ffe180"/><path d="M151.133 56.111h-1.42c-.39-.06-.77-.06-1.22-.13-.237.01-.476-.01-.71-.059a.882.882 0 0 1-.84-.58 7.055 7.055 0 0 1-.51-1.09 7.196 7.196 0 0 0-.65-1.15c-.45-.58-.9-1.15-1.42-1.79a1.84 1.84 0 0 1-.45-.84h.2c.356.12.72.206 1.09.26.766.113 1.522.283 2.26.51.547.125 1.04.42 1.41.84.246.326.529.625.84.89.127.112.236.243.32.39.329.44.61.912.84 1.41.234.34.368.737.39 1.15.06.19-.07.19-.13.19z" stroke="#1E5D8A"/><path d="M114.715 30.073l-.006-.007c-.007 0-.003.004.006.007M125.715 70.288c-.917.032-1.88-.03-2.78.086-.225.045-.454.107-.7.136-.258.021-.467.01-.702.043-.457.05-.935.147-1.43.074l-2.788-.347-1.394-.175-.696-.086c-.242-.05-.411-.006-.665.04-.49.057-.944.035-1.412.091-.462.073-.93.095-1.394.15-.932.138-1.857.182-2.766.435-.958.131-1.904.036-2.835.051-.942-.039-1.864.063-2.807.081-3.697.51-7.485.511-11.197 1.005-1.881.08-3.748.146-5.616.34-.93.077-1.882.201-2.815.074-.937-.003-1.864.04-2.81.071-.47.018-.952-.045-1.415-.072l-.7-.048c-.11-.01-.242-.006-.367-.052a1.073 1.073 0 0 0-.325-.075l-.694-.075-.347-.038c-.106-.01-.288-.004-.385-.165-.128-.522-.115-.948-.2-1.418-.526-1.787-1.856-3.184-2.671-4.869-1.102-1.457-2.643-2.672-4.253-3.545a5.366 5.366 0 0 0-1.33-.41c-.456-.095-.911-.203-1.375-.266-.233-.037-.462-.082-.68-.077l-.701.067c-.467.041-.93.096-1.368.25-.442.147-.871.332-1.292.535-.415.217-.865.374-1.2.696-.326.342-.75.566-1.106.868-.366.294-.738.58-1.061.913-.324.333-.581.725-.837 1.116a6.92 6.92 0 0 0-.683 1.22 10.556 10.556 0 0 0-.724 2.695c-.062.46-.032.935-.124 1.404a5.665 5.665 0 0 1-.161.695c-.097.266-.393.342-.614.377-.937.178-1.89.038-2.815.05-.465.013-.931.071-1.4.107-.47.045-.943-.008-1.414-.007-.931-.05-1.884-.142-2.797-.172-.236.025-.5.027-.725-.113-.227-.139-.334-.39-.396-.619-.126-.467-.114-.96-.022-1.426.039-.237.126-.459.157-.682.028-.225.078-.486.186-.69.175-.434.394-.855.53-1.303.302-.872.616-1.793.84-2.668.123-.908-.033-1.858-.057-2.79-.142-3.742-.43-7.495-.865-11.202-.07-.474.034-.965-.04-1.399-.058-.478-.066-.944-.087-1.415-.045-.94-.035-1.877-.055-2.815-.012-.467.002-.946.004-1.419a2.61 2.61 0 0 1 .159-.71c.097-.225.129-.41.085-.625a.695.695 0 0 0-.121-.274c-.1-.092-.14-.297-.096-.418l.146-.686c.072-.452.248-.929.235-1.359-.006-.225-.041-.462-.034-.707l.046-.708c.043-.47.06-.949.143-1.412l.304-1.38a.754.754 0 0 0 .024-.317c-.003-.134.017-.257.032-.37.016-.115.026-.22.015-.32a.639.639 0 0 0-.032-.145.675.675 0 0 1-.04-.209c0-.278.098-.499.133-.714l.12-.692.122-.696c.036-.252.203-.528.45-.646.489-.194.905-.304 1.36-.46.454-.12.917-.216 1.375-.325l.025-.006.023.004c2.51.41 5.059.547 7.546-.062 1.267-.189 2.534-.34 3.83-.294l1.908.008c.637.015 1.277.07 1.914.103 1.273.12 2.546.28 3.783.581.629.082 1.254.187 1.884.251l1.897.131c1.279.014 2.527.03 3.814-.014.658-.007 1.284.123 1.9.074.635-.052 1.268-.136 1.904-.164 1.286.082 2.546-.023 3.826-.005 1.274-.003 2.545.031 3.817-.03 1.275-.013 2.535-.073 3.82-.014.64.017 1.282.03 1.915.087l.954.068.954-.01c.636-.039 1.275.068 1.912.114.33.026.635.097.92.051.332-.045.662-.033.983-.01.636.06 1.26.075 1.9.11l.952.047c.317 0 .635-.02.953-.029l.953-.034c.318.01.638.042.957.062.638.03 1.26.021 1.896-.013.644-.046 1.25-.133 1.925-.146.652.14 1.236.065 1.884.06 1.187-.286 2.554-.385 3.805-.179 1.257.233 2.532.181 3.799.334.32.046.627.026.948.008.36.004.69.192.935.41l1.437 1.255c.425.475 1.07.623 1.56 1.078.52.388.983.807 1.484 1.2 1.083.66 2.115 1.41 3.262 1.951.562.29 1.149.54 1.718.841.576.28 1.085.723 1.59 1.064 1.12.62 2.096 1.46 3.145 2.176l3.172 2.126c1.04.73 2.11 1.451 3.056 2.282.546.29 1.143.548 1.723.797l1.789.664c1.315.403 2.639.994 3.766 1.822.043.025.089.047.132.074.289.178.528.41.743.665.549.531 1.027 1.132 1.378 1.833.617 1.113 1.16 2.28 1.522 3.503l.306.905c.139.303.059.65.104.948.14.508.356 1.004.499 1.516.007.016.018.03.018.046 0 .025.01.044.012.068.015.06.035.12.047.18.06.308.278.56.543.725.258.184.585.237.844.448.307.195.267.586.317.881l.12.95.203 1.9c.032.635.022 1.273.035 1.91 0 .26-.208.426-.363.593l-.064.07c-.11.125-.226.244-.341.364l-.076.081c-.27.421-.805.478-1.174.752-.065.032-.134.051-.2.08a.061.061 0 0 1-.011.004c-.8.342-1.665.458-2.506.64-.462.106-.942.062-1.39.19-.451.114-.88.307-1.325.461-.443.158-.905.25-1.332.451l-.647.275c-.112.04-.207.107-.34.12a1.099 1.099 0 0 1-.358-.043c-.496-.106-.778-.61-.846-1.07-.064-.47.004-.949-.143-1.388-.266-.398-.181-.939-.426-1.322-.22-.408-.578-.72-.842-1.12-.263-.399-.426-.849-.581-1.289-.176-.448-.16-.94-.354-1.354-.463-.797-1.387-1.204-2.122-1.756-.786-.503-1.647-.893-2.58-1.015-.453-.17-.897-.238-1.36-.346-.235-.043-.46-.135-.675-.137-.217.02-.457.074-.684.11-.46.086-.924.143-1.377.254l-1.35.38c-.443.138-.905.268-1.208.602-.26.39-.621.704-.936 1.05l-1.918 2.055c-.308.345-.592.716-.778 1.133-.168.44-.423.85-.607 1.267-.197.414-.233.874-.345 1.336l-.288 1.38a2 2 0 0 0 .008.667c.013.114.049.216.059.358a.473.473 0 0 1-.17.391c-.227.158-.393.242-.615.38-.262.142-.54.05-.746.036zM46.297 45.043c-.085.071-.223.162-.393.063-.166-.11-.15-.27-.076-.4.074-.147.277-.127.35-.024.057.107.04.228.148.247l.089.016-.118.098zm80.879 26.097c.028-.01.054-.024.1-.037.037-.026.174.02.166.025.096.048.199.07.302.06.202-.016.43-.15.6-.285.174-.134.156-.333.105-.59-.058-.249.01-.564.095-.776.283-.936.355-1.932.639-2.91.158-.474.384-.92.573-1.382.103-.23.19-.448.279-.687.079-.242.252-.475.43-.635.7-.689 1.328-1.523 2.236-1.994.433-.244.867-.504 1.354-.657.482-.169.985-.188 1.476-.268.497-.054.98-.166 1.489-.173.509.006.98.022 1.494-.007.26.006.515.105.734.207l.334.145c.046.013.11.008.19.036.082.041.11.071.17.107l1.236.831c.416.248.853.602 1.018 1.1.16.49.204.977.417 1.423.24.425.53.833.792 1.251.132.214.267.405.428.604.17.21.187.476.264.71.156.482.198.978.28 1.468.066.494.135.986.427 1.39.278.383.659.755 1.113.9.474.063.985.324 1.423.074.87-.497 1.886-.636 2.834-.912.478-.138.954-.278 1.446-.35a2.37 2.37 0 0 0 .708-.204c.233-.108.49-.12.725-.186.48-.119.942-.3 1.375-.543.104-.068.269-.09.38-.008a.603.603 0 0 0 .335.105c.248-.004.409-.223.605-.37.374-.328.738-.665 1.088-1.015.335-.366.592-.792.82-1.23.265-.438.134-.962.207-1.452.039-.494.08-.993-.013-1.48-.107-.602-.183-1.208-.316-1.806-.011-.06-.014-.124-.022-.185v-.004c-.07-.543-.011-1.098-.19-1.62-.075-.293-.205-.58-.441-.769-.232-.198-.468-.402-.637-.663-.161-.27-.256-.556-.365-.847-.085-.31.008-.614-.04-.916-.036-.609-.248-1.186-.391-1.778l-.645-1.713c-.232-.562-.372-1.172-.694-1.682-.325-.512-.78-.925-1.232-1.333-.442-.417-.966-.737-1.426-1.148-.242-.194-.41-.469-.64-.65a4.717 4.717 0 0 1-.698-.596c-.42-.452-.977-.686-1.523-.973-.276-.132-.537-.308-.792-.462-.257-.15-.553-.238-.835-.354-1.158-.463-2.064-1.336-3.121-1.908-1.165-.37-2.226-.996-3.301-1.589-.951-.774-1.971-1.436-2.991-2.11-.94-.79-2.06-1.278-3.162-1.803-.537-.279-1.106-.558-1.604-.893-.243-.133-.58-.23-.81-.449-.244-.2-.45-.393-.727-.537-.271-.178-.472-.413-.713-.579l-.746-.537c-.5-.364-.921-.833-1.402-1.18-.483-.369-.981-.74-1.401-1.178-.427-.436-.958-.748-1.432-1.128-.234-.194-.533-.28-.772-.49-.228-.19-.498-.27-.794-.34-.291-.068-.596-.112-.9-.202-.311-.1-.565-.218-.863-.279-.583-.144-1.187-.133-1.8-.195l-1.826-.164c-.612-.032-1.22-.09-1.823-.167-.302-.046-.608-.035-.912-.054l-.456-.018c-.083-.006-.134.001-.245-.017h-.01v.168l-.155-.069c-.091-.039-.123.01-.26-.107l-.005-.007-.07.004-.394.022c-.263.01-.514.105-.788.161-.565.111-1.101.062-1.653.1-.544.014-1.091-.033-1.63 0l-.403.013c-.17-.005-.166.015-.383.08-.323-.006-.556-.03-.84-.045-.546-.035-1.075-.08-1.617-.034-.556.05-1.104-.078-1.646-.14-.55-.068-1.068-.187-1.608-.218-.533-.045-1.067-.007-1.621-.016h-.023l-.012-.005c-.188-.076-.253-.098-.438-.089l-.484-.004c-.323-.006-.645.004-.968-.017-.644-.024-1.29-.07-1.933-.07-1.288-.04-2.582 0-3.871-.038-1.288-.098-2.578.027-3.87-.009-1.294-.094-2.578-.096-3.87-.162-2.373.014-4.74.305-7.128.241-1.505.12-3.023.031-4.514-.129-.753-.005-1.497-.157-2.246-.228l-2.238-.27-.84-.039h.012a.272.272 0 0 1-.13-.007l.014.002c-1.1-.06-2.201-.033-3.302-.054l-3.304-.028a316.54 316.54 0 0 0-6.61-.02h.008-.142.007l-1.193.005-.596.003c-.193.017-.396-.048-.592-.073-.471-.015-.924.055-1.408-.03l.012.001-.963.014c-.234.06-.454.131-.707.213-.257.047-.483.076-.725.151-.238.065-.49.118-.716.194-.228.12-.504.1-.723.178-.46.15-.858.482-1.17.845-.141.195-.242.421-.346.647-.104.225-.208.45-.247.686.032.496-.233.984-.235 1.46-.015.485.112.981.045 1.491-.076.475-.035 1.004-.194 1.477-.095.481-.1.977-.062 1.468.06.488.06.992.088 1.488.002.258.038.481.035.754-.065.261-.16.477-.236.72l-.486 1.403c-.17.464-.204.968-.313 1.45-.07.49-.264.974-.093 1.437.127.49.165.992.21 1.485.132.985.165 1.984.189 2.976.033 1.972.114 3.991.266 5.934l-.114 5.967c-.006.495-.05.998-.073 1.497-.003.504-.14.996-.083 1.468.084.466.19 1.003.05 1.511a1.88 1.88 0 0 1-.35.698c-.173.2-.32.367-.453.578-.25.412-.533.847-.644 1.294-.037.474-.022.98-.036 1.468-.013.251.01.476.039.733.038.264-.037.528-.013.745.035.451.284.934.523 1.301.307.304.844.44 1.274.66.452.201.908.343 1.397.393.99.086 1.967.31 2.949.305.976-.003 1.977-.087 2.966-.143l1.49-.085.746-.038c.25-.009.505.048.757.07.279.036.435.071.586-.108l.593-.485c.2-.142.346-.292.398-.503.039-.202.048-.488.073-.728.142-.987.357-1.954.507-2.94.084-.49.157-.982.36-1.474l.719-1.317c.503-.913 1.314-1.566 2.182-2.083.219-.125.409-.24.602-.405.207-.16.434-.287.664-.395.23-.108.465-.199.694-.292.25-.078.399-.213.73-.282.962-.094 2.01-.277 2.999-.019.488.09.994.19 1.464.411.477.233.853.564 1.269.834.42.264.802.618 1.153.96.343.327.792.617 1.078 1.061.628.85.74 1.881 1.06 2.812l.443 1.421c.14.478.29.95.5 1.39.208.444.316.96.765 1.12.437.191.878.475 1.32.551.413.03 1-.029 1.47.06.496.036.99.05 1.486.075.989.08 1.982.013 2.973-.019l2.98.035 1.49.033c.495.02.958-.066 1.465-.098l2.975-.257 2.964-.256c.966-.179 1.965-.334 2.959-.38.498-.037.996-.062 1.492-.056.145 0 .216.007.332-.038.137-.046.28-.046.394-.06l.74-.073c.989-.083 1.978-.239 2.968-.315.994-.052 1.983-.135 2.982-.16 1.01-.02 1.984.051 2.952-.13.954-.217 1.99-.342 2.99-.272 1 .064 1.982.091 2.974.14 3.953.294 7.975.281 11.796-.446l.173-.066zM156.33 68.125l.052-.047-.051.047" fill="#1E5D8A"/><path d="M126.167 71.578c.105-.006.213-.01.31-.044.015-.005.03-.013.044-.018-.118.022-.236.041-.354.062M137.05 39.852c-.104-.08-.205-.16-.314-.23a12.26 12.26 0 0 0-1.034-.573c-.069-.034-.138-.065-.208-.098a74.8 74.8 0 0 1 1.555.9M125.781 42.052a.308.308 0 0 1-.259.062.28.28 0 0 0-.138.001c-.093.024-.186.103-.301.172-.241.154-.443.225-.631.393l-.577.496a1.98 1.98 0 0 0-.497.52 6.863 6.863 0 0 1-.494.589l-.517.557a3.022 3.022 0 0 1-.278.293 3.526 3.526 0 0 1-.331.211 1.399 1.399 0 0 1-.795.186c-.294-.038-.493-.129-.744-.133a4.963 4.963 0 0 0-.74.014c-.124-.001-.242.043-.414 0-.152-.044-.253-.129-.357-.179-.413-.247-.928-.176-1.439-.228l-1.509-.081-1.505.071c-.535.051-1.019-.174-1.505-.259-.496-.06-.984-.15-1.487-.185a.563.563 0 0 1-.4.076 2.363 2.363 0 0 1-.414-.055c-.133-.031-.288-.087-.377-.219-.09-.13-.101-.284-.104-.422-.027-.541-.083-1.088-.125-1.634-.068-.546-.025-1.103-.083-1.64-.043-.538-.145-1.093-.119-1.643.019-.549-.045-1.106.062-1.649l.108-.819.061-.408c.004-.157.137-.319.191-.401l.197-.353c.024-.052.084-.128.077-.162-.009-.001-.001-.124.001-.193a.67.67 0 0 1 .23-.43c.141-.118.349-.118.468-.112l1.639.003c2.181-.058 4.368-.313 6.585-.122.276-.003.556.099.825.149.131.034.259.064.386.082.132.035.228-.016.444.061.478.359.915.629 1.374.936.464.303.924.513 1.439.82.166.153.171.228.282.314.089.085.195.161.306.237.211.144.445.299.632.517.012-.012.009-.015.024-.007a.911.911 0 0 1 .422.029c.181.055.329.159.461.257.247.187.534.361.802.541.553.33 1.07.759 1.651 1 .282.135.613.23.896.404.143.09.284.177.396.326.103.146.159.315.178.484l.213 1.939v.006l-.016 1.65-.007.825c-.005.134-.01.293-.123.398-.116.096-.264.105-.398.125-.897.132-1.768.354-2.689.408-.033.004-.065.011-.098.015a.495.495 0 0 1-.052.003c-.012 0-.018-.005-.029-.006-.048.002-.095.009-.144.01-.138-.066-.19-.234-.175-.364.011-.133.039-.259.08-.382a3.29 3.29 0 0 1 .345-.686c.27-.421.504-.877.498-1.369-.003-.225-.05-.524-.163-.663-.163-.116-.448-.191-.666-.288l-.352-.136c-.046-.016-.095-.035-.133-.047a.538.538 0 0 1-.088.095m-.011 4.643c.407.214.856.317 1.303.229.452-.064.825-.365 1.274-.522a3.3 3.3 0 0 1 1.388-.191c.462.118.927-.012 1.268-.331.33-.297.599-.76.466-1.212-.301-1.184-.453-2.389-.568-3.606.025-.289-.173-.566-.259-.849-.117-.275-.204-.579-.364-.817-.15-.252-.486-.244-.772-.35l-.874-.277c-.274-.102-.589-.153-.87-.313-.283-.179-.487-.374-.742-.539a32.5 32.5 0 0 0-1.496-1.045c-.262-.156-.484-.393-.72-.572l-.342-.282-.396-.205c-.261-.141-.528-.261-.812-.418a3.353 3.353 0 0 1-.734-.595l-.299-.336a.449.449 0 0 0-.145-.102l-.212-.077-.855-.306-.857-.315c-.136-.043-.299-.128-.406-.124-.144.017-.365-.086-.462-.136-.26-.107-.554-.09-.868-.119-.307-.026-.6-.049-.899-.057-.601.022-1.223.036-1.827.007-1.206-.028-2.423.103-3.642.082-.301.014-.603-.009-.903.036-.299.039-.625.061-.924-.052-.135-.061-.283-.079-.401-.014-.111.063-.163.225-.256.347a1.46 1.46 0 0 1-.314.348c-.143.093-.241.157-.281.303-.16 1.184-.339 2.405-.402 3.606-.065 1.225-.332 2.42-.204 3.622.082.598.121 1.198.334 1.766.195.574.32 1.182.655 1.655.161.236.368.466.588.628.055.037.108.065.146.065l.226.012.452.025c.604.037 1.205.079 1.816.078 2.445-.108 4.848.71 7.25.553.599-.021 1.23-.021 1.803-.06.24-.018.483-.263.741-.402l.379-.244.176-.124a.18.18 0 0 0 .023-.02l.029-.106c.102-.325.316-.59.526-.814.215-.227.393-.42.602-.677.403-.483 1.042-.824 1.676-.819l.139.001-.009.125c-.036.473-.065.924-.173 1.402a1.52 1.52 0 0 1-.35.647 1.212 1.212 0 0 0-.256.583c-.032.216-.059.457.057.608.114.155.357.199.577.3" fill="#1E5D8A"/><g transform="translate(0 33.145)"><mask id="b" fill="#fff"><use xlink:href="#a"/></mask><path d="M29.394 33.193a18.698 18.698 0 0 0 5.2-26.3c-6-8.7-15.8-8-24.6-2-8.8 5.699-13.2 14.499-7.3 23.1 6 8.599 18 11 26.7 5v.2z" fill="#1E5D8A" mask="url(#b)"/></g><path d="M20.294 56.737h4.3v2.8h-10.3v-2l6-6.6c.7-.8 1-1.3 1-2.1v-.3c0-1.5-.7-2.2-1.8-2.2h-.2c-1 0-1.8.7-1.8 2.7h-3.2v-.4c0-3.4 1.7-5 5.1-5 3.8 0 5.2 2.2 5.2 4.3v.3c0 1.9-.6 2.8-1.8 4l-4 4.4h1.5v.1z" fill="#FFF"/><path d="M73.63 71.907c0-.448-.064-.96-.193-1.41-.13-.64-.387-1.218-.58-1.859-.064-.127-.13-.255-.193-.384-.065-.257-.194-.449-.258-.704a3.29 3.29 0 0 0-1.03-1.603c-.13-.064-.194-.193-.258-.256a1.269 1.269 0 0 0-.838-.578c-.515-.063-.965-.32-1.352-.576-.773-.385-1.546-.513-2.383-.448-.064 0-.193 0-.322.063-.451-.063-.967.065-1.546.13-.901.127-1.868.384-2.641.96-.45.32-.902.705-1.288 1.09-.387.384-.708.704-1.031 1.09-.064.063-.128.191-.192.255-.194.513-.387.961-.452 1.474-.064.193-.064.448-.193.641-.193.448-.386.897-.386 1.41 0 .257-.258.45-.258.77.064.255.064.511.064.768 0 .384.065.833.065 1.218.129.897.387 1.666.773 2.435.322.577.579 1.217.902 1.794.386.641.902 1.154 1.417 1.666.193.13.45.257.644.257.258.064.515.193.773.256.515.192 1.03.448 1.546.513.515.13 1.03.13 1.609.064l1.353-.192c.322-.064.58-.128.902-.128.644 0 1.159-.257 1.739-.513.709-.32 1.353-.705 1.803-1.41.065-.129.194-.256.258-.385.58-.512.838-1.217 1.095-1.987.064-.19.129-.447.193-.64.065-.192.129-.385.065-.577v-.32c.257-.96.193-1.923.193-2.884m-2.641 1.923c0 .448-.065.833-.386 1.153-.13.128-.194.384-.323.577-.064.192-.13.448-.257.641-.58 1.025-1.352 1.858-2.512 2.114-.065 0-.065 0-.13.065-.708.32-1.416.191-2.125.128-.772-.064-1.48-.513-2.061-.96-.901-.642-1.481-1.475-1.738-2.565-.13-.385-.194-.833-.323-1.219-.13-.32-.13-.64 0-1.024l.194-.96c.064-.45.193-.834.258-1.283.128-.577.386-1.026.773-1.346.45-.385.9-.768 1.48-1.089.838-.512 1.804-.706 2.834-.897.645 0 1.417.128 2.06.576.259.13.388.321.582.513.579.77 1.094 1.666 1.545 2.563.129.321.258.642.258.962-.065.704-.13 1.41-.13 2.051" fill="#1E5D8A"/><path d="M65.334 81.145c-.349 0-.657-.035-.955-.11-.388-.047-.79-.21-1.18-.368-.128-.051-.255-.102-.383-.15-.116-.028-.25-.078-.384-.127a3.303 3.303 0 0 0-.37-.125h-.01c-.226 0-.528-.173-.686-.277-.537-.531-1.068-1.06-1.465-1.717-.166-.298-.314-.61-.458-.91a15.39 15.39 0 0 0-.446-.89 7.894 7.894 0 0 1-.792-2.49c-.002-.211-.018-.416-.033-.62a8.02 8.02 0 0 1-.033-.62c0-.253 0-.492-.06-.731-.005-.248.084-.412.154-.543.053-.097.1-.183.1-.264 0-.547.202-1.018.398-1.473a1.04 1.04 0 0 0 .131-.387c.017-.085.033-.168.058-.242.051-.43.207-.837.372-1.27l.118-.267c.026-.025.05-.065.076-.104a.993.993 0 0 1 .118-.151 15.43 15.43 0 0 1 1.03-1.091 10.71 10.71 0 0 1 1.308-1.105c.672-.502 1.56-.826 2.712-.99.17-.02.33-.042.484-.066.374-.054.73-.105 1.06-.068.144-.06.28-.06.346-.06a4.575 4.575 0 0 1 2.456.466c.376.248.81.5 1.3.56.41.082.753.32.955.654.001-.01.025.024.05.057.042.054.085.11.143.138l.033.023c.53.462.873.994 1.078 1.676.032.123.076.227.123.335.05.117.102.237.137.378l.181.35c.08.259.16.482.236.702.135.384.274.78.358 1.198.124.429.196.959.196 1.442 0 .159.002.318.004.477.008.792.018 1.612-.197 2.428v.274c.068.235-.007.455-.073.652a8.021 8.021 0 0 0-.093.309 7.71 7.71 0 0 1-.1.332c-.279.833-.539 1.513-1.119 2.036-.035.064-.082.126-.129.19-.042.055-.085.11-.113.166-.5.785-1.199 1.176-1.88 1.484l-.143.064c-.534.238-1.038.464-1.664.464-.257 0-.474.044-.727.095l-.143.03-1.362.193c-.26.029-.496.043-.717.043m-5.67-13.382l-.07.184c-.166.43-.308.802-.362 1.225-.027.092-.04.16-.054.232-.029.153-.063.327-.164.477-.178.42-.36.84-.36 1.322 0 .16-.07.29-.137.416-.062.115-.12.223-.12.352.064.237.064.508.064.77 0 .188.016.392.031.596.017.212.033.425.033.62.12.818.36 1.577.756 2.366.161.286.31.598.453.9.142.297.288.604.446.888.374.618.89 1.133 1.39 1.63.19.12.401.21.53.21.174.038.31.088.445.138.122.046.245.092.367.122.148.054.278.107.407.16.388.157.754.304 1.12.349.465.115.945.134 1.572.065l1.48-.22a3.76 3.76 0 0 1 .792-.102c.557 0 1.01-.201 1.532-.436l.142-.063c.635-.288 1.286-.65 1.732-1.35a1.39 1.39 0 0 1 .137-.201c.042-.056.085-.112.113-.168l.037-.048c.536-.474.782-1.121 1.05-1.918.032-.096.063-.208.096-.32.032-.112.064-.224.097-.321.06-.18.111-.334.064-.475l-.008-.051.005-.362c.21-.78.2-1.584.192-2.361-.002-.16-.004-.321-.004-.481 0-.455-.068-.952-.187-1.367-.083-.408-.212-.777-.349-1.167a15.886 15.886 0 0 1-.23-.69l-.183-.357c-.04-.15-.086-.252-.133-.362-.05-.116-.102-.236-.137-.377a3.136 3.136 0 0 0-.966-1.507c-.11-.062-.18-.153-.233-.22-.017-.021-.03-.041-.046-.057a1.147 1.147 0 0 0-.756-.533c-.544-.066-1.018-.341-1.41-.6-.705-.35-1.435-.485-2.282-.422-.066 0-.167 0-.262.047l-.045.023-.049-.008c-.299-.04-.63.008-1.015.063-.158.024-.322.048-.49.066-1.092.156-1.932.46-2.563.93-.43.307-.88.688-1.27 1.076-.378.375-.703.697-1.022 1.079-.036.036-.06.075-.086.114-.03.045-.06.089-.09.124m6.655 10.986c-.274 0-.545-.028-.813-.055l-.264-.027c-.864-.07-1.639-.6-2.146-.994-.944-.67-1.534-1.54-1.797-2.652-.063-.186-.112-.4-.16-.61-.048-.201-.096-.41-.158-.594-.14-.347-.14-.708 0-1.127l.188-.942c.032-.222.082-.437.13-.645.05-.211.095-.41.127-.628.137-.621.416-1.104.828-1.446.447-.381.91-.777 1.507-1.107.886-.543 1.947-.74 2.882-.915.617.012 1.465.103 2.184.604.197.096.335.246.467.389.043.047.086.093.134.14.542.718 1.052 1.565 1.576 2.607.137.34.274.68.274 1.033-.064.71-.129 1.42-.129 2.05 0 .434-.052.887-.433 1.267a.981.981 0 0 0-.148.26 2.426 2.426 0 0 1-.14.273l-.032.096c-.058.183-.123.39-.239.565-.696 1.23-1.552 1.947-2.612 2.182l-.032.003-.018.018-.047.032a2.67 2.67 0 0 1-1.129.223m.354-11.423c-.879.166-1.908.358-2.75.873-.574.318-1.025.703-1.46 1.075-.358.297-.6.72-.72 1.259-.032.218-.082.433-.13.642-.049.21-.095.409-.126.626l-.195.97c-.122.368-.123.65-.009.936.071.208.121.423.17.632.046.202.094.41.155.594.25 1.048.798 1.857 1.681 2.483.48.372 1.201.869 1.981.933l.27.026c.605.06 1.178.12 1.75-.13.07-.066.11-.09.22-.09.931-.208 1.718-.875 2.372-2.031.097-.148.156-.332.206-.494l.058-.158c.051-.076.09-.164.128-.248.06-.128.121-.261.214-.353.282-.281.34-.62.34-1.041 0-.645.065-1.363.128-2.056 0-.285-.12-.582-.246-.897-.509-1.011-1.01-1.841-1.525-2.526a2.176 2.176 0 0 1-.128-.134c-.123-.134-.23-.25-.395-.332-.67-.465-1.45-.56-1.989-.56M143.71 68.344c-.13-.256-.258-.513-.322-.833-.258-.705-.58-1.346-1.032-1.923-.192-.256-.385-.513-.58-.705-.45-.513-.964-.833-1.545-1.217-.902-.577-1.932-.897-2.962-1.025-.773-.065-1.546 0-2.383.063-.13 0-.194.065-.322.065-.581.256-1.225.513-1.804.897-.387.192-.71.513-.966.897-.387.512-.772 1.025-1.224 1.473a3.63 3.63 0 0 0-.773 1.155c-.192.32-.322.64-.386 1.089 0 .256-.065.577-.193.834-.322.64-.322 1.345-.388 2.049v.257c-.128.704.13 1.282.388 1.859.128.32.322.577.45.897.193.32.258.641.322 1.025 0 .513.194.961.58 1.346.129.128.258.32.386.448.193.193.387.385.516.577.128.128.257.193.322.32.257.514.708.706 1.223.834.644.192 1.289.257 1.869.385.9.192 1.803.128 2.639.192.194 0 .453-.064.645-.192.258-.128.58-.257.837-.257.516-.064 1.03-.256 1.417-.704.065-.129.259-.193.388-.258.708-.255 1.159-.832 1.544-1.409.387-.576.709-1.218.966-1.859.259-.577.323-1.153.388-1.794.063-.706.063-1.474.128-2.115 0-.385 0-.705-.065-1.025.194-.576.129-.961-.063-1.346m-1.933 3.524c-.13.577-.194 1.09-.515 1.603a3.103 3.103 0 0 0-.194.448 5.201 5.201 0 0 1-.773 1.282c-.128.127-.257.256-.45.321-.258.064-.58.128-.838.256a6.517 6.517 0 0 1-2.19.577c-.257 0-.45 0-.71-.128-.192-.128-.45-.193-.642-.257-.708-.192-1.353-.576-1.933-1.025-.257-.193-.515-.384-.708-.705a9.165 9.165 0 0 1-.902-2.307.891.891 0 0 1 0-.577c0-.256.065-.513.065-.769.064-.64.257-1.218.515-1.795.193-.32.322-.64.45-.961.13-.192.258-.448.387-.64.259-.321 1.61-1.283 1.997-1.475.064 0 .064 0 .129-.063.387-.065.58-.321.709-.705a2.216 2.216 0 0 1 1.804.192c.707.448 1.48.961 2.189 1.41.193.127.322.32.45.576.195.385.387.77.645 1.09.258.32.386.704.45 1.153.065.705.13 1.346.193 2.051-.128.257-.128.32-.128.448" fill="#1E5D8A"/><path d="M137.526 79.462a17.996 17.996 0 0 0-.867-.035c-.587-.015-1.194-.029-1.808-.16-.214-.047-.434-.085-.662-.125a10.309 10.309 0 0 1-1.219-.263c-.507-.126-1.025-.326-1.32-.916a.545.545 0 0 0-.146-.148c-.047-.04-.096-.08-.146-.129a4.239 4.239 0 0 0-.517-.578 3.103 3.103 0 0 1-.203-.235c-.06-.076-.122-.152-.182-.213-.416-.414-.627-.905-.627-1.459-.06-.342-.12-.647-.299-.943-.072-.174-.149-.31-.229-.453a3.911 3.911 0 0 1-.234-.467c-.26-.584-.533-1.193-.395-1.947l-.002-.228.028-.362c.046-.587.092-1.196.375-1.76.11-.216.176-.509.176-.762.064-.457.185-.8.41-1.172.19-.445.462-.85.797-1.184.438-.436.825-.947 1.198-1.44.3-.448.644-.767 1.034-.96.484-.325 1.021-.557 1.54-.783l.335-.133a.296.296 0 0 0 .11-.023.644.644 0 0 1 .211-.04l.071-.006c.804-.062 1.566-.12 2.327-.057 1.15.143 2.17.496 3.036 1.05l.145.095c.517.342 1.007.665 1.435 1.151.194.193.394.458.587.715.43.548.765 1.173 1.054 1.964.065.322.186.561.313.814l.001.003c.232.46.258.89.086 1.427.06.322.06.644.06 1.015-.034.34-.049.69-.066 1.062-.015.357-.032.72-.063 1.067-.062.604-.124 1.227-.4 1.846a10.2 10.2 0 0 1-.98 1.881c-.405.607-.884 1.204-1.624 1.472l-.069.033c-.085.04-.203.092-.229.145-.387.457-.898.712-1.54.792-.206.001-.47.084-.787.24a1.376 1.376 0 0 1-.715.21zM134.6 62.927l-.243.106c-.506.221-1.028.45-1.507.766-.355.178-.66.461-.922.852-.396.526-.789 1.047-1.244 1.498a3.512 3.512 0 0 0-.739 1.104c-.209.352-.318.66-.375 1.05.002.28-.076.62-.208.882-.254.506-.297 1.057-.34 1.641-.01.116-.019.235-.03.352l.001.242c-.123.685.118 1.224.372 1.793.063.157.14.293.22.437.081.145.166.296.233.465.196.322.265.657.332 1.06.002.5.176.902.534 1.26.07.067.138.153.206.238.061.075.121.15.181.21.194.193.396.392.536.6l.103.083c.085.071.171.142.228.254.225.448.61.623 1.12.751.403.12.802.19 1.188.255.231.04.458.08.676.127.582.125 1.174.14 1.747.154.296.006.587.014.871.036.138 0 .37-.052.541-.166.382-.192.688-.284.926-.284.541-.068.984-.286 1.296-.649.056-.12.224-.197.36-.26l.076-.035c.704-.256 1.135-.833 1.484-1.355a9.815 9.815 0 0 0 .95-1.829c.258-.577.32-1.173.377-1.75.031-.342.047-.7.063-1.05.017-.378.032-.735.065-1.066 0-.37 0-.674-.062-.978l-.008-.042.014-.04c.185-.555.112-.89-.056-1.224l.145-.07-.146.068c-.13-.26-.267-.53-.335-.87-.27-.736-.59-1.334-1-1.856a6.598 6.598 0 0 0-.566-.69c-.407-.463-.857-.76-1.379-1.103l-.142-.095c-.824-.527-1.799-.863-2.894-1-.727-.06-1.475-.002-2.269.058l-.08.007a.313.313 0 0 0-.124.025c-.047.014-.103.034-.176.038zm2.184 13.588c-.255 0-.472-.009-.746-.146a2.058 2.058 0 0 0-.5-.209l-.123-.039c-.642-.173-1.292-.517-1.98-1.05-.265-.198-.54-.402-.749-.749a9.235 9.235 0 0 1-.92-2.353 1.033 1.033 0 0 1-.004-.639c.002-.127.017-.253.035-.379.014-.122.03-.243.03-.364.06-.606.222-1.175.53-1.859.194-.328.317-.632.447-.956.078-.123.14-.23.202-.339.067-.117.133-.232.2-.33.281-.35 1.647-1.325 2.058-1.53l.071-.017.016-.017.037-.036.051-.01c.287-.047.456-.219.582-.596l.027-.079.08-.024a2.39 2.39 0 0 1 1.927.205c.361.228.728.466 1.095.704.374.242.747.486 1.104.711.247.163.39.404.507.641.198.39.381.755.626 1.06.257.32.411.71.485 1.232l.093.983c.034.354.068.706.102 1.075l.004.045-.022.041c-.11.223-.11.265-.11.378l-.004.034-.059.28c-.099.473-.193.921-.477 1.373-.058.116-.117.234-.178.414-.218.51-.494.967-.8 1.334-.144.143-.295.294-.524.37l-.142.035c-.223.053-.475.112-.675.212a6.774 6.774 0 0 1-2.248.594h-.048zm-1.404-10.64c-.41.218-1.68 1.125-1.915 1.415-.054.083-.116.192-.179.302-.067.114-.132.23-.198.328a6.212 6.212 0 0 1-.447.955c-.283.635-.438 1.173-.493 1.728 0 .118-.016.253-.032.388a2.633 2.633 0 0 0-.032.366l-.008.05a.717.717 0 0 0 0 .475 8.96 8.96 0 0 0 .89 2.282c.173.286.411.463.662.651.658.508 1.271.834 1.88 1.001l.125.04c.183.056.391.122.566.237.206.101.371.101.62.101a6.362 6.362 0 0 0 2.122-.562c.228-.113.5-.178.738-.235l.127-.03c.146-.05.257-.16.376-.279.28-.334.537-.763.74-1.23.062-.19.13-.326.194-.455.263-.42.347-.822.444-1.286.02-.088.036-.176.057-.266.001-.137.011-.225.125-.46-.032-.354-.065-.693-.097-1.03l-.093-.977c-.065-.455-.197-.797-.416-1.068-.267-.334-.466-.73-.66-1.115-.136-.272-.252-.422-.397-.518-.356-.225-.73-.468-1.105-.71a94.332 94.332 0 0 0-1.084-.699 2.041 2.041 0 0 0-1.592-.195c-.112.301-.306.627-.755.722a.245.245 0 0 1-.163.074zM67.51 71.202c-.322-.64-1.095-1.025-1.803-1.025h-.515c-.451 0-.708.13-1.03.512-.259.321-.452.641-.645.961-.065.065-.065.193-.065.321-.063.192-.063.385-.128.512-.128.321-.064.641-.064 1.027.064.768.58 1.152 1.095 1.473.385.257.772.45 1.224.513.644.128 1.095-.192 1.546-.642.192-.192.322-.448.45-.64.451-.64.451-1.282.322-1.987-.129-.32-.194-.705-.387-1.025" fill="#1E5D8A"/><path d="M65.855 75.685c-.099 0-.2-.011-.309-.031-.413-.06-.81-.225-1.28-.537-.526-.327-1.096-.747-1.167-1.594 0-.11-.004-.203-.009-.292-.012-.276-.025-.536.084-.807a.861.861 0 0 0 .06-.222c.015-.081.031-.168.058-.255 0-.145.005-.303.111-.41a7.43 7.43 0 0 1 .633-.947c.355-.425.656-.573 1.156-.573h.515c.815 0 1.613.456 1.944 1.108.132.22.205.459.276.69.038.122.074.242.12.353.13.696.171 1.41-.34 2.138-.033.049-.066.105-.102.162-.1.163-.213.348-.367.5-.38.378-.808.717-1.383.717zm-.663-5.348c-.403 0-.615.107-.907.455a8.18 8.18 0 0 0-.63.942c-.04.056-.04.17-.04.238l-.01.05c-.027.08-.04.162-.055.237a1.077 1.077 0 0 1-.082.296c-.077.194-.068.41-.056.66.004.095.008.193.008.295.06.685.536 1.036 1.02 1.338.432.286.79.437 1.161.49.566.11.956-.145 1.41-.596.126-.125.224-.286.32-.441.036-.061.073-.121.11-.176.446-.634.406-1.272.297-1.868-.039-.09-.078-.218-.119-.348-.065-.215-.133-.437-.246-.623l-.007-.012c-.277-.551-.959-.937-1.659-.937h-.515zM137.204 69.24c-.13-.063-.257-.063-.387-.127-.708-.257-1.288 0-1.74.513-.257.32-.385.576-.321 1.09 0 .961.58 1.665 1.417 2.05.644.255 1.16.192 1.675-.449.515-.64.709-1.923-.065-2.756-.192-.128-.321-.256-.58-.32" fill="#1E5D8A"/><path d="M136.81 73.066c-.215 0-.445-.051-.697-.151-.968-.445-1.518-1.245-1.518-2.2-.069-.538.072-.836.357-1.19.551-.626 1.212-.817 1.92-.563.066.033.118.045.177.06.064.016.135.033.21.067.22.059.358.159.492.255l.121.084c.816.873.703 2.242.101 2.99-.35.435-.724.648-1.163.648m-.53-3.895c-.388 0-.752.187-1.08.56-.242.3-.34.512-.285.965.002.856.471 1.533 1.325 1.925.63.25 1.047.138 1.481-.404.45-.557.68-1.754-.057-2.547-.016-.005-.058-.036-.1-.066a1.073 1.073 0 0 0-.4-.207l-.033-.013a.79.79 0 0 0-.16-.051 1.105 1.105 0 0 1-.225-.076 1.38 1.38 0 0 0-.466-.086M77.365 48.22s0 .065 0 0c.064.065 0 0 0 0" fill="#1E5D8A"/><path fill="#FFF" d="M27.611 57.397h-10v-2.8h3.4v-8.9l-2.5 1.7-1.6-2.3 4.9-3.3h2.4v12.8h3.4z"/><path d="M29.605 66.22a18.701 18.701 0 0 0 5.2-26.3c-6-8.7-15.8-8-24.6-2-8.8 5.7-13.2 14.5-7.3 23.1 6 8.6 18 11 26.7 5v.2z" fill="#1E5D8A"/><path d="M20.505 56.62h4.3v2.8h-10.3v-2l6-6.6c.7-.8 1-1.3 1-2.1v-.3c0-1.5-.7-2.2-1.8-2.2h-.2c-1 0-1.8.7-1.8 2.7h-3.2v-.4c0-3.4 1.7-5 5.1-5 3.8 0 5.2 2.2 5.2 4.3v.3c0 1.9-.6 2.8-1.8 4l-4 4.4h1.5v.1z" fill="#FFF"/><path d="M73.84 71.79a5.3 5.3 0 0 0-.192-1.41c-.13-.64-.387-1.218-.58-1.86a45.415 45.415 0 0 1-.193-.383c-.065-.257-.194-.449-.258-.705a3.293 3.293 0 0 0-1.03-1.602c-.13-.064-.194-.193-.258-.257a1.269 1.269 0 0 0-.837-.577c-.516-.063-.966-.32-1.353-.576-.773-.385-1.546-.513-2.383-.448-.064 0-.193 0-.322.063-.451-.063-.966.065-1.546.13-.901.127-1.868.383-2.641.96-.45.32-.901.705-1.288 1.09-.386.384-.708.704-1.03 1.09-.065.063-.13.191-.193.255-.194.513-.387.96-.451 1.474-.065.193-.065.448-.194.641-.193.448-.386.897-.386 1.41 0 .256-.258.448-.258.768.065.257.065.513.065.77 0 .384.064.833.064 1.218.129.897.387 1.666.773 2.435.322.576.58 1.217.902 1.794.386.641.902 1.154 1.417 1.666.193.128.45.257.644.257.258.064.515.193.773.256.515.192 1.03.448 1.546.513.515.128 1.03.128 1.61.064.45-.064.9-.129 1.352-.192.322-.065.58-.128.902-.128.644 0 1.159-.257 1.739-.513.709-.32 1.353-.705 1.803-1.41.065-.129.194-.257.258-.385.58-.512.838-1.218 1.095-1.987.064-.19.129-.447.193-.64.065-.192.129-.385.065-.577v-.32c.257-.96.193-1.923.193-2.884M71.2 73.713c0 .448-.064.833-.386 1.153-.13.128-.194.384-.322.576-.065.193-.13.45-.258.642-.58 1.025-1.352 1.858-2.512 2.114-.064 0-.064 0-.13.065-.707.32-1.416.191-2.124.128-.773-.065-1.481-.513-2.061-.96-.902-.642-1.482-1.476-1.74-2.565-.128-.385-.193-.833-.321-1.219-.13-.32-.13-.64 0-1.024l.193-.96c.064-.45.193-.835.258-1.283.128-.577.386-1.026.773-1.346.45-.385.9-.768 1.48-1.09.838-.512 1.804-.705 2.835-.896.644 0 1.417.128 2.06.576.258.13.387.32.58.513.58.77 1.095 1.666 1.546 2.563.129.32.258.641.258.962-.064.704-.13 1.41-.13 2.051" fill="#1E5D8A"/><path d="M65.545 81.028c-.349 0-.657-.035-.955-.11-.388-.047-.79-.211-1.18-.368-.128-.051-.255-.102-.383-.15-.116-.028-.25-.078-.383-.127a3.387 3.387 0 0 0-.372-.125h-.009c-.226 0-.528-.174-.685-.278-.538-.53-1.069-1.06-1.466-1.717-.166-.297-.314-.608-.458-.91a15.39 15.39 0 0 0-.446-.89 7.894 7.894 0 0 1-.792-2.49 8.317 8.317 0 0 0-.033-.618 8.045 8.045 0 0 1-.033-.621c0-.254 0-.492-.06-.731-.004-.248.084-.412.154-.543.054-.098.1-.184.1-.264 0-.547.202-1.018.398-1.473.08-.124.106-.257.131-.388.017-.084.033-.167.058-.241.051-.43.207-.837.372-1.27l.118-.267c.026-.025.05-.065.076-.104.04-.057.08-.114.118-.152.318-.381.647-.71 1.03-1.09.402-.4.866-.792 1.308-1.106.672-.501 1.56-.825 2.712-.99.17-.018.33-.041.484-.065.374-.054.73-.106 1.06-.07.145-.06.28-.06.346-.06a4.594 4.594 0 0 1 2.456.467c.376.248.811.5 1.3.562.41.08.754.319.955.652.001-.008.025.024.05.057a.44.44 0 0 0 .143.139l.033.023c.53.462.873.994 1.08 1.676.03.123.074.227.122.335.05.117.101.237.136.378l.181.35c.081.259.16.48.236.702.135.384.274.78.358 1.198.124.429.196.958.196 1.442 0 .158.002.318.004.477.008.792.018 1.612-.197 2.427v.275c.068.234-.007.455-.073.652a6.608 6.608 0 0 0-.092.309 8.687 8.687 0 0 1-.1.33c-.28.835-.54 1.515-1.12 2.038-.035.063-.082.126-.129.19-.042.055-.085.109-.113.166-.5.784-1.199 1.176-1.88 1.484l-.143.063c-.534.238-1.038.464-1.664.464-.257 0-.474.045-.727.096l-.143.029-1.36.194c-.26.029-.498.043-.719.043m-5.67-13.382l-.07.183c-.166.43-.308.803-.362 1.226-.027.092-.04.16-.053.232-.03.152-.064.326-.165.477-.178.42-.36.84-.36 1.322 0 .16-.07.29-.137.416-.062.115-.12.223-.12.352.064.236.064.508.064.77 0 .188.016.392.032.596.016.212.032.425.032.62.12.818.36 1.577.757 2.365.16.287.31.599.452.9.142.298.288.605.446.888.374.619.89 1.134 1.39 1.63.19.122.401.21.53.21.174.039.31.089.445.139.122.045.245.092.367.122.148.054.278.107.407.16.388.157.755.304 1.12.349.465.115.945.134 1.572.065l1.48-.22c.26-.052.503-.103.792-.103.557 0 1.01-.201 1.532-.435l.142-.063c.635-.288 1.286-.65 1.733-1.35a1.3 1.3 0 0 1 .136-.201c.042-.057.085-.112.113-.168l.038-.048c.535-.474.781-1.121 1.05-1.918.031-.096.062-.208.095-.32.032-.112.064-.224.097-.321.06-.18.112-.334.064-.475l-.008-.051.005-.362c.21-.781.2-1.585.192-2.362-.002-.16-.004-.32-.004-.48 0-.455-.068-.952-.187-1.367-.083-.41-.212-.777-.349-1.167a15.886 15.886 0 0 1-.23-.69l-.182-.357c-.042-.15-.087-.252-.134-.363a2.323 2.323 0 0 1-.137-.376 3.136 3.136 0 0 0-.966-1.507c-.11-.062-.18-.153-.233-.22a.619.619 0 0 0-.046-.057 1.147 1.147 0 0 0-.755-.533c-.545-.067-1.019-.341-1.41-.601-.706-.348-1.436-.484-2.282-.421-.067 0-.168 0-.263.046l-.044.024-.05-.008c-.299-.04-.63.007-1.015.063-.158.024-.322.048-.49.066-1.092.156-1.932.46-2.563.93-.43.307-.88.687-1.27 1.075-.377.375-.702.698-1.02 1.08-.037.035-.062.075-.088.113-.03.045-.06.09-.09.125m6.655 10.986c-.274 0-.545-.028-.812-.056l-.265-.026c-.864-.071-1.638-.6-2.145-.994-.945-.671-1.534-1.54-1.798-2.652-.063-.186-.112-.401-.16-.61-.048-.202-.096-.41-.158-.594-.14-.348-.14-.708 0-1.127l.188-.942c.032-.222.082-.437.13-.646.05-.211.095-.41.127-.627.137-.622.416-1.104.83-1.446.445-.381.908-.778 1.505-1.107.886-.543 1.947-.741 2.883-.915.616.012 1.464.103 2.183.603.197.097.335.246.467.39.043.046.086.093.134.14.542.718 1.052 1.565 1.576 2.607.137.34.274.679.274 1.032-.064.71-.129 1.42-.129 2.05 0 .435-.052.888-.433 1.268-.053.052-.099.153-.148.26a2.426 2.426 0 0 1-.14.273l-.032.095c-.058.184-.123.39-.239.566-.696 1.23-1.552 1.947-2.612 2.182l-.032.002-.018.019-.046.032a2.693 2.693 0 0 1-1.13.223m.354-11.424c-.879.167-1.908.359-2.75.874-.574.317-1.024.703-1.46 1.074-.358.298-.6.72-.72 1.26-.032.218-.08.433-.13.64-.049.212-.095.41-.126.628l-.195.97c-.122.368-.123.65-.009.936.071.208.121.423.17.632.046.202.094.41.156.594.248 1.048.797 1.857 1.68 2.483.48.372 1.201.869 1.981.932l.27.026c.605.062 1.178.12 1.75-.128.07-.067.11-.09.22-.09.931-.21 1.718-.876 2.372-2.033.097-.147.156-.331.207-.493l.057-.158c.051-.077.09-.164.13-.248.058-.128.12-.261.212-.354.282-.28.34-.618.34-1.04 0-.645.065-1.363.128-2.056 0-.285-.12-.582-.246-.897-.509-1.011-1.01-1.842-1.525-2.526a2.957 2.957 0 0 1-.128-.134c-.123-.134-.229-.25-.395-.332-.67-.465-1.45-.56-1.989-.56M142.92 68.227c-.128-.257-.257-.513-.321-.833-.258-.705-.58-1.346-1.032-1.923-.192-.256-.385-.514-.58-.705-.45-.513-.964-.833-1.545-1.218-.902-.576-1.931-.896-2.962-1.025-.773-.064-1.546 0-2.383.064-.13 0-.194.065-.322.065-.581.256-1.225.513-1.804.896-.387.193-.71.513-.966.898-.387.51-.772 1.025-1.224 1.473a3.63 3.63 0 0 0-.773 1.155c-.192.32-.322.64-.386 1.089 0 .256-.065.577-.193.833-.322.64-.322 1.345-.387 2.05v.257c-.13.704.129 1.28.387 1.859.128.32.322.577.45.897.194.32.258.64.322 1.025 0 .513.194.96.58 1.346.129.128.258.32.386.448.194.193.387.385.516.577.129.128.258.193.322.32.257.514.709.706 1.224.834.643.192 1.288.256 1.868.385.9.192 1.803.128 2.639.192.194 0 .453-.064.645-.192.258-.13.58-.257.837-.257.516-.064 1.03-.256 1.417-.705.065-.128.259-.193.388-.257.708-.256 1.159-.832 1.544-1.41.387-.575.709-1.217.966-1.858.259-.577.323-1.153.388-1.794.064-.706.064-1.474.128-2.115 0-.385 0-.705-.064-1.025.193-.577.129-.961-.064-1.346m-1.933 3.524c-.13.577-.193 1.09-.515 1.603a3.219 3.219 0 0 0-.194.448 5.201 5.201 0 0 1-.773 1.282c-.128.127-.257.256-.45.32-.257.064-.58.128-.838.257a6.535 6.535 0 0 1-2.19.577c-.257 0-.45 0-.71-.128-.191-.13-.45-.193-.642-.258-.708-.191-1.352-.575-1.933-1.024-.257-.193-.514-.385-.708-.705a9.18 9.18 0 0 1-.902-2.307.891.891 0 0 1 0-.577c0-.256.065-.513.065-.77.064-.64.257-1.217.516-1.794.192-.32.32-.64.45-.961.129-.193.257-.448.386-.64.259-.321 1.61-1.283 1.998-1.475.064 0 .064 0 .128-.063.387-.065.58-.321.709-.705a2.215 2.215 0 0 1 1.804.192c.708.448 1.48.96 2.189 1.409.193.128.322.32.45.577.195.385.388.77.645 1.09.258.32.386.704.45 1.153.065.705.13 1.346.193 2.05-.128.257-.128.32-.128.449" fill="#1E5D8A"/><path d="M136.737 79.345c-.291-.021-.577-.028-.866-.036-.588-.014-1.195-.028-1.809-.16-.214-.046-.434-.084-.662-.124a10.309 10.309 0 0 1-1.219-.263c-.507-.126-1.025-.326-1.32-.916-.026-.051-.079-.094-.146-.149a2.296 2.296 0 0 1-.146-.129 4.353 4.353 0 0 0-.516-.577c-.068-.067-.136-.152-.204-.236a2.634 2.634 0 0 0-.182-.212c-.416-.414-.627-.905-.627-1.459-.06-.343-.121-.648-.299-.943-.072-.174-.149-.31-.229-.453a3.91 3.91 0 0 1-.233-.467c-.262-.584-.534-1.193-.396-1.947l-.002-.228.029-.362c.045-.588.091-1.197.375-1.76.108-.217.176-.51.176-.762a2.9 2.9 0 0 1 .408-1.172 3.78 3.78 0 0 1 .798-1.184c.438-.436.825-.947 1.198-1.442.299-.446.644-.765 1.034-.958.484-.325 1.021-.558 1.539-.784l.336-.132a.328.328 0 0 0 .11-.023.634.634 0 0 1 .212-.04l.07-.006c.804-.062 1.566-.121 2.327-.057 1.15.143 2.17.496 3.036 1.05l.145.095c.517.342 1.007.664 1.435 1.151.194.193.394.458.587.715.429.548.765 1.173 1.054 1.964.065.322.186.561.313.814l.001.003c.232.459.258.889.086 1.427.06.322.06.644.06 1.015-.034.339-.049.69-.066 1.062-.015.357-.032.72-.063 1.067-.061.604-.124 1.227-.4 1.846-.28.695-.61 1.33-.98 1.881-.405.607-.883 1.204-1.624 1.472l-.069.033c-.085.039-.203.092-.229.145-.387.457-.898.712-1.541.792-.205.001-.47.084-.786.24-.225.151-.52.209-.715.209zM133.81 62.81l-.243.106c-.506.221-1.028.449-1.507.766-.355.178-.66.461-.921.852-.397.526-.79 1.047-1.245 1.498a3.53 3.53 0 0 0-.739 1.104 2.682 2.682 0 0 0-.375 1.049 2.06 2.06 0 0 1-.208.882c-.254.507-.297 1.058-.341 1.642-.01.116-.018.235-.029.351l.001.242c-.123.686.118 1.225.373 1.794.062.156.138.292.219.436.082.146.166.297.233.466.196.321.265.657.332 1.06.002.499.176.901.534 1.259.069.067.139.153.206.239.061.074.121.149.181.209.194.193.396.393.536.601l.103.083c.085.071.171.142.228.254.225.448.61.623 1.119.75.404.121.803.189 1.189.256.231.04.458.079.676.127.582.125 1.174.14 1.747.153.296.007.587.014.871.037.138-.001.37-.052.542-.166.382-.192.688-.284.926-.284.541-.068.983-.287 1.295-.649.056-.12.224-.197.361-.26l.075-.036c.704-.255 1.135-.832 1.484-1.354a9.877 9.877 0 0 0 .951-1.829c.257-.577.318-1.173.376-1.751.031-.341.047-.7.063-1.05.017-.377.032-.734.065-1.065-.001-.37-.001-.674-.061-.978l-.009-.042.014-.04c.185-.555.112-.891-.056-1.224l.145-.071-.146.069c-.131-.261-.267-.53-.335-.871-.27-.735-.591-1.333-1-1.855a6.725 6.725 0 0 0-.565-.691c-.408-.462-.858-.76-1.38-1.102l-.142-.095c-.824-.527-1.799-.864-2.894-1-.727-.062-1.475-.002-2.268.058l-.082.007a.321.321 0 0 0-.123.025c-.047.014-.103.033-.176.038zm2.184 13.588c-.255 0-.472-.009-.746-.146a2.042 2.042 0 0 0-.501-.209l-.122-.039c-.642-.174-1.292-.517-1.981-1.05-.264-.198-.538-.402-.748-.749a9.235 9.235 0 0 1-.92-2.353 1.033 1.033 0 0 1-.004-.639c.002-.127.018-.253.035-.379.014-.122.03-.243.03-.364.059-.606.222-1.175.529-1.859.195-.328.318-.632.448-.956.078-.123.14-.231.202-.339.067-.117.133-.233.2-.331.281-.35 1.647-1.324 2.058-1.53l.071-.016.016-.017.037-.037.051-.009c.287-.047.456-.219.582-.596l.027-.079.08-.024a2.385 2.385 0 0 1 1.927.205c.361.228.728.466 1.095.704.374.242.747.486 1.104.711.247.163.39.404.508.641.197.389.38.755.626 1.06.256.318.41.709.485 1.232l.092.983c.035.353.068.705.102 1.075l.004.045-.021.041c-.111.223-.111.265-.111.377l-.004.035-.059.279c-.099.473-.193.921-.477 1.374a2.928 2.928 0 0 0-.178.414c-.218.51-.493.967-.801 1.334-.143.143-.294.293-.523.37l-.142.035c-.223.052-.475.112-.675.212a6.774 6.774 0 0 1-2.248.594h-.048zm-1.404-10.64c-.411.218-1.68 1.124-1.915 1.415-.054.083-.116.192-.179.302-.067.114-.132.229-.198.328a6.12 6.12 0 0 1-.447.955c-.282.635-.437 1.173-.493 1.728.001.118-.016.253-.032.387a2.658 2.658 0 0 0-.031.366l-.009.05a.72.72 0 0 0 0 .476c.18.771.471 1.514.89 2.281.173.287.411.464.662.652.658.508 1.271.834 1.879 1.001l.126.039c.184.057.391.123.566.238.206.101.371.101.619.101a6.38 6.38 0 0 0 2.123-.562c.229-.113.499-.179.739-.235l.126-.031c.147-.05.258-.161.376-.278.279-.334.537-.763.739-1.232.063-.189.13-.324.195-.454.263-.42.347-.821.444-1.286.019-.087.036-.175.057-.265.001-.137.011-.225.125-.461-.032-.353-.065-.692-.097-1.03l-.093-.976c-.065-.455-.197-.797-.416-1.068-.267-.334-.466-.73-.66-1.115-.136-.272-.252-.422-.397-.518-.356-.225-.73-.469-1.105-.711a82.519 82.519 0 0 0-1.084-.698 2.035 2.035 0 0 0-1.591-.195c-.113.301-.307.626-.756.722a.245.245 0 0 1-.163.074zM67.722 71.085c-.322-.642-1.095-1.025-1.804-1.025h-.516c-.45 0-.707.13-1.03.512-.257.321-.45.641-.644.961-.064.065-.064.193-.064.321-.064.192-.064.384-.13.512-.127.321-.063.641-.063 1.027.064.768.58 1.152 1.095 1.472.386.258.773.45 1.223.513.645.13 1.096-.19 1.546-.64.194-.193.323-.449.45-.64.452-.642.452-1.284.323-1.988-.13-.32-.193-.705-.386-1.025" fill="#1E5D8A"/><path d="M66.067 75.568c-.1 0-.201-.011-.31-.032-.412-.058-.81-.224-1.28-.536-.525-.328-1.096-.748-1.166-1.594a7.782 7.782 0 0 0-.01-.292c-.011-.276-.024-.536.085-.807a.824.824 0 0 0 .059-.222c.015-.081.03-.17.059-.255 0-.146.005-.304.11-.41a7.35 7.35 0 0 1 .633-.948c.355-.424.657-.572 1.156-.572h.516c.815 0 1.613.455 1.944 1.107.132.22.205.459.276.69.038.123.074.243.119.354.13.696.172 1.41-.34 2.138a7.034 7.034 0 0 0-.101.16c-.101.165-.213.35-.367.503-.38.376-.81.716-1.383.716zm-.664-5.348c-.402 0-.615.107-.906.455-.25.31-.444.63-.63.942-.042.056-.042.17-.042.237l-.008.05c-.027.082-.041.163-.055.237a1.075 1.075 0 0 1-.082.297c-.077.193-.068.41-.056.66.004.095.008.193.008.294.058.686.536 1.037 1.019 1.339.432.286.79.437 1.16.49.568.11.958-.145 1.41-.596.127-.125.225-.286.32-.441l.11-.176c.448-.634.408-1.272.299-1.87-.04-.088-.078-.216-.12-.347-.065-.214-.133-.436-.246-.622l-.006-.012c-.277-.552-.96-.937-1.66-.937h-.515zM136.415 69.123c-.13-.063-.257-.063-.387-.127-.708-.258-1.288 0-1.74.513-.256.32-.385.576-.32 1.09 0 .961.58 1.665 1.417 2.05.643.255 1.159.192 1.674-.449.515-.64.71-1.923-.065-2.757-.192-.127-.321-.255-.58-.32" fill="#1E5D8A"/><path d="M136.021 72.947c-.215 0-.445-.05-.696-.15-.969-.445-1.519-1.245-1.519-2.2-.069-.538.072-.836.357-1.189.551-.627 1.212-.819 1.92-.564.066.032.118.044.177.06.064.016.135.033.21.067.22.06.36.16.492.255l.121.084c.816.873.703 2.242.101 2.99-.35.436-.724.648-1.163.648m-.53-3.895c-.388 0-.752.186-1.08.561-.242.298-.34.511-.285.964.002.856.472 1.533 1.325 1.925.631.25 1.047.139 1.481-.404.45-.556.68-1.753-.057-2.546-.016-.005-.058-.036-.1-.066a1.09 1.09 0 0 0-.4-.208l-.033-.012a.79.79 0 0 0-.16-.051 1.054 1.054 0 0 1-.225-.077 1.403 1.403 0 0 0-.466-.085M77.576 48.103s0 .064 0 0c.064.064 0 0 0 0" fill="#1E5D8A"/><path d="M63.998 48.174l.393-.711c.031-.057.06-.111.088-.166.028-.053.056-.106.09-.166l.081-.163c.016-.02.028-.042.047-.07a.075.075 0 0 1 .026-.02l.281.599c.006.03.02.057.031.078l.04.085c.028.038.046.077.066.115.024.05.05.1.075.132l.172.344a.471.471 0 0 0 .04.078c.014.022.014.024.014.052a.27.27 0 0 0 .063.153.949.949 0 0 1 .187.26l.022.055a1.106 1.106 0 0 0-.195.288l-.047.094a.382.382 0 0 1-.044.09c-.025.043-.052.09-.056.12a3.07 3.07 0 0 1-.147.218c-.054.079-.11.158-.15.227-.035.048-.059.089-.082.129-.02.035-.04.07-.07.11l-.008.012a.447.447 0 0 0-.04.035v-.002c-.01-.018-.025-.05-.053-.078a3.402 3.402 0 0 1-.075-.148c-.03-.063-.06-.126-.09-.18l-.24-.48a12.67 12.67 0 0 1-.118-.248c-.039-.084-.077-.167-.117-.246a.936.936 0 0 0-.032-.072.707.707 0 0 1-.056-.144l-.102-.24c-.017-.024-.014-.05.007-.14zm-2.224-1.76a.136.136 0 0 0 .027-.08l.056-.062v-.033c.051-.076.105-.086.14-.086h1.148c.331 0 .644 0 .984.063h.063c.035 0 .065 0 .089.006l-.047.11-.069.136c-.033.066-.064.13-.098.179a2.99 2.99 0 0 0-.286.48l-.041.06c-.032.032-.046.069-.068.117-.027.029-.083.086-.094.17-.008.002-.029.005-.072-.006-.18-.027-.324.003-.434.098l-.026.015a.633.633 0 0 0-.243.066 2.638 2.638 0 0 0-.095.023c-.18.047-.317.026-.505.103a.142.142 0 0 0-.053.022.43.43 0 0 0-.227.072 1.235 1.235 0 0 1-.068.015c-.05.01-.105.02-.154.043-.117.03-.233.052-.349.074-.123.023-.246.045-.365.077l-.087.022h-.057l.007-.017a1.14 1.14 0 0 0 .087-.15c.019-.038.038-.076.079-.141a.593.593 0 0 1 .096-.145l.017-.031c.01-.027.025-.05.038-.073a.745.745 0 0 0 .044-.09l.06-.103c.053-.087.114-.187.155-.29l.047-.09c.1-.185.203-.382.3-.554zM66.2 43.13c-.263.5-.47.855-.684 1.184l-.04.055c-.047.069-.087.129-.175.21a1.3 1.3 0 0 1-.062.079c-.05.063-.106.134-.153.223-.043.046-.069.096-.094.144a1.59 1.59 0 0 1-.043.08c-.022.022-.1.118-.106.187h-.002a7.551 7.551 0 0 0-.22-.355 7.057 7.057 0 0 1-.25-.41l-.02-.041a1.853 1.853 0 0 0-.12-.352l-.02-.038a.262.262 0 0 0-.055-.098l-.04-.093c-.049-.113-.1-.231-.118-.312l-.02-.065-.036-.028c0-.026.026-.074.073-.112l.012-.01c.066-.066.124-.124.197-.241l.183-.31c.09-.154.181-.307.272-.473l.297-.533a.134.134 0 0 0 .028-.08l.034-.021.013-.036a.22.22 0 0 1 .03-.05.475.475 0 0 0 .06-.102c.014-.035.016-.035.035-.035.017 0 .027.002.063.052l.142.15c.131.15.256.294.305.478.079.267.28.504.448.684.127.127.127.127.066.269zm1.993 1.643a5.394 5.394 0 0 0-.249.588c-.022.08-.057.16-.101.238l-.017.054v.008a.449.449 0 0 1-.037.073.176.176 0 0 1-.053.004h-.113c-.036 0-.069-.006-.1-.011-.041-.007-.084-.014-.12-.014H67.4l-.162-.02a3.59 3.59 0 0 0-.51-.044h-.264c-.025 0-.053-.002-.084-.004a.767.767 0 0 0-.234.004c-.14 0-.245-.001-.401-.024-.037 0-.067-.006-.1-.011a2.27 2.27 0 0 0-.119-.018l.006-.046a.222.222 0 0 0 .017-.048l.261-.45a.198.198 0 0 1 .047-.063l.05-.057.031-.074c.064-.1.133-.21.201-.32.124-.2.252-.403.365-.572a1.55 1.55 0 0 0 .15-.292l.098-.203.021-.01v-.03l.032-.031c.03-.041.063-.051.106-.04.257.067.508.067.752.067.106 0 .252 0 .372.024.085.012.165.028.244.043.085.016.17.032.278.047a.51.51 0 0 1 .1.01l.048.008a.35.35 0 0 0-.018.084 12.31 12.31 0 0 1-.435 1.005l-.058.125zm-7.036-.89l-.029-.122c-.015-.041-.015-.047-.015-.106 0-.012 0-.03-.003-.052l.068-.002c.456.089.823.117 1.184.09h.807c.169 0 .169 0 .212.073l.032.076a6.3 6.3 0 0 1 .323.71c.133.31.27.557.378.735l.013.024h-.075c-.15 0-.291 0-.453-.025-.233 0-.474 0-.718-.023a.941.941 0 0 0-.192-.021.806.806 0 0 0-.177.019 2.329 2.329 0 0 1-.578-.001h-.064a.55.55 0 0 1-.194-.054.138.138 0 0 1-.033-.04c-.005-.005-.01-.011-.012-.016l-.023-.077c-.032-.073-.059-.146-.086-.22-.03-.078-.059-.156-.09-.23a60.07 60.07 0 0 0-.152-.41l-.123-.327zm5.206 4.29a1.285 1.285 0 0 1-.139-.238l-.02-.051a.844.844 0 0 0-.066-.154c-.018-.037-.037-.074-.047-.11l-.02-.04c-.162-.22-.282-.503-.39-.754l-.1-.202c-.032-.083-.024-.108-.013-.121.023-.034.075-.026.09-.02l.047.01c.087 0 .172.017.27.058.349.095.662.07 1.013.028.087-.016.192-.01.296-.004.056.003.11.006.163.006h.328c.056 0 .102.053.114.114 0 .099.04.174.08.239.148.259.293.49.478.783l.14.24.01.014c.067.087.12.203.172.328a.63.63 0 0 1-.2.037h-.063a.746.746 0 0 1-.116-.011c-.09-.012-.178-.012-.287-.026-.058-.006-.117-.013-.165-.013h-.504c-.21 0-.448 0-.695-.025h-.338l-.016-.014v-.04l-.022-.033zm12.518-2.248l-.035-.061h-.072c-.342 0-.508-.02-.618-.032a.77.77 0 0 0-.233-.004 1.594 1.594 0 0 1-.469 0c-.186-.027-.367-.027-.56-.027h-.504c-.015 0-.02 0-.05-.061-.008-.011-.023-.033.012-.08.15-.15.27-.303.407-.524.06-.091.114-.191.17-.291.051-.095.103-.191.142-.256l.025-.025c.062-.062.062-.143.062-.177v-.147l-.078-.031c-.21-.09-.517.019-.623.224-.144.228-.257.408-.341.614-.11.207-.233.403-.368.6a.22.22 0 0 0-.063.149s-.01.03-.052.03h-.266c-.056 0-.088 0-.13-.016l-.046-.01c-.04 0-.087-.005-.136-.011a1.507 1.507 0 0 0-.166-.013c-.38 0-.709 0-1.046-.061-.063-.014-.103-.067-.131-.114-.026-.047.003-.084.041-.117a1.09 1.09 0 0 0 .188-.227c.058-.076.118-.16.179-.241.059-.082.119-.163.177-.24l.225-.313a.928.928 0 0 0 .088-.101c.018-.024.036-.048.072-.085l.185-.222c.118-.138.236-.28.35-.425a.152.152 0 0 0 .042-.072l.03-.028c.085-.11.168-.23.194-.358.043-.103.014-.183-.026-.223l-.037-.037h-.116c-.06 0-.125 0-.2.026a.24.24 0 0 0-.109.028.22.22 0 0 0-.176.148 7.704 7.704 0 0 1-.497.73c-.114.154-.22.27-.316.379-.037.036-.069.078-.1.12-.025.034-.05.067-.087.106-.043.056-.087.109-.13.16-.046.056-.09.11-.124.156a1.25 1.25 0 0 0-.135.168 1.018 1.018 0 0 1-.105.135.167.167 0 0 0-.044.073l-.032.02-.014.037a.658.658 0 0 1-.1.15.516.516 0 0 0-.112.338c0 .03 0 .047-.002.062a.276.276 0 0 0-.059.028h-.13c-.135 0-.272.006-.409.013-.134.005-.268.012-.398.012h-.791c.031-.28.115-.66.2-.811l.17-.404c.035-.062.06-.128.084-.193.02-.055.04-.11.079-.186a.503.503 0 0 0 .002-.3c-.019-.1-.144-.162-.21-.162-.174 0-.27.103-.356.228l-.044.11a3.525 3.525 0 0 1-.254.539l-.043.082c-.135.27-.275.549-.382.872-.021.072-.052.182-.12.248l-.028.043c-.004.01-.019.035-.085.035h-.114c-.474 0-.963 0-1.4.025h-.063c-.079 0-.129-.001-.166-.02v-.082c.163-.385.337-.828.492-1.252a.144.144 0 0 0 .02-.07l.032-.021.102-.25.058-.141c.037-.096.072-.188.112-.26.046-.077.091-.162.138-.247.041-.08.084-.16.12-.222l.064-.088.023-.058v-.04a.15.15 0 0 0-.108-.144c-.145-.08-.32-.12-.522-.12h-.302c-.041 0-.084-.007-.12-.013-.044-.006-.086-.015-.1-.01-.161-.027-.32-.027-.474-.027h-.108l-.61-.09a.325.325 0 0 1-.148-.033l.01-.04c.008-.018.017-.04.02-.067.022-.068.05-.137.082-.217l.025-.063.018-.025v-.024a3.68 3.68 0 0 1 .104-.17c.038-.062.077-.124.11-.181l.335-.583c.01-.027.025-.051.037-.075a1.1 1.1 0 0 0 .04-.076c.032-.028.055-.036.11-.036h.632c.037 0 .081.005.129.01.065.008.133.015.198.015.028 0 .099 0 .175-.026.038-.003.066-.011.087-.017.019-.005.028-.008.04-.008.178 0 .354-.006.529-.012.171-.006.343-.013.519-.013.06 0 .086-.015.133-.046l.028-.027c.123-.158.115-.328.09-.518v-.185l-.172.069a.148.148 0 0 1-.07.009.087.087 0 0 1 .029.018l-.063-.036-.16.002a2.454 2.454 0 0 1-.395.023h-.153c-.16 0-.327 0-.487.068a.27.27 0 0 1-.172 0l-.412-.005c-.035 0-.06-.032-.06-.036-.011-.027-.013-.028-.004-.041.02-.02.1-.117.103-.2a.346.346 0 0 0 .017-.048c.054-.094.131-.206.218-.32l.019-.028c.016-.042.041-.08.06-.11l.06-.043v-.052L69 39.59c.007-.016.025-.038.04-.06a.343.343 0 0 0 .06-.091l.056-.082c.036-.053.069-.103.107-.143l.02-.026c.016-.028.025-.037.025-.038.01 0 .037.002.073.009.04.01.079.018.118.025.05.008.092.015.156.04l.538.112c.17.04.328.076.492.112l.32.069c.028 0 .053.01.112.045l.042.017c.094.027.22.049.307.063.422.059.858.11 1.305.152.094 0 .194 0 .3-.03a.515.515 0 0 0 .2-.13c.025-.022.05-.045.093-.078l.051-.052h.032l.031-.078c.04-.098.044-.176-.07-.24-.005-.004-.011-.01-.017-.013l-.015-.018a.386.386 0 0 0-.428-.166c-.216 0-.426-.022-.576-.062-.087-.012-.166-.028-.246-.043a4.393 4.393 0 0 0-.276-.046c-.038 0-.076-.006-.115-.011a.954.954 0 0 0-.132-.014l-.082-.023c-.222-.043-.448-.08-.674-.117a20.142 20.142 0 0 1-.698-.123 4.1 4.1 0 0 1-.356-.093.278.278 0 0 0 .04-.071c.008-.016.011-.028.023-.041l.02-.042c.018-.066.075-.146.141-.24.065-.122.14-.238.219-.356.057-.09.115-.18.167-.267l.258-.406c.073-.092.127-.191.186-.296l.058-.1c.037-.053.06-.07.156-.098h.277c.509.025.968-.004 1.382-.09.103 0 .15-.04.17-.08l.044-.044c.023-.023.047-.048.07-.074.06-.066.122-.135.191-.163l.079-.031v-.085a.148.148 0 0 0-.118-.147c-.152-.054-.254-.03-.39-.017a2.168 2.168 0 0 1-.228.015l-.447.062c-.156.015-.316.034-.47.053l-.301.035h-.085l.067-.108c.02-.035.04-.07.072-.115l.118-.184c.046-.083.114-.187.221-.343.01-.026.025-.05.038-.073.017-.033.035-.066.05-.103.052-.13.02-.265-.09-.374-.084-.083-.138-.1-.201-.1h-.053l-.124.125-.063.087v.025a.806.806 0 0 1-.126.167 3.446 3.446 0 0 0-.32.533.541.541 0 0 1-.106.16h-.026a.492.492 0 0 0-.046-.073c-.014-.02-.023-.032-.038-.066a3.484 3.484 0 0 0-.138-.215c-.041-.064-.085-.128-.123-.194a4.778 4.778 0 0 1-.13-.294l-.105-.24a.953.953 0 0 0-.051-.101c-.014-.024-.028-.048-.045-.09-.08-.144-.116-.177-.285-.177-.123 0-.209.07-.293.14l-.047.039.002.234c.058.306.19.588.316.86l.051.112c.14.244.3.499.444.726l.043.067c.031.045.031.112-.014.183-.008.018-.017.03-.03.05a.425.425 0 0 0-.053.088 2.894 2.894 0 0 1-.229.337c-.079.102-.14.213-.193.31l-.037.073a.735.735 0 0 1-.103.156 7.83 7.83 0 0 0-.106.169c-.073.115-.142.228-.206.315a.165.165 0 0 0-.044.073l-.028.025-.011-.006-.007-.006-.076-.143a8.652 8.652 0 0 0-.153-.287c-.052-.096-.105-.193-.15-.28-.136-.273-.257-.538-.374-.795l-.097-.205a1.158 1.158 0 0 0-.159-.323c-.15-.328-.294-.637-.34-.967 0-.065-.046-.174-.136-.205-.058-.034-.132-.034-.203-.034l-.035.005c-.031.009-.063.014-.093.02-.052.009-.11.018-.17.042a.152.152 0 0 0-.056.022h-.125v.188l.015.06c.034.06.045.118.056.178l.017.082c.005.126.041.246.082.373l.045.144c.256.524.58 1.092.97 1.695.05.07.07.12.09.19a.165.165 0 0 0 .025.065c0 .037.013.069.025.089 0 .054.029.106.038.116.056.12.11.243.165.365l.17.375c.02.042.02.042-.002.077-.047.078-.093.163-.139.248a8.18 8.18 0 0 1-.13.239l-.129.257-.011.153h-.032l-.037.13-.115.122.023.058-.014.015-.103-.013v.166c0 .01 0 .02-.004.036l-.014-.005-.1.099a.115.115 0 0 1-.016-.02.115.115 0 0 0-.019-.042v-.021l-.035-.037c-.01-.017-.023-.046-.05-.073a.895.895 0 0 0-.117-.176 1.163 1.163 0 0 1-.19-.38.167.167 0 0 0-.025-.087l-.01-.05c-.024-.061-.043-.123-.063-.182-.026-.087-.052-.17-.083-.22-.039-.136-.139-.23-.25-.24a.455.455 0 0 0-.397.085l-.052.037v.065l.035.11c.008.024.02.047.031.07a.692.692 0 0 1 .058.147c.075.178.157.345.239.508l.113.233.016.039-.001.032.037.037c.007.016.02.04.041.066.005.007.008.014.011.02l.01.046.013.039c.014.05.034.112.09.154l.028.095a.188.188 0 0 0 .023.057h.047l.053.129c.023.058.04.102.023.137l-.01.137c0 .023 0 .037.006.033l-.021.034a.811.811 0 0 1-.085.172c-.03.03-.1.099-.1.203 0 .019-.004.029-.029.044l-.06.062v.07l.003.033-.053.047v.05c-.003.01-.022.029-.066.063l-.022-.271-.192.192a1.186 1.186 0 0 0-.194.236l-.019.03v.007a.2.2 0 0 0-.023.079l-.011.018-.004-.004c-.008-.008-.026-.026-.034-.036l-.005-.035-.016-.017a.298.298 0 0 0-.06-.127c-.02-.02-.035-.05-.055-.082a.527.527 0 0 0-.082-.116 7.834 7.834 0 0 0-.454-.593 3.15 3.15 0 0 1-.085-.128 2.234 2.234 0 0 0-.085-.125 1.766 1.766 0 0 0-.248-.331.149.149 0 0 0-.15-.15.582.582 0 0 0-.49.263c-.1.127-.166.288-.232.446-.007.018-.016.035-.024.053a.71.71 0 0 0-.064.162.714.714 0 0 1-.072.12c-.046.06-.09.12-.136.183a6.817 6.817 0 0 1-.133.179l-.162.245c-.017.016-.036.045-.057.073-.011.016-.023.032-.032.04l-.1.168a1.613 1.613 0 0 0-.158.27.144.144 0 0 0-.023.05l-.03.028a.09.09 0 0 0-.01-.005l-.008-.008-.023-.045a.633.633 0 0 1-.06-.125c-.026-.06-.05-.122-.078-.153l-.121-.27c-.217-.434-.405-.81-.534-1.195-.029-.068-.026-.077-.002-.102a.22.22 0 0 0 .06-.15l.03-.054c.019-.033.037-.066.037-.076a.837.837 0 0 0 .09-.176.75.75 0 0 1 .069-.14c.033-.057.062-.12.092-.182.026-.057.053-.115.076-.158a.837.837 0 0 0 .09-.176.7.7 0 0 1 .069-.137c.045-.078.084-.156.123-.234.038-.073.074-.147.124-.237a.497.497 0 0 1 .026-.052.802.802 0 0 0 .066-.174l.035-.116.022-.031v-.04c0-.012 0-.013.022-.051l.024-.038c.041-.073.072-.131.05-.203-.019-.061-.062-.092-.123-.124v-.023l-.083-.03c-.28-.1-.404.053-.447.132l-.038.052c-.01.027-.024.05-.037.074-.018.033-.036.066-.05.103l-.096.234a.942.942 0 0 1-.111.246l-.05.095c-.108.226-.2.422-.309.617l-.114.239-.055.073-.003-.001-.007-.008-.022-.045a1.292 1.292 0 0 1-.145-.254c-.023-.041-.044-.085-.066-.127a1.119 1.119 0 0 0-.103-.186l-.03-.073c-.084-.17-.181-.346-.35-.486-.078-.077-.159-.191-.218-.274l-.023-.03a.462.462 0 0 1-.032-.041.525.525 0 0 0-.042-.056c-.056-.077-.038-.102-.017-.136l.087-.172c.03-.054.058-.105.084-.156l.096-.177c.044-.09.088-.171.132-.253.043-.082.087-.163.131-.252.075-.15.157-.296.238-.442.084-.15.165-.3.24-.448.037-.066.07-.144.102-.223.024-.058.05-.118.082-.185.118-.315.268-.59.45-.826.064-.063.074-.172.029-.285-.038-.093-.12-.167-.247-.222-.102-.04-.184-.041-.255.107a.382.382 0 0 1-.044.09c-.025.043-.053.09-.059.123-.03.055-.066.113-.103.17a3.142 3.142 0 0 0-.117.196 13.7 13.7 0 0 1-.414.859l-.15.293c-.075.149-.155.295-.236.44-.083.152-.166.303-.244.457l-.15.303-.022.01v.03l-.008.006-.13-.243c-.087-.15-.169-.298-.25-.445a21.59 21.59 0 0 0-.255-.451 3.84 3.84 0 0 1-.114-.22 3.355 3.355 0 0 0-.117-.22c-.049-.114-.05-.227-.006-.307.024-.044.047-.095.072-.15.04-.083.079-.17.135-.253.03-.043.052-.085.073-.125.022-.041.041-.077.064-.1l.028-.042c.008-.018.017-.03.03-.05a.28.28 0 0 0 .044-.075l.117-.17c.096-.152.205-.325.326-.446.014-.014.086-.093.075-.188a.155.155 0 0 0-.016-.053.333.333 0 0 0-.099-.225c-.15-.15-.221-.181-.383-.021l-.204.233a1.985 1.985 0 0 0-.19.268c-.03.054-.067.11-.104.17a3.1 3.1 0 0 0-.191.325c-.037.05-.063.1-.088.15l-.05.099-.053.067a.233.233 0 0 1-.038.064l-.021-.052a.669.669 0 0 0-.053-.104v-.033l-.017-.028a2.531 2.531 0 0 1-.086-.173c-.03-.061-.057-.122-.098-.192-.029-.04-.053-.09-.08-.137a1.514 1.514 0 0 0-.096-.166.715.715 0 0 1-.067-.116 1.095 1.095 0 0 0-.074-.132c-.064-.183-.255-.183-.328-.183a.15.15 0 0 0-.148.129c-.026.108-.002.19.029.296l.018.038c.023.032.041.078.061.126.025.059.05.12.08.16l.05.096c.069.134.135.26.181.425.034.117.072.237.118.315l.037.088-.008.005-.107.027c-.089.012-.188.028-.285.044-.097.016-.194.03-.292.045a.583.583 0 0 1-.266.002l-.035-.005c-.072 0-.134-.005-.197-.011-.07-.007-.145-.018-.201-.012l-.194-.027h-.215v.125c0 .019.005.07.037.11.083.203.245.318.443.318.166 0 .297.024.398.075l.056.002.036.034h.052c.28.059.572.037.88.012l.146-.011c.116-.014.115-.016.178.09l.095.162c.023.033.04.066.056.097a.669.669 0 0 0 .096.145c.148.26.296.53.444.815l.017.03a.266.266 0 0 0 .035.078h-.333c-.072 0-.152 0-.193-.016l-.046-.01c-.072 0-.145-.006-.216-.012-.08-.006-.16-.013-.238-.013H56.47l-.036.037c-.102.102-.07.232-.047.328l.02.088.026.025c.043.042.1.1.203.1.051 0 .111.006.172.012.075.007.15.013.219.013h1.33c.485-.024.89-.002 1.306.026.048 0 .1.005.155.01.072.007.15.015.261.015h.517c.05 0 .05 0 .078.039.047.06.104.124.16.187.05.057.102.114.142.164l.183.249c.158.177.26.372.369.579.03.06.061.12.095.183l.08.134a.446.446 0 0 0 .06.103l.017.028c-.11-.01-.221-.015-.33-.021-.178-.01-.346-.017-.526-.041h-.214c-.143 0-.279 0-.407-.053l-.047-.02-.046.019a.474.474 0 0 0-.12.074.276.276 0 0 1-.056.039l-.042.028a.384.384 0 0 0-.127.303v.115l.038.037c.047.048.08.06.15.06h.063c.15 0 .319 0 .48.027.051 0 .1.006.15.01.081.012.16.009.266.026.044.007.09.014.127.014.05 0 .127 0 .167.016l.047.009c.083 0 .16 0 .23.02l.034.006c.04 0 .078.006.116.01.088.013.176.013.264.026.052.007.1.014.152.014.04 0 .072.008.127.108.044.087.081.169.118.25.038.082.076.165.12.252l.585 1.208a.18.18 0 0 0 .021.05v.027h-.279c-.176 0-.344 0-.541-.026-.09 0-.178-.007-.264-.013-.084-.006-.154-.002-.231-.011a8.131 8.131 0 0 1-.968-.153c-.107 0-.172.005-.267.1l-.035.063-.037.038c-.15.107-.14.229-.114.34 0 .038.012.069.025.089a.17.17 0 0 0 .025.089c0 .044.018.087.034.115l.017.05c.019.06.037.115.037.188 0 .074 0 .152.06.242.01.017.023.046.05.074.011.025.024.048.037.072.014.024.027.048.038.072.056.152.117.3.177.45.06.148.12.295.172.436l.023.078c.004.024.012.047.022.078h-1.513c-.151 0-.294 0-.454-.025-.033 0-.075-.01-.093-.053a.318.318 0 0 0-.073-.153l-.144-.275c-.042-.072-.078-.151-.114-.23a2.774 2.774 0 0 0-.124-.25l-.02-.025c-.01-.01-.022-.026-.034-.043a.688.688 0 0 0-.055-.07.553.553 0 0 1-.068-.123 1.537 1.537 0 0 1-.068-.152c-.024-.057-.048-.115-.076-.163l-.026-.062c-.043-.11-.089-.142-.204-.142-.029 0-.09 0-.145.036a.274.274 0 0 0-.157.12.32.32 0 0 0-.023.257.17.17 0 0 0 .025.065l.188.407c.056.119.115.239.175.358a22.57 22.57 0 0 1 .204.417.194.194 0 0 1 .025.067c0 .03.008.058.02.078-.23.073-.468.036-.703.024-.122-.006-.244-.013-.366-.013h-.14v-.102c0-.066-.044-.154-.167-.204-.058-.023-.102-.027-.151-.01h-.035l-.037.038-.027.026h-.014a.392.392 0 0 0-.052-.086l-.005-.012c-.027-.068-.064-.121-.103-.177a.602.602 0 0 1-.053-.101c-.03-.065-.063-.14-.122-.203a3.277 3.277 0 0 0-.417-.592l-.229-.32a.221.221 0 0 1-.027-.044.919.919 0 0 0-.275-.522c-.083-.085-.128-.131-.144-.186l-.032-.054c-.1-.1-.154-.11-.287-.053-.036.015-.069.033-.102.05-.02.012-.04.024-.063.034-.061.015-.114.07-.114.17l.008.047c.014.037.033.07.051.105a.534.534 0 0 1 .038.07c.014.038.032.07.05.104.014.024.028.048.038.075.014.036.038.08.064.124a.69.69 0 0 1 .05.09c.014.036.038.08.063.123.02.032.038.064.064.118.027.039.047.077.066.116.025.05.05.099.086.149l.066.092c.079.1.137.24.19.36.026.16.107.33.184.48.084.205.15.233.337.2l.019.019a.258.258 0 0 1 .069.089h-.7c-.12 0-.254 0-.39.03-.218.066-.395.038-.538-.087l-.023-.013-.01-.044h-.086c-.01-.005-.018-.01-.029-.014l-.058-.074c-.065-.082-.127-.158-.18-.254l-.06-.075a1.908 1.908 0 0 1-.178-.25c-.032-.046-.074-.093-.114-.14-.035-.042-.07-.083-.1-.124a1.263 1.263 0 0 0-.213-.243.48.48 0 0 0-.046-.072.489.489 0 0 1-.025-.038.233.233 0 0 0-.023-.066.14.14 0 0 0-.032-.072.268.268 0 0 0-.23-.167c-.102 0-.212.09-.212.239 0 .014 0 .015-.026.053l-.053.115-.01.046c0 .15.102.315.252.417.026.027.045.052.064.076.026.033.05.064.087.1l.05.049c.055.073.106.152.158.23.055.086.111.17.181.262l.011.01.031.055c.008.01.012.018.017.026h-.075c-.116-.017-.235-.011-.35-.006-.052.003-.102.006-.166.007l-.358.044c-.203.02-.413.043-.61.043l-.477.003c-.173-.038-.343.046-.383.188-.084.2-.032.345.166.432a.74.74 0 0 0 .279.069h.63c.092 0 .177-.007.262-.013.079-.006.158-.012.242-.012.154 0 .276 0 .417-.026h.066c-.005.01-.011.019-.02.03-.065.065-.122.122-.148.173-.045.046-.085.093-.126.14-.035.042-.07.083-.126.14l-.032.046c-.047.062-.08.108-.08.179a.155.155 0 0 1-.053.127c-.015.015-.035.043-.055.07-.011.016-.023.033-.032.042l-.028.043a.208.208 0 0 1-.046.062l-.052.062c-.105.147-.09.249.038.337.062.063.139.063.201.063a.367.367 0 0 0 .265-.125l.038-.04c.087-.117.184-.235.28-.354.1-.121.199-.243.276-.35.127-.127.237-.27.327-.391.067-.067.124-.124.178-.215.064-.066.086-.07.142-.056.105.03.207.03.298.03l.343-.001c.208-.024.438-.024.642-.024h.336a.173.173 0 0 0-.014.036l-.029.025c-.26.32-.509.636-.705.949a6.583 6.583 0 0 1-.28.429c-.099.144-.198.288-.284.436l-.283.438c-.093.145-.197.31-.312.444l-.02.035a.367.367 0 0 0-.035.16c0 .117.139.189.239.189.027 0 .053.01.111.045l.037.013c.069.027.135.003.208-.094.058-.081.137-.192.21-.265a.624.624 0 0 0 .102-.128l.1-.1.028-.043c.008-.017.017-.03.03-.048a.446.446 0 0 0 .058-.103c.008-.017.017-.03.03-.048.016-.022.035-.05.052-.085l.112-.156.108-.148c.034-.036.06-.067.084-.1.02-.024.038-.05.075-.087.274-.343.535-.686.797-1.03.17-.224.342-.45.52-.678.02-.03.054-.061.137-.061h.203c.175 0 .346.006.519.012.174.006.35.013.527.013h.002l-.011.018c-.176.328-.341.546-.545.715l-.114.114-.029.042c-.026.069-.032.085-.032.134v.05l.035.037a.246.246 0 0 0 .176.063c.053 0 .053.02.053.052 0 .05 0 .188.15.188.02 0 .07-.004.151-.062.066-.067.124-.124.164-.191.235-.321.526-.673.884-1.096a.23.23 0 0 1 .177-.076c.21 0 .447 0 .681.024.271.027.61.026.945 0h.383a.21.21 0 0 0-.012.045 3.767 3.767 0 0 1-.097.204c-.04.078-.08.156-.111.236-.011.027-.026.05-.038.074a.987.987 0 0 0-.052.103c-.017.04-.041.078-.06.109a.142.142 0 0 0-.044.099l-.033.02-.014.036c-.01.027-.024.05-.038.074a.755.755 0 0 0-.044.09l-.06.115c-.09.17-.174.329-.27.482a7.473 7.473 0 0 1-.151.283 8.332 8.332 0 0 0-.151.284l-.019.025v.03c-.008.023-.02.053-.02.089 0 .095.075.132.107.148a.501.501 0 0 1 .041.023l.03.017.098-.011.041.028a.834.834 0 0 0 .053.018c.034.01.034.012.056.042.063.063.106.063.203.063l.167-.052a.58.58 0 0 1 .162-.037h.744c.153 0 .312 0 .5-.027.077-.013.16-.028.242-.045l.216-.042a.772.772 0 0 0 .14-.014.603.603 0 0 1 .1-.01l.1-.002v.004l-.11.208c-.044.086-.097.183-.15.279a8.658 8.658 0 0 0-.154.288c-.053.109-.123.217-.188.319-.04.062-.078.122-.108.174l-.124.198a.573.573 0 0 1-.096.145l-.017.03c-.007.016-.024.038-.04.059-.025.033-.055.07-.075.119-.007.014-.043.035-.06.035h-.895c-.085 0-.169-.006-.254-.012a3.866 3.866 0 0 0-.288-.013c-.052 0-.129 0-.17-.016l-.045-.01c-.122 0-.178.077-.204.142l-.01.198.014.056c.087.174.203.334.49.334.214 0 .383 0 .593.025h.114c.056 0 .134 0 .2.008-.002.006-.005.01-.005.016l-.303.457c-.177.3-.352.59-.552.913-.005.014-.049.072-.148.072h-.727a9.05 9.05 0 0 1-1.142 0l-.264-.024c-.27-.027-.576-.027-.845-.027h-.959l-.037.036c-.074.075-.069.23-.016.309.027.042.063.07.103.107l.065.064c.091.093.241.15.39.15h.795c.087 0 .18.006.277.013.145.009.309.006.465.024a.973.973 0 0 0 .161.013c.186.026.402.026.611.026h.745c-.008.019-.017.035-.027.053a.682.682 0 0 0-.043.087c-.047.079-.087.165-.127.25a2.883 2.883 0 0 1-.117.237c-.041.083-.093.16-.143.239a2.253 2.253 0 0 0-.15.249 1.22 1.22 0 0 0-.064.103.693.693 0 0 1-.13.177l-.035.049c-.011.029-.066.034-.097.034h-.896c-.177 0-.361 0-.569.025-.084 0-.16 0-.257.026h-.14l-.026.09a.289.289 0 0 0 .12.338l.089.087c.108.11.255.125.395.125h.008c.103-.01.207-.015.311-.021.161-.01.328-.02.46-.041.061 0 .09 0 .13.016l.04.009v.036l-.027.019-.016.029c-.042.087-.087.168-.13.249a8.65 8.65 0 0 0-.138.262l-.107.25a.135.135 0 0 0-.023.073l-.096.146c-.04.056-.066.118-.09.176a.684.684 0 0 1-.062.127l-.017.037a.498.498 0 0 0 0 .31l.03.054c.05.048.081.06.152.06l.046-.008a.322.322 0 0 1 .13-.016c.142 0 .255-.093.3-.25.017-.081.063-.16.114-.252l.426-.872a.175.175 0 0 0 .029-.077.32.32 0 0 1 .032-.067l.023.034c.017.034.05.067.117.079l.764 1.026c.17.232.328.417.49.58.051.052.105.102.172.103.029.006.114.032.184-.038l.035-.063v-.051c0-.072 0-.162.053-.215l.035-.036v-.052c0-.06-.014-.085-.06-.151l-.138-.135c-.021-.03-.045-.06-.07-.09a1.203 1.203 0 0 1-.142-.207 4.512 4.512 0 0 0-.399-.515 7.497 7.497 0 0 1-.589-.891c-.032-.045-.032-.075 0-.12l.222-.314c.055-.098.137-.218.236-.348.15-.236.328-.478.49-.697l.086-.088.063.063c.062.06.104.103.128.144.023.046.047.094.075.143.075.142.16.303.227.487.05.096.09.192.13.29.035.082.07.165.107.245.102.248.189.439.266.594.174.407.363.704.593.934.094.095.169.169.258.205l.197.009.035-.005c.002-.001.267-.08.267-.26l-.01-.044c-.01-.026-.022-.05-.034-.074-.017-.037-.035-.072-.05-.126l-.01-.03a2.668 2.668 0 0 1-.085-.17c-.03-.061-.06-.124-.096-.19-.056-.085-.108-.181-.16-.276-.054-.1-.11-.201-.164-.285a9.209 9.209 0 0 1-.087-.162c-.03-.054-.059-.108-.09-.168-.076-.132-.151-.267-.227-.401-.077-.137-.151-.273-.224-.4a4.24 4.24 0 0 0-.141-.25c-.056-.093-.114-.19-.169-.303-.096-.152-.157-.341-.214-.525l-.016-.05a.244.244 0 0 1 .062-.278.178.178 0 0 0 .044-.074l.056-.037v-.035a.165.165 0 0 0 .017-.042l.066-.084c.08-.094.15-.197.216-.296.064-.094.127-.187.2-.272l.011-.013.005.012c.012.03.026.07.059.104l.02.07.111.24c.072.16.143.316.218.456.093.186.203.32.465.373h.14l.036-.036c.01-.01.03-.01.04 0l.18.08.057-.055c.038-.036.066-.107.038-.198v-.043c0-.036-.013-.067-.026-.108-.03-.178-.08-.32-.212-.421l-.26-.37a2.787 2.787 0 0 1-.334-.727.51.51 0 0 0-.046-.121l-.01-.05.032-.06c.037-.05.062-.1.087-.15.018-.037.037-.076.072-.125.068-.12.14-.232.214-.346.09-.142.183-.284.262-.43l.119-.186c.114-.216.245-.396.38-.576l.017-.03a.25.25 0 0 1 .047-.073c.075.099.135.196.18.32a.185.185 0 0 0 .032.082l.017.047a.507.507 0 0 0 .052.117c.183.34.3.564.383.817.1.27.198.45.323.6.114.15.216.2.4.2.166 0 .218-.08.233-.14a.107.107 0 0 0 .014-.033l.056-.037v-.036a.17.17 0 0 0 .022-.063l.011-.027.037-.051c.013-.016.023-.032.044-.056.03-.041.066-.083.1-.124.041-.047.081-.094.114-.14.055-.072.113-.151.17-.23.062-.085.124-.17.183-.248.117-.156.234-.294.367-.43l.037.028c.01.01.04.056.064.116.056.119.116.239.175.358.06.12.12.24.188.372.003.015.003.059.005.066L67 50.71c-.03.1-.056.206-.084.312-.03.118-.059.235-.092.342-.182.587-.306 1.035-.358 1.474v.089l.008.047c.041.103.145.166.267.166.144 0 .303-.101.3-.218l.023-.14c.017-.064.031-.128.046-.193.038-.168.073-.328.157-.472.072-.127.124-.265.158-.405l.091-.22a.23.23 0 0 0 .047.065c.044.079.088.153.13.225.066.11.129.215.178.324a.148.148 0 0 0 .028.059c.016.037.034.07.052.104.013.024.026.047.037.076.068.158.16.32.248.43l.334.577c.032.046.032.075-.007.13-.093.159-.157.317-.225.482l-.02.069a.112.112 0 0 0-.016.063l-.04.026-.013.045a.861.861 0 0 1-.133.227 2.817 2.817 0 0 0-.371.693l-.08.19c-.118.24-.222.448-.35.653l-.258.444c-.037.049-.061.099-.087.149a.781.781 0 0 1-.064.115l-.029.03v.042a.233.233 0 0 0-.02.089c0 .083.067.175.166.188a.397.397 0 0 0 .323-.041l.026-.02a.482.482 0 0 1 .09-.054c.177-.04.237-.156.302-.315l.014-.045a1.07 1.07 0 0 1 .117-.291c.334-.551.725-1.073 1.236-1.643a.186.186 0 0 0 .038-.01l.057.074a.642.642 0 0 1 .102.14l.038.06c.047.066.087.133.12.188l.112.192.019.029a.257.257 0 0 0 .056.08c.013.032.005.085.002.12l-.005.037-.043.119c-.136.373-.266.726-.345 1.095-.032.109-.053.216-.077.323a4.248 4.248 0 0 1-.075.319l-.067.352c0 .034 0 .114.063.177.061.06.142.06.177.06.173 0 .296-.054.365-.163.007-.007.01-.014.016-.02l.023-.02a.923.923 0 0 0 .3-.395l.016-.034c.084-.166.167-.333.257-.53.017-.057.063-.102.083-.123.019-.02.046-.046.049-.063l.017.037c.023.04.046.085.067.128.034.07.069.137.105.194.016.044.037.088.06.133.017.037.038.074.052.122l.016.045c.012.034.023.07.047.107.055.138.194.194.283.22a.213.213 0 0 0 .25-.053c.01-.01.025-.02.04-.03l.043-.031.037-.02.132.158a.7.7 0 0 1 .066.077c.024.032.05.064.084.099l.063.037h.174v-.124c.028-.127.028-.262.028-.38 0-.048 0-.168-.118-.186a.254.254 0 0 1-.058-.054l-.013-.01a1.313 1.313 0 0 1-.14-.247c-.188-.374-.374-.65-.59-.868a.267.267 0 0 0-.013-.024c.035-.003.063-.011.084-.017a.122.122 0 0 1 .041-.008 8.97 8.97 0 0 0 1.712-.181c.067-.02.12-.043.17-.067.02-.01.038-.017.058-.025l.078-.032v-.045l.032-.035-.075-.155h-.03l-.025-.025-.166.01-.051-.03v-.171l-.026-.125h-.126l-.045.009c-.022.009-.047.013-.074.018-.041.008-.091.017-.143.037a.526.526 0 0 0-.176.025l-.376.02c-.242.02-.493.043-.737.043h-.1c-.171 0-.334 0-.495-.054a.747.747 0 0 1-.075-.037.863.863 0 0 0-.068-.036 4.47 4.47 0 0 1-.176-.263.688.688 0 0 0-.132-.251l-.04-.055a.462.462 0 0 1-.113-.226v-.043l-.026-.034a.727.727 0 0 1-.16-.366h.25c.082 0 .16 0 .23.02l.035.006c.084 0 .163.006.242.013.12.007.25.007.377.023.052.007.1.012.123.01.288.065.552.009.825.054.145.01.297.017.452.023.217.009.443.018.668.04.025 0 .076 0 .127-.024h.06l.035-.065c.072-.126.125-.265.168-.452v-.188h-.213c-.024 0-.043.004-.087.003-.127-.028-.237-.028-.356-.028h-.352c-.073 0-.145-.006-.217-.013a3.625 3.625 0 0 0-.229-.012 6.743 6.743 0 0 1-.514-.061c-.14-.02-.275-.04-.427-.053h-.026a3.49 3.49 0 0 1-.142-.017c-.194-.027-.394-.054-.588.017h-.04c-.148 0-.308-.018-.543-.063-.025 0-.056-.006-.086-.011a.788.788 0 0 0-.128-.015c-.035 0-.059-.033-.065-.043l-.021-.033c-.01-.008-.02-.025-.032-.042a1.19 1.19 0 0 1-.181-.295l-.115-.278a1.45 1.45 0 0 0-.242-.432.197.197 0 0 1-.052-.126l-.008-.047a.836.836 0 0 0-.141-.218.25.25 0 0 1-.07-.121l.044.007c.019 0 .038.004.063.009a.426.426 0 0 0 .09.014.614.614 0 0 0 .061.019.255.255 0 0 1 .076.028l.043.016c.124.02.269.053.425.143.348.148.657.266.938.355.085.033.184.033.31.033a.367.367 0 0 0 .266-.124l.022-.023.009-.031c.052-.18.002-.291-.056-.362-.022-.022-.066-.067-.127-.102l-.064-.064v-.043l-.596-.173a.65.65 0 0 0-.084-.026.27.27 0 0 1-.079-.03c-.123-.07-.253-.097-.391-.127a6.61 6.61 0 0 1-1.053-.298l-.05-.014-.022-.033-.038-.015c-.016-.006-.03-.014-.046-.021a.477.477 0 0 0-.148-.047.196.196 0 0 1-.127-.077.723.723 0 0 0-.12-.193.787.787 0 0 0-.044-.087 2.083 2.083 0 0 1-.029-.051l-.042-.112a20.831 20.831 0 0 0-.32-.591.882.882 0 0 0-.05-.102c-.011-.02-.023-.04-.032-.061a.078.078 0 0 0-.005-.018h.212c.124 0 .263.019.433.062.163.026.327.026.525 0 .112 0 .213-.006.314-.012.091-.006.182-.012.285-.012l.498-.026c.068 0 .138 0 .212-.03l.047-.012c.07-.017.168-.04.21-.15l.013-.217c.027-.086.066-.214-.027-.32-.08-.14-.139-.28-.19-.405l-.01-.046c-.014-.034-.014-.051 0-.083.044-.11.032-.182-.03-.258-.178-.33-.356-.658-.552-.997l-.046-.066c-.005-.015-.01-.03-.014-.05l.022-.002c.067 0 .156 0 .236-.025h.545c.298 0 .636 0 .96-.025.069 0 .103.019.126.05.008.01.02.026.03.042a.92.92 0 0 0 .04.053.604.604 0 0 0 .064.095.307.307 0 0 1 .04.059l.014.027a2.5 2.5 0 0 1 .087.13c.03.045.059.09.093.138.041.054.076.11.112.166.04.064.08.127.122.179.129.2.242.336.449.439.025.01.048.024.072.037.034.018.068.037.105.05.093.039.15.039.243.002l.043-.028c.067-.068.133-.133.18-.26l.008-.038c.007-.024.025-.093-.016-.156l-.02-.047-.026-.042c-.022-.021-.05-.05-.066-.081l-.023-.033c-.159-.16-.278-.354-.393-.543a3.277 3.277 0 0 0-.09-.147l-.073-.123v-.021c.085-.012.172-.012.24-.012h1.465c.103 0 .16.057.211.137.054.13.108.248.161.365.035.075.07.15.11.24l.057.102c.04.096.088.19.136.286.057.116.118.237.165.366l.072.106.046.085c.045.09.099.194.172.274.12.19.255.38.382.558l.246.346c.06.102.133.187.206.27.042.05.087.102.144.174.032.032.1.098.2.098a.265.265 0 0 0 .228-.167c.008-.016.016-.028.023-.04.02-.035.05-.084.05-.158l.005-.115-.034-.036c-.013-.034-.032-.092-.07-.114-.008-.01-.028-.05-.026-.025v-.034l-.017-.03a3.312 3.312 0 0 0-.324-.48 1.064 1.064 0 0 1-.134-.183.485.485 0 0 0-.052-.077c-.014-.036-.04-.08-.064-.124-.02-.032-.039-.063-.05-.09l-.017-.031a1.65 1.65 0 0 1-.23-.376 4.559 4.559 0 0 1-.228-.451.824.824 0 0 0-.066-.155c-.017-.037-.037-.074-.052-.123a1.075 1.075 0 0 0-.12-.23.857.857 0 0 0-.11-.206c-.017-.042-.037-.091-.046-.15h1.788c.036 0 .063.023.1.056a.526.526 0 0 0 .025.024l.036.045a.467.467 0 0 0 .075.118c.016.02.032.043.04.058l.035.047c.225.343.421.637.653.953.041.089.128.14.2.149.14.035.217-.05.25-.085l.025-.03c.067-.092.127-.206.08-.32a.7.7 0 0 0-.165-.276l-.236-.356a1.966 1.966 0 0 0-.115-.176 1.732 1.732 0 0 1-.1-.152l-.019-.03-.012-.024.051-.001c.324.025.62.002.936-.021l.034-.003c.134 0 .265-.063.39-.188.068-.068.11-.192.044-.304z" fill="#1E5D8A"/></g></svg>