<svg width="138" height="101" xmlns="http://www.w3.org/2000/svg"><g fill="none" fill-rule="nonzero"><path d="M9.5 63.8a18.7 18.7 0 0 1-5.2-26.3c6-8.7 15.8-8 24.6-2 8.8 5.8 13.3 14.5 7.3 23.2-6 8.6-17.9 11-26.7 5v.1z" fill="#1E5D8A"/><path fill="#FFF" d="M25.4 57h-10v-2.8h3.4v-8.9L16.3 47l-1.6-2.3 4.9-3.3H22v12.8h3.4z"/><g><path d="M86.75 53.095c.09-.358.895-11.64 2.148-12.895.537-4.745.627-9.491.269-14.327.179-.358.358-.716.448-1.074.626-1.523 1.253-3.224 1.163-4.836-.09-2.06-1.88-3.044-3.76-3.223-7.61-.627-15.4-.717-23.01-1.075-1.342-.09-2.327 1.164-2.417 2.418 0 .448-1.343 10.029-1.432 10.477-.985 1.701-2.328 10.297-1.97 10.566-.806 2.507-1.074 18.178-1.433 19.79-.268 1.163-.626 8.327 0 10.297 2.06 6.626 19.34 6.805 27.576 6.626-.627-2.596 1.522-19.162 1.88-21.76.09-.178.448-.984.538-.984M53.444 65.004c-.358-.358-.806-.537-1.254-.716-.09-.09-.179-.09-.268-.179-.985-.627-2.418-.448-3.313.358-1.612 3.134.09 4.298.09 4.298.268 1.254 1.343 1.254 2.148 2.06 1.522.627 1.97-.717 1.97-.806-.09-1.97-.09-.448.09-2.328 0-.18.626-2.597.537-2.687z" fill="#FFF"/><path d="M85.227 99.927c1.612-.269 2.686-.716 4.477-1.343 4.387-1.612 9.222-4.567 13.161-6.985 1.433-.895 2.776-1.79 4.208-2.686.896-.895 1.79-1.79 2.686-2.776-.447-1.254-.985-2.686-1.074-2.955-1.164-4.298-.18-.985-1.254-5.283.09 0-.537-6.626-.447-6.716.447-.269-2.328-6.716-4.119-9.044-.09-.18-1.432-3.671-1.522-5.194-.179-1.97.09-5.372-1.164-7.074-1.522-1.97-2.865-7.611-2.865-7.611-.268-.448.717-8.417-1.074-8.417-2.507 0-4.298 3.492-4.835 4.119-1.343 1.79-1.7 5.283-1.7 5.373 0 1.253.536 2.955.626 4.119.09.895-.18 4.566-.09 5.462.09.895.627 3.313.448 3.76 0 .09-1.612 4.299-.806 5.821-1.701 1.702-1.611 2.776-2.417 5.104-.896 2.507-.358 3.94 0 6.537.179 1.343-.448 4.835-1.433 6.895-.09.09-2.686 1.433-2.775 1.433-.716 0-1.164-.358-1.612 0-1.88-.538-7.789-.896-9.67-1.523-2.148-.716-1.074 1.702-.357 2.866.358.627 2.775 3.313 3.312 3.85 3.403 2.687 1.88 4.209 4.746 7.522.358.358 2.417 1.612 5.55 4.746zM53.891 51.573c-.626.179-1.79.358-3.402.447-1.611.09-2.954-1.432-3.76-.179-1.433 2.15-.358 3.403-.09 4.03.09.268.538.537.717.806.268.447 1.074 1.074 1.074 1.074.537.448 1.074.806 1.612 1.254.537.358 1.611.448 2.238.269.627-.18 1.074-.538 1.522-1.075 0-.09.179-2.776.268-4.12-.179-.089-.268-2.506-.179-2.506zM52.011 37.604s-2.686-.448-3.402.626c-.627 1.075-.627 2.06 0 3.135.269.447.537.805.806 1.164.268.895 2.686 2.507 3.223 2.507.269.179 1.88.985 1.88.627 0-1.97-.179-.717.269-2.866.268-.716.806-4.567-2.776-5.193z" fill="#FFF"/><path d="M91.942 11.188c-.09-.09-.268-.18-.358-.269-.447-1.164-1.79-1.701-2.954-1.97-4.566-.716-9.222-.268-13.699 1.075-4.208-.269-8.416-.627-12.534-1.343-1.074-.18-4.656.447-4.835 1.522-.179 1.522-1.253 4.298-1.522 5.73-1.164 2.329-.627 3.762-.806 6.448 0 .358-.447 5.82-.268 6.09-.448 4.118-.716 2.954-.985 6.984-.358 5.014-.537 8.865-1.254 13.79-.089.358-.089 12.984-.268 13.969-.358.805-.537 11.014-.627 11.82 0 3.76 3.313 4.835 3.76 5.104.538.358 13.61.537 15.042.716l1.611.269c2.507.805 5.014 1.522 7.61 1.88 1.88.269 4.03.269 5.552-1.075.716-.626 1.253-1.611 1.253-2.686 0-.985-.716-1.522-.269-2.507.269-.627.09-1.254-.268-1.791 0-.896.179-1.791.358-2.776.179-.716-.09-1.254-.537-1.522 0-1.075.09-2.06.179-3.045.268-.806.537-1.612.627-2.417.09-.717.537-2.329.537-2.418l.537-1.343a.492.492 0 0 0 .269-.448c0-.18.089-.448.089-.627.09-.269.18-.627.269-.895.09-.18 0-.359 0-.538.179-.985.358-2.06.537-3.044v-.09c1.611-3.671-.18-7.521.09-11.372.089-.895-1.075-.895-1.344-.179-.716 1.88-.537 3.85-.626 5.73 0 .18 0 .359-.09.628 0 .09-.09.179-.09.268-.089.896-.268 1.88-.268 2.776-.18 1.164-2.775 17.551-2.865 17.91-.269.895-.358 1.7-.448 2.596l-.09.09c-1.79 0-3.401-.538-5.103-.985-2.148-.538-4.297-.717-6.446-.985-4.118-.448-8.326-.896-12.445-1.344-.537-.358-1.074-.537-1.611-.537-1.164-.358-1.164-5.193-.717-5.91.359-.895.717-5.283.18-6.447 0-.09-.09-.18-.18-.269.448-2.507.806-5.014 1.343-7.611.09-.448 0-.895-.179-1.164.717-4.03 1.164-8.06 1.522-12.178.18-2.418.269-4.836.538-7.253.179-2.15.716-4.12 1.343-6.179.179-.18.358-.448.447-.716.448-1.88.985-3.672 1.433-5.552 4.029-.448 8.058-.806 12.087-.806.268.179.537.358.895.358 3.044.269 6.088.537 9.132.716 1.522.09 3.044.27 4.566.359.269 0 .627.09.896.09-.18 2.327-.538 4.476-.806 6.805-.09.537-.269 4.566-.269 5.73-.09 1.433-.895 6.269-.985 7.433 0 .806 1.164.985 1.343.179.18-.627.269-1.164.358-1.791.09-.09.18-.18.269-.358.179-.538.269-.896.269-1.433.09-.269.268-.537.447-.895.18-.27.09-.538 0-.717.18-.627.358-1.253.358-1.88.09-.09.09-.18.09-.358.358-4.209.448-8.507.448-12.716.358-.09.716-.268 1.074-.627 1.432-1.611-.358-4.835-1.612-6" fill="#ffe180"/><g fill="#24719B"><path d="M72.78 13.104c.448.09.628.09 1.075.18.18 0 .358.089.448.089h.537c.09 0 .537.09.627.09.447 0 .447.089.895.089s.985 0 1.433-.09c.626-.09 1.253 0 1.253 0 1.164-.09 1.343 0 1.343-.716 0-.896-2.507-.627-2.686-.716-.179 0-2.417.179-3.044.09h-2.686c0 .089-1.164 0-.627.447.18.179.537.09.537.09.359.178.448.358.896.447"/><path d="M86.121 99.873c.269-.09.448-.179.716-.268-.179-.18-.268-.359-.447-.538-.09-.09-.18-.268-.269-.447-.179-.269-.358-.538-.627-.806-.09-.09-.179-.269-.358-.358-.179-.18-.358-.27-.537-.448-.18-.09-1.522-2.06-2.955-4.03-.09-.179-.179-.268-.358-.447-.09-.09-.179-.27-.179-.359 0-.09-.09-.179-.09-.179-.089-.179-.178-.447-.178-.627-.09-.358-.269-.626-.358-.985-.09-.268-.538-.358-.717-.626-.537-.717-1.074-1.433-1.343-2.239-.358-1.075-1.343-1.433-2.059-2.06-.895-.716-1.343-1.522-2.328-2.149-.537-.358-1.253-.447-1.074-1.343 1.074.18 2.06.358 3.133.448 1.254.09 1.612.448 2.865.448.717 0 2.418.268 2.418.268 1.074-.179 3.402-.447 3.492.269 0 0-.09 3.85.09 3.224.357 1.611.357 2.955.984 4.298.09-.269.09-.448.09-.717-.09-.895-.359-1.88-.359-2.776.09-2.06.269-4.119.448-6.089.09-.985.448-1.97.448-3.044-.09-1.343-.448-2.776-.538-4.12-.089-1.7-.089-3.402.09-5.103.18-1.612.18-3.224 1.074-4.836.538-.895 1.075-1.701 1.702-2.686.089.448.716-.896 1.432-1.522.358-.359.537-.538.448-.985 0 0 .447 0 .805.179-.09-.358-.179-.627-.268-.806-1.075-2.597-1.79-5.283-2.238-8.149-.448-3.134-.359-6.089.268-9.133.18-.806.537-1.523.806-2.239s.448-1.522.895-2.149c.627-.806.896-1.701.985-2.776.09-1.164.448-2.239.537-3.403.269-1.88.358-5.014.358-5.014.09-1.702.269-3.403.359-5.104.447-1.702.984-3.672.984-4.836 0-1.343-.268-2.686-.537-4.03-.09-.626-.447-1.253-1.164-1.342l-1.88-.269c-1.611-.18-3.223-.448-4.745-.627-2.328-.268-4.745-.537-7.163-.716-.984-.09-1.97.09-2.954.09H70.81c-1.164 0-5.014.089-4.745.358-.358.09-.537.09-.716.09-1.343-.09-2.597-.27-3.94-.36-1.074-.089-2.417.628-2.686 1.523-.268 1.254-.537 2.507-.716 3.761-.179.985-.269 2.06-.448 3.045-.179 1.074-.447 2.238-.626 3.313-.09.447.179.895.09 1.343-.18 1.522-.359 3.044-.627 4.567-.627 2.955-.359 6.089-1.433 9.044-.358.895-.269 1.97-.448 2.955 0 .09-3.223-1.343-4.745-.806-.716.269-1.432 1.164-1.253 1.701.447 1.702 1.253 3.134 2.775 4.12.716.447 1.433 1.074 2.06 1.611.089.09.089.269.089.448-.269 2.238-.627 4.477-.985 6.805-.09 0-.268 0-.358.09-1.253.358-2.417.716-3.76.179-.806-.269-1.522.448-1.612 1.254-.179 2.149 1.074 3.67 2.417 5.193.09.09.09.09.18.09.537.09 1.163.179 1.7.179.27 0 2.15-1.433.806 5.462h-.447c-.717 0-1.522-.09-2.239 0-.447 0-.716.269-.626.806.179.806.268 1.522.447 2.328.359 1.343.896 2.955 2.686 3.403.09-.09-.268 1.522-.358 2.238 0 .18.18 1.075.18 1.165.536.805.984 1.611 1.61 2.328 3.403 3.313 10.387 2.955 10.655 3.134.09 0 3.94.537 5.462 1.432.179 0 1.7.806 5.461 3.493a7.595 7.595 0 0 1 2.149 2.328c1.164 1.97 2.238 5.194 3.76 6.984 1.522 2.24 3.94 3.94 4.029 4.12.537.358.985.895 1.522 1.432zm2.865-44.772c.895 1.164 1.253 2.507 1.343 3.85 0 .18 0 .358-.09.448-.358.358-.716.716-1.253 1.164V55.1zm-37.335 3.223c-1.79.269-2.865-.358-3.76-1.97-.358-.716-.806-1.343-.806-2.149 0-.537.09-.985.806-.895.269 0 .895-.09.895 0 0 0 1.701.179 3.313-.18-.269.359-.269 3.403-.448 5.194zm4.298 2.239c-.09 0 .985-13.7.895-11.372.448-2.508 2.238-15.492 2.597-18.178.447-3.224 1.432-6.358 1.164-9.76-.09-1.164.268-2.329.447-3.493.09-.537.448-.985 1.164-.895 1.164.09 2.328 0 3.492 0 1.432 0 2.865 0 4.297.18 1.522.089 3.134.357 4.656.447 1.701.179 3.402.179 5.103.448 1.97.268 3.85.716 5.91.447a7.918 7.918 0 0 1 2.059 0c.716.09 1.432.269 2.148.358.538.09.806.269.538 1.075-.359 1.164-.538 4.298-.627 4.298 0-.269-.269 2.06-.358 3.403-.269 3.76-1.164 9.94-1.343 13.252-.537 1.791-.985 3.045-1.612 6 0 .09-.09.358-.09.448 0 .627-.178 1.612-.178 2.149-.18 1.88-.18 3.403-.359 5.283-.179 1.79-1.343 6.268-1.343 6.268-.09-.358-1.074 6.537-1.074 6.358-.358 3.134-.985 6.268-.985 6.268-.09 0-.985-.358-1.074-.269-.09.09-.18.18-.448.18-1.343.358-2.507-.448-2.507-.538-.268-.179-.537-.358-.805-.448-.27-.09-.627 0-.985 0-1.433-.09-13.072-1.522-13.251-1.522-1.074-.09-2.238-.268-3.313-.448-1.522-.358-4.655-.268-4.655-1.611.09-2.508.179-5.015.537-7.522v-.806zM49.86 41.4c-.896-1.164-.896-3.134-.18-3.402 1.075-.359 2.06 0 2.955.447.18.09.269.448.358.627.448.716.806 1.522.627 2.418-.179.806-.179 1.701-.269 2.597-1.432-.538-2.506-1.433-3.491-2.687zm1.7 28.565c-.357-.09-.895-.448-1.253-.895-.09-.09-.537-.896-.626-1.075-.269-.627-.448-1.253-.627-1.97 0-.179.269-.806.448-.806.626-.09 1.432.18 2.148.18 0 1.253.269 2.238-.09 4.566zm20.683 11.193c-.806.09-3.224-.627-3.313-.627-1.074-.268-2.238-.537-3.313-.716l-1.79-.358c-1.701-.269-11.64-2.955-11.819-6.537 0-.537.359-1.88.448-2.149.09-2.328.18-4.656.358-6.984.09-2.06.269-4.209.448-6.269.179-1.97.268-3.85.448-5.82l.537-5.104c.179-2.06.626-5.641.716-5.283.18-2.418.985-7.074.985-7.701.179-1.791.358-3.671.627-5.462.268-2.597 1.074-7.612 1.343-9.134.716-3.76.984-7.611 2.506-8.328 1.522-.626 2.597-.985 3.224-.895.537.09 1.88.09 2.417.09 1.343.089 2.596.179 3.94.179 1.074 0 4.118-.09 5.46 0 3.045.09 6.268-.448 9.312-.27 1.522.09 3.044.18 4.566.36 1.075.089 2.238-.09 2.776 1.253.358.806.805 2.597.985 3.044v.269c-.18.716-.806 3.403-.896 4.298 0 .806-.09 1.701-.09 2.507-.178 2.866-.447 5.731-.537 8.507 0 2.06-.09 4.03-1.343 5.82-.089.09-.089.27-.089.448 0 .358-.806 1.702-1.164 2.15-.09-.359.448-4.21.537-5.732.09-.626.269-1.253.358-1.97.09-.716.09-1.432.18-2.238.089-.896.268-1.88.537-2.776.179-.627.268-2.06.179-2.15a.684.684 0 0 1-.18-.447c.18-1.074.359-4.119.538-5.283.09-.627-11.818-.806-11.55-.895-.895-.18-1.7-.27-2.596-.359-2.149-.179-4.298-.268-6.446-.358-2.15-.09-4.208-.09-6.357-.179-.896 0-1.79.537-2.776.09-.09-.09-.447.179-.447.268 0 .538-.358.985-.448 1.433-.358 1.254-.358 2.597-.627 3.85-.179 1.164-1.074 4.12-1.253 5.104-.18 1.433-.358 2.866-.448 4.299-.09 1.343-2.954 19.79-3.044 20.864-.09 1.611-.448 3.223-.358 4.835.179 3.85 0 7.611-.358 11.462 0 .448 0 .985.268 1.343.09.09.09.09.09.18.448.715 1.164 1.074 1.97 1.163.179 0 .447.09.537.09.537.09 1.074.09 1.611.179.985.179 1.88.358 2.865.537.627.09 1.254.18 1.97.269 0 0 9.222 1.343 9.49 1.343 2.239.269 7.61.985 7.61.985h2.597c.358-1.791.716-3.582.985-5.373.448-3.044.806-6.178 1.164-9.223.09-.627 0-1.433.358-1.97.358-.537.358-.895.179-1.343v-.358c.18-.806.448-1.702.627-2.508.179-1.343.268-2.596.268-3.94 0-.805-.09-1.611 0-2.417.09-.448.448-2.239.896-3.85-.09 1.342-.18 2.686.09 4.029.268 1.074.089 2.328.178 3.403.269 2.417.448 4.925-.179 7.342-.358 1.433-.716 2.955-1.253 4.388-.627 1.522-1.612 2.955-1.79 4.656-.09.538-.09.985-.09 1.523 0 .895-.09 1.7-.09 2.596l.537 5.373c0 .358.09.806.09 1.164.179 1.343 0 2.597-.716 3.761-.18.18-.538.537-.717.448-.895-.448-2.507.09-3.223.358-.09.179-1.79-.18-2.328-.18-1.79-.178-5.82-.805-5.909-.984.09-.09-.09-.09-.268-.09z"/><path d="M94.627 40.773l.179-.179c-.18-.268-.269-.537-.448-.716a3.976 3.976 0 0 1-.716-.985c-.269-.448-.358-.985-.448-1.522 0-.09-.09-.269-.09-.358-.089-.359-.089-.717-.089-.985v-.269c0-.537.269-.895.716-1.075.358-.179.806-.179 1.433-.268.268.806.626 1.612.806 2.418.179.895 0 2.059.179 3.044.09.627.09 1.075.09 1.701 0 .359.089.806.268 1.164.09.09.09.18.179.359.09.268.179.447.268.716 0 .09.09.269.09.358.09.448.268.806.448 1.164.09.269.268.538.447.717.09.179.985 2.865 1.254 3.044.09.09.179.269.179.358.179.896.358 1.702.537 2.597.09.269.09.537.179.896.09.358.179.806.269 1.164 0 .179.09.358.09.627.089.626.178 1.164.268 1.79.09.627.179 1.165.358 1.791.09.359.179.806.268 1.164.09.359.269.717.359 1.164a6.78 6.78 0 0 0 .805 1.612c.717 1.254 1.343 2.597 2.15 3.85.089.18.268.359.357.538.627.895.985 1.88 1.254 2.865.09.359.09.717.09 1.075 0 .537.089 1.075.089 1.701v1.702c0 .716 0 1.522.09 2.238 0 .18 0 .359.089.538 0 .358.09.716.179 1.074 0 .18.09.358.09.537l.268 1.075.269.806c.09.268.179.537.179.806.179.537.268 1.074.447 1.701.269.985.537 1.88.896 2.776 0 .09.09.18.09.18.268-.27.447-.538.715-.717v-.358c0-.27 0-.448-.09-.717-.357-1.253-.626-2.597-.984-3.85-.358-1.254-.716-2.597-1.074-3.85-.09-.448-.358-.807-.448-1.254v-.18c-.09-1.074-.09-2.148-.09-3.133 0-.627-.09-1.254-.09-1.88v-.27c-.089-.537-.626-1.7-.715-1.79 0 0-2.15-4.746-2.418-5.373-1.432-2.776-2.059-4.477-2.059-4.567-.09-.358-.179-.627-.269-.985-.537-2.328-1.074-4.567-1.611-6.895 0-.179-.09-.358-.09-.537-.09-.448-1.88-5.91-1.97-6.179-.805-2.865-.716-4.388-1.253-7.7 0-.09-.268-.807-.358-.896-.09-.358-.448-.896-1.253-.716-.09 0-.09 0-.18.09H94c-.089 0-.178 0-.357.089-.537.179-1.075.716-1.075 1.164-.09.627-1.343 2.328 1.522 5.372.18 0 .448.09.538.18zM62.843 29.133c.09.179.09.447.09.447 7.162-.09 14.235 1.433 21.487 2.329-.18-.448-.18-.717-.269-.717-6.983-.716-14.056-2.686-21.308-2.06M85.494 27.61c0-.09.09-.179.09-.268-.358-.18-.716-.448-1.075-.538-6.267-1.79-12.624-2.06-18.98-2.238-.627 0-1.254-.18-1.79-.18-.18 0-.449.09-.628.09v.538c7.252.537 14.505.268 21.578 2.507.179 0 .537 0 .805.09M69.468 12.209l-.09-.09c-.089-.09-.178-.09-.268-.179-.09 0-.09 0-.18-.09a.765.765 0 0 0-.626 0c-.179.09-.358.18-.358.359v1.701c.09 0 .269.09.448.09.358-.09.716-.18 1.074-.359.09 0 .09-.09.18-.09.089 0 .089-.089.089-.089.09-.09.179-.268.179-.447 0-.18 0-.359-.18-.538l-.268-.268M69.379 76.412s-.18.627-.448.896l-.448.448c-.09.09-.179.179-.268.179-.18.09-.448.179-.627.09-2.417-.896-2.06-2.418-1.612-3.583.806-.805 2.597 0 2.597 0 .895.717 1.074 1.165.806 1.97m.805-.895c-.447-1.343-1.7-2.15-3.133-2.15-1.254 0-2.06.628-1.97 1.702 0 .627.09 1.254.358 1.791.448.985 1.075 1.791 2.239 1.97.984.09 1.522-.627 2.059-1.343.537-.627.806-1.164.447-1.97"/></g><g fill="#24719B"><path d="M56.13 68.586c.09 0 .09 0 .179.09.268 0 .447.09.626.09v.089l.09.269c.09.268.09.626.09.805v.269c.358 0 .716.09 1.163.09l-.09-.359c0-.179-.089-.447-.089-.626 0-.09 0-.18-.09-.269 0-.09-.089-.18-.089-.269.269-.09.538-.09.717-.09v.896c0 .09 0 .18-.09.269 0 .09 0 .09-.09.179v.269c.448.09.806.09 1.254.179 0-.09 0-.269.09-.359v-.805c0-.448 0-.806.089-1.254 0-.09 0-.358-.179-.537-.09-.09-.09-.09-.09-.269-.09-.358-.179-.627-.268-.985 0-.09-.09-.179-.09-.269 0-.09-.09-.09-.09-.09l-.089-.178-.179.09c-.268.089-.268 1.611-.268 2.148h-.18c-.447-.09-1.432-.268-1.432-.268-.269-.09-.627-.09-.895-.09h-.09c0 .269.09.538.09.717v.268zM82.72 42.35c-.089-.27-.358-.359-.626-.448-.18 0-.269-.09-.448-.09-.268-.179-.627-.268-.806-.358-.09 0-.179-.09-.268-.09l-.269-.089c-.09-.09-.268-.09-.358-.09-.179-.09-.268-.09-.448-.268-.268-.18-.447-.269-.716-.448-.268-.09-.537-.269-.806-.448l-.179-.09a.492.492 0 0 1-.268-.447c0-.269-.09-.537-.448-.627-.09-.09-.268-.09-.448-.179a2.988 2.988 0 0 1-1.074-.448.684.684 0 0 0-.448-.179c-.268-.09-.626-.09-.895-.09-.358-.089-.716-.089-.985-.268-.268-.09-.447-.09-.806-.09-.179 0-.358 0-.447-.089-.269-.09-.448-.09-.716-.09-.269 0-.448.09-.717.09l-.537.09c-.268 0-.448.09-.716.09l-.537.268c-.358.179-.806.268-1.164.537-.269 0-.537.18-.806.358-.537.448-1.074.806-1.612 1.254-.268.269-.537.448-.805.627v.09c-.269.178-.448.447-.538.716a5.692 5.692 0 0 0-.537 1.611c-.09.717-.806 1.433-1.164 1.791l-.09.09a2.72 2.72 0 0 1-.626.448c-.179.09-.269.268-.448.358a2.882 2.882 0 0 1-1.164.716h-.179c-.268.09-.447.18-.626.269-.18.09-.358.09-.537.09h-.359c0 .358-.09.805-.179 1.163h.09c.268-.09.448-.09.627-.09a7.112 7.112 0 0 0 1.97-.536c.357-.18.805-.359 1.163-.627l.09-.09c.358-.268.716-.627 1.074-.895.448-.358.806-.806 1.254-1.343l.09-.09c.089.09.268.269.357.448.269.358.448.716.806.985 0 0 0 .09.09.09.268.447.537.805.805 1.163.18.18.269.448.448.627.09.09.09.18.179.269.09.09.269.179.448.09.179 0 .268-.09.358-.27.09-.089.09-.089.09-.178h.089c.268.09.537-.09.627-.358.09-.09.09-.27.179-.27.09-.089.09-.268.179-.357.09-.09.09-.269.09-.448.089-.269.089-.627.089-.985l-.627-.448V44.5c0-.18.09-.448.09-.627.179-.896.358-1.88.895-2.776.09-.09.179-.269.269-.448l.089-.09c.18-.178.18-.268.09-.537.09-.09.09-.268.09-.358-.09-.09-.09-.268-.27-.268-.179-.09-.268 0-.447.09-.269.089-.448.268-.627.447l-.179.268c-.179.18-.269.359-.448.627-.268.358-.447.806-.626 1.343 0 .09-.09.27-.09.448v.09c-.09.358-.179.716-.179 1.074 0 .448-.09.806-.179 1.075-.09.179-.09.268-.09.448 0 .09 0 .179-.089.268-.09.269-.09.448-.18.627-.089.18-.089.269-.089.448v.09l-.268-.27a2.721 2.721 0 0 0-.448-.626c-.09-.09-.179-.269-.268-.448l-.27-.269c-.178-.268-.447-.537-.626-.805-.09-.18-.268-.27-.358-.448-.09-.18-.179-.269-.179-.537.09-.448.18-.896.448-1.433.09-.18.179-.358.358-.448.358-.269.716-.627 1.074-.806l.09-.09c.268-.268.537-.447.805-.626a6.353 6.353 0 0 1 1.97-1.164c.09 0 .18-.09.269-.09.268-.179.627-.268 1.074-.268.269 0 .448 0 .627-.09h.358c.627 0 1.164 0 1.79.18.27.089.627.089.985.178.27.09.538.09.806.09.09 0 .09 0 .18.09 0 0 .089 0 .089.089.448.268.806.448 1.253.627.09 0 .09 0 .09.09 0 .357.179.626.448.805.089.09.089.09.089.18.09.089.09.089.09.178.09.09.09.18.268.269.358.269.716.448.985.627.269.09.448.179.627.358.179.09.358.269.537.269l.806.268.179.09v.268c-.18.269-.18.538 0 .806.09.09.09.09.09.18l.089.089c.09.179.268.269.447.269h.448c.269.09.18.268 0 .447-.268.448-.806.717-1.164.896-.09.09-.268.09-.447.09-.448.089-.896.178-1.254.268-.179.09-.448.09-.627.09-.09 0-.358.089-.358.358 0 .268.18.447.448.447h.269c.268-.09.626-.09.895-.179.448-.09.895-.179 1.253-.268.09 0 .269-.09.358-.09-.268.627-.626.985-1.163 1.254-.27.09-.627.268-.985.268-.269.09-.538.09-.806.09h-.269c-.268 0-.447.09-.716.09-.537 0-1.074-.09-1.612-.09a7.918 7.918 0 0 0-2.059 0c-.09 0-.09 0-.179.09-.09 0-.09.089-.09.089l-.089.09v.09c0 .268.18.447.358.447 0 .09-.09.09-.09.09l-.268.358-1.343 2.149c-.358.537-.806 1.074-1.164 1.611l-.268.269c.179-.806.268-1.612.268-2.418v-1.074c0-.18 0-.358-.09-.537-.089-.18-.089-.27-.268-.359-.09-.09-.268-.09-.448 0-.09 0-.09.09-.179.09v2.597c0 .358-.09.716-.09 1.074v.269c0 .09-.089.268-.089.448 0 .09-.09.268-.09.447 0 .269-.089.538-.178.806-.09.18-.09.269-.09.448-.09.09-.09.269-.09.448 0 .09-.089.179-.089.268-.179.09-.179.18-.268.269-.09.179-.27.358-.27.627-.089.179-.178.447-.268.627-.09.358-.179.626-.268.985V59.9c0 .09 0 .269-.09.359-.268.447-.447.895-.806 1.432-.179.269-.358.538-.447.896-.09.179-.18.358-.269.627l-.268.447c-.18.358-.359.717-.627.985-.358.627-.716 1.254-.985 1.97l-.269.538c-.179.358-.358.805-.447 1.164v.09c-.18-.09-.269.089-.269.178-.09.358-.179.806-.268 1.254V71.093c.358.09.626.18.895.27v-.359c0-.716 0-1.433.179-2.06.09-.179 0-.268 0-.447 0-.09 0-.269.09-.358.089-.359.268-.627.447-.985.09-.18.18-.27.269-.448l.09-.09c0-.09.089-.09.089-.09.09-.089.09-.089.09-.178l.268-.448c.09-.269.269-.448.358-.627.09-.179.18-.269.269-.448.179-.268.268-.537.447-.806.269-.537.627-.985.896-1.432l.09-.269c.089-.179.268-.269.268-.448.09-.179.268-.358.447-.537.09-.179.269-.448.359-.627l.09-.09c.089-.268.178-.537.178-.805v-.537c.09-.448.09-.985.269-1.344 0-.09.09-.09.09-.268v-.09c.089-.268.178-.627.357-.895.09-.09.09-.18.18-.269l.089-.179c.09-.09.09-.269.179-.269.18-.268.269-.537.537-.806-.179 0-.09 0-.09-.179.09-.358.359-.716.627-1.074.448-.627.985-1.254 1.343-1.88l.09-.18c.627-.985 1.253-1.97 1.79-2.955.09-.09.09-.09.27-.09.268 0 .447 0 .626.09.268 0 .627.09.985.09.537.09.985.09 1.522 0h.358c.448 0 .985-.09 1.432-.269.18-.09.448-.09.627-.179.269-.09.448-.179.627-.268.537-.359.806-.806.985-1.254l.09-.09c.089-.268.268-.626.178-1.074 0-.09.09-.09.09-.09l.09-.09.089-.089c.09-.09.268-.268.268-.448.18-.537.27-.985.27-1.343v-.09c0-.268 0-.447.089-.626.09-.448 0-.627 0-.716z"/><path d="M75.737 40.738c-.09-.269-.268-.448-.627-.448-.09 0-.09 0-.268.09h-.269c-.09 0-.268 0-.268.09-.09.178-.269.268-.448.447-.09.09-.09.448 0 .537.269.269.627.448.985.448h.09c.357 0 .626-.18.984-.448a.433.433 0 0 0 0-.627c-.09 0-.179 0-.179-.09z"/></g></g></g></svg>