<svg width="170" height="101" xmlns="http://www.w3.org/2000/svg"><g fill="none" fill-rule="nonzero"><path d="M25.4 54h-10v-2.8h3.4v-8.9L16.3 44l-1.6-2.3 4.9-3.3H22v12.8h3.4zM59 69.08c-1.72-.394-3.332.493-4.944 1.084-3.869 1.38-8.168.788-12.252.099-.43-.099-.86-.198-1.29-.395-.43-.197-.645-.69-.43-1.084.108-.394.538-.591.968-.69.86-.295 1.72-.591 2.579-.69.86-.098 1.72-.197 2.364-.59.323-.198.645-.494 1.075-.69.43-.198.968-.1 1.397-.1 1.613.1 3.225.296 4.73.69.967.296 1.934.592 2.901.986.538.197.967.394 1.505.591.537.198 1.075.395 1.397.887" fill="#FFF"/><path d="M61 72.335c-.107 2.93-2.357 5.41-4.929 6.538C53.5 80 50.607 80 47.821 80c-1.178 0-2.357 0-3.321-.564-.429-.225-.857-.676-1.179-1.014-.642-.676-1.392-1.353-2.035-2.03-.322-.337-.75-.788-.965-1.24-.214-.45-.214-.9-.214-1.352 0-1.24-.107-2.367-.107-3.607v-.45c.107-.339.643-.452 1.071-.339.429.113.643.45.965.676 1.285 1.015 3 1.128 4.5 1.128 4.178-.113 8.25-.79 12.214-2.03.536-.112 1.071-.338 1.5 0 .429.339.536.902.536 1.466 0 1.127-.107 2.367-.215 3.494" fill="#FFE27F"/><path d="M74.156 78.657c3.47 1.195 7.7-.326 9.652-3.476 1.627-2.499 1.736-5.649 2.278-8.69.325-1.956.868-3.911 1.518-5.758.217-.543.434-1.086.76-1.412.542-.544 1.301-.76 2.06-.978 5.64-1.63 11.28-3.368 16.811-4.997.976-.326 2.06-.543 3.037-.435.976.109 1.952.652 2.82 1.087 3.145 1.846 6.29 3.693 9.435 5.757 1.41.87 2.929 1.956 3.362 3.585.326 1.412-.216 2.933-.976 4.237-1.41 2.39-3.145 4.562-5.422 6.3-1.519 1.195-3.363 2.716-2.712 4.563.65 1.63 2.928 1.738 4.664 1.412.542-.108 1.193-.108 1.735-.434.868-.543 1.301-1.521 1.735-2.499 1.953-4.454 4.99-8.473 8.677-11.624.325-.217.542-.434.867-.543 1.085-.217 1.627 1.087 1.953 2.173.759 3.259 1.41 6.735 0 9.777-.326.652-.76 1.52-.434 2.173.325.651 1.193.76 1.952.76 1.952.109 4.338-.109 5.314-1.738.651-1.195.434-2.607.217-3.91-.759-4.346-1.518-8.583-2.169-12.928-.217-1.521-.542-3.042-1.41-4.346-.867-1.412-2.494-2.715-2.06-4.345.433-1.63 2.711-1.955 4.446-1.847 4.99.326 9.978.543 14.967.87.976 0 1.844.108 2.712-.218.976-.326 1.735-1.195 2.277-2.064 2.495-3.476 3.362-8.039 2.386-12.167-.217-.652-.542-1.52-1.301-1.52-.65 0-1.085.542-1.41 1.086-1.518 2.28-3.145 4.454-5.423 5.974-2.277 1.521-5.206 2.173-7.7 1.195-1.41-.543-2.495-1.52-3.688-2.498-6.616-5.432-13.665-10.863-22.016-12.927-3.471-.87-7.159-1.087-10.738-1.195-14.316-.435-29.5 1.52-41.105 9.885-2.71 1.956-5.64 4.345-9.001 4.237-1.627-.109-3.146-.76-4.772-.978-2.929-.434-5.966.76-7.81 3.042-2.82 3.368-2.71 8.147-2.602 12.493.108 2.498.65 5.54 3.037 6.083 1.518.326 3.253-.543 4.663.326 1.41.76 1.41 2.716 2.17 4.128.867 1.847 2.928 2.933 4.88 3.15 1.952.326 4.013-.108 6.073-.434 1.627-.326 3.254-.652 4.556-1.412 1.301-.76 2.386-2.39 2.277-4.02.76 2.173 1.302 4.563.65 6.844-.65 2.281-2.385 4.346-4.771 4.454-.543 2.064 1.193 4.345 3.362 4.345" fill="#FFF"/><g fill="#1E5D8A"><path d="M76.781 71.049c.217-.755.434-1.51.543-2.265.543-2.588.651-5.068.543-7.657 0-1.617-.109-3.235-.435-4.852v-.324c0-.108.109-.324.218-.431.108.107.325.215.325.431.109.54.109.97.217 1.51.217 1.725.434 3.343.652 5.068.434 4.098.108 7.98-1.737 11.755-.543.97-1.303 1.726-2.28 2.373-.108.108-.325.216-.434.323-.217.216-.434.324-.325.647.108.324-.218.755.217.863.217.108.65.108.868.108 1.085 0 2.062.108 3.148 0 .76 0 1.411-.216 2.17-.431.544-.108.76-.54.76-1.187 0-.323.11-.539.435-.539s.543.108.543.432a1.981 1.981 0 0 1-.543 1.725c-.651.647-1.411.863-2.28.97-1.085.108-2.17.108-3.256.216-.76 0-1.411 0-2.171-.108-.76-.107-1.085-.539-1.303-1.294a1.304 1.304 0 0 0-.542-.539c-.109-.108-.326-.108-.435-.108-.434-.108-.76-.323-.976-.755-.109-.215-.326-.431-.435-.539-.434-.323-.434-.755-.217-1.186.543-1.186 1.52-1.941 2.823-1.941 1.41 0 2.062-.54 2.062-2.05v-1.833c.108-1.617.326-3.235.543-4.853l.325-2.264c0-.216-.108-.54-.217-.755h-.108c0 .108-.109.216-.109.216l-.651 1.294a2.857 2.857 0 0 0-.326 1.294c0 .539 0 .97-.108 1.51-.326.862-.977 1.402-1.954 1.617-.652.108-1.194.108-1.846-.108-.65-.323-1.41-.323-2.062.432-.326.323-.651.647-1.194.539-.217 0-.326 0-.543.108-.651.323-1.194 0-1.628-.432-.543-.539-.651-.539-1.302 0-.326.324-.76.54-1.303.432-1.628-.324-3.04-.97-3.908-2.373-.325-.431-.651-.863-1.085-1.186-.977-.755-1.303-1.833-1.52-3.02-.108-.539-.108-.539-.651-.215-.76.431-1.52 1.078-2.388 1.294-2.063.755-4.016.431-5.645-.97-.76-.54-.977-1.403-.977-2.373 0-1.187.218-2.373.326-3.56 0-.646.109-1.185.217-1.833 0-.43 0-.97-.325-1.294-1.52-1.725-1.737-3.774-1.303-5.931.434-2.157 1.411-4.098 2.714-5.824.651-.862 1.628-1.617 2.496-2.372.217-.108.434-.108.76-.216s.543-.108.868-.215c2.063-.863 4.234-1.079 6.513-.863 1.52.108 3.04.431 4.45.863.218.107.435 0 .652 0 2.062-.216 3.908-1.079 5.536-2.157.434-.324.977-.432 1.411-.54 1.52-.43 2.822-1.186 4.233-2.049 1.52-.97 3.04-2.049 4.668-2.911 1.302-.647 2.822-1.187 4.233-1.726 1.411-.539 2.822-1.186 4.234-1.617 1.194-.324 2.496-.54 3.69-.755a15.597 15.597 0 0 1 3.148-.324c.868-.108 1.737 0 2.497 0l5.21-.323c.76 0 1.52-.108 2.28-.108 2.279-.108 4.667-.216 6.946-.216 2.28 0 4.668-.108 6.947 0 4.125.216 8.141.863 11.94 2.265a56.517 56.517 0 0 1 10.53 5.284 160.036 160.036 0 0 1 5.427 3.667c.76.539 1.52.97 2.388 1.402.326.215.76.323 1.194.323 1.628.216 3.256.324 4.885-.108.434-.107.977-.323 1.41-.647.76-.431 1.303-1.078 1.52-1.94.109-.54.326-.971.435-1.51.542-1.51 1.628-2.265 3.147-2.481 1.194-.216 2.28-.108 3.474.323 1.085.324 1.845 1.079 2.062 2.265.326 1.079.869 2.05 1.737 2.696.651.54.977 1.294.977 2.265 0 .324 0 .54.109.863.108.647 0 1.186-.435 1.725-.108.108-.217.216-.217.432-.108.215-.108.431-.217.539-.325.647-.434 1.402-.651 2.049-.109.431-.326.863-.651 1.078a4.218 4.218 0 0 0-1.086 1.726c-.108.431-.217.755-.434 1.078-.217.216-.543.324-.868.432-.326.215-.76.323-.869.539-.868 1.294-2.17 1.725-3.582 1.617h-.434a1.497 1.497 0 0 0-.434.324c-.109.216-.109.54-.217.863-.217.97-.977 1.402-1.846 1.186-.217 0-.434-.108-.65-.108-.544-.108-1.086-.108-1.52.324-.435.431-.978.539-1.52.215-.652-.431-1.411-.539-2.171-.323-.651.108-1.194-.108-1.737-.54-.868-.862-1.845-1.078-3.04-.97-.76.108-1.519 0-2.17-.431-.543-.324-1.086-.647-1.628-1.079l-.109-.108c-1.194-.215-2.28-.539-3.473-.215-.218 0-.326.108-.543.323-.326.216-.326.432-.217.863.217.755.325 1.618.542 2.48.109.432.109.863.109 1.294.109.755.543 1.295 1.194 1.618.868.54 1.52 1.294 1.845 2.265.109.323.109.647.109.97 0 .324 0 .54.108.863.326.54.543.97.869 1.51.325.647.434 1.402.217 2.049-.868 2.157-.434 4.314 0 6.363.326 1.294.76 2.588 1.085 3.99.109.54.217 1.078.109 1.618-.217 1.51-1.303 2.372-2.822 2.48-.543 0-1.086 0-1.629-.216-.434-.215-.76-.108-1.194.108-.434.216-.76.431-1.194.431-1.194.108-2.496-.754-2.822-1.833-.108-.54-.108-1.078.109-1.618.325-.647.76-1.294 1.41-1.617.87-.54 1.195-1.294 1.086-2.157 0-1.402-.217-2.696-.76-4.098-.434-1.294-1.193-2.48-2.062-3.559-.108-.108-.217-.323-.326-.431l-.434.431c-.325.431-.651.863-.868 1.402-.434.863-1.086 1.51-1.737 2.157-1.085.97-2.062 2.049-2.714 3.235-.217.324-.325.647-.434.97-.325 1.295-.977 2.373-1.954 3.344-.76.647-1.41 1.294-1.628 2.265-.108.431-.542.755-.977.862l-4.233.324c-.434 0-.868-.108-1.194-.216-1.303-.431-1.954-2.157-1.194-3.45.434-.648.868-1.08 1.628-1.295 1.303-.323 2.28-1.186 2.822-2.372.217-.54.543-.971.76-1.402.543-.97 1.411-1.618 2.28-2.373 1.085-.863 1.628-2.049 1.736-3.343 0-.324-.108-.863-.217-1.186-.325-.755-.325-1.51-.325-2.265 0-.431 0-.755-.326-.97-1.085-1.295-2.496-1.834-4.125-2.157-.76-.108-1.41-.324-2.17-.432-.326-.108-.326-.216-.218-.54.109-.215.217-.538.326-.862 1.52.432 2.93.863 4.342 1.294.651.216 1.194.54 1.737.863.868.647 1.41 1.51 1.628 2.588.108.54.325.97.542 1.51.543 1.186.543 2.373-.108 3.559-.326.755-.868 1.402-1.303 2.049-1.194 1.51-2.496 3.02-3.69 4.53-.109.215-.326.323-.434.539-.652.862-1.412 1.51-2.497 1.833-.543.216-.977.54-1.411.863-.543.431-.651.97-.543 1.617.217.647.76.863 1.303.863 1.194.108 2.388 0 3.473-.323 1.52-.54 2.605-1.618 3.04-3.236.108-.647.434-1.186.868-1.617.434-.432.76-.863 1.194-1.402.108-.108.217-.324.217-.432.977-2.48 2.714-4.421 4.668-6.255.325-.323.76-.647 1.194-.97.325-.324.434-.432 0-.755-.977-.647-1.846-1.402-2.931-1.941-.869-.432-1.737-.97-2.497-1.618-1.194-1.078-2.496-2.049-3.799-3.02-1.411-1.078-2.605-2.372-3.148-3.99-.325-.863-.868-1.725-.977-2.696 0-.216-.325-.54-.434-.755-.217-.215-.543-.431-.76-.647-.325-.323-.325-.647-.108-.863.217-.215.542-.107.868.216l1.303 1.941c1.302 2.05 2.822 3.883 4.559 5.608.542.54 1.085 1.186 1.628 1.833.868.971 1.737 1.834 2.822 2.697.651.539 1.411.862 2.171 1.294 2.497 1.402 4.45 3.343 5.644 5.931.869 1.726 1.303 3.667 1.194 5.608 0 1.078-.325 1.833-1.302 2.48-.326.216-.651.54-.977.755-.326.216-.651.54-.434.97.217.432.543.756 1.085.756.652 0 1.411-.108 2.063-.324.65-.108 1.194-.323 1.845-.431.326-.108.543-.108.868 0 .652 0 .869-.108.977-.755.109-.54.109-1.186.217-1.726 0-.215 0-.431-.108-.539-.869-.97-.977-2.265-1.194-3.559-.217-1.186-.434-2.372-.434-3.558-.109-.863 0-1.726.108-2.589.109-1.186 0-2.264-.651-3.343a2.021 2.021 0 0 1-.217-.863c0-.862-.217-1.51-.977-1.94-.217-.109-.326-.216-.543-.432-.977-.647-1.628-1.51-1.737-2.696-.108-.647-.325-1.187-.76-1.726-1.085-1.402-2.388-2.372-3.907-3.235-.977-.54-1.954-.97-2.93-1.51-1.195-.647-2.172-1.51-2.606-2.696-.326-.647-.434-1.402-.326-2.157 0-.539 0-1.078-.108-1.617-.109-.432-.326-.54-.76-.324-.326.216-.651.431-.868.647-.435.647-.977 1.079-1.737 1.402-.109 0-.217.108-.326.108-1.194.323-1.954.97-2.605 2.049-.543.97-1.52 1.51-2.714 1.51-1.41.108-2.93.108-4.342.215-.868 0-1.628.108-2.496.324a4.025 4.025 0 0 0-1.194.54c-1.194.754-2.497 1.401-3.69 2.156-.76.431-1.52.54-2.28.324l-2.28-.647c-.108 0-.325-.108-.542 0-.977.43-2.063.107-3.04 0-.76-.108-1.41-.108-2.17-.216-.543-.108-1.086-.324-1.629-.54-.651-.323-1.302-.646-2.062-1.078-.217-.108-.326-.323-.543-.431-.868-1.51-1.737-2.912-2.605-4.422-.543-.863-1.086-1.725-1.845-2.372-.652-.647-1.194-1.51-1.412-2.373a1.826 1.826 0 0 1 0-1.078c.326-.863.543-1.834.977-2.589.652-1.186 1.303-2.372 1.954-3.45.217-.432.543-.863.651-1.295.218-.539.109-1.078-.325-1.51-.434-.43-.977-.754-1.737-.539-2.28.863-4.45 1.726-6.73 2.589-1.737.647-3.256 1.617-4.776 2.588-1.411.97-2.822 1.941-4.45 2.696-.217.108-.435.216-.652.216-1.302.215-2.28.97-3.365 1.51-.542.323-1.194.646-1.845.754-1.194.324-2.17.97-3.148 1.618-.217.108-.434.323-.651.54.217.215.434.323.651.538.652.432.869 1.187 1.194 1.834.326.539.434 1.186.76 1.725.326.54.651.97 1.086 1.294.868.647 1.41 1.51 1.302 2.589-.108.647.217 1.186.651 1.617.869.755 1.194 1.726 1.412 2.804a4.234 4.234 0 0 0 1.41 2.265c.11.108.326.108.435.108.868.108 1.845.323 2.714.431.542.108.868.54 1.194 1.078l.976 2.265c.218.647.543 1.186.652 1.834.108.647-.109 1.294-.109 1.94-.108 1.187-.325 2.481-.325 3.667 0 .97.217 2.05.217 3.02 0 .323 0 .647.108 1.078-.108-.431-.108-.431 0-.431zM49.753 61.99c1.085.324 2.17.324 3.148-.108.651-.323 1.302-.647 1.845-1.078.326-.216.434-.54.651-.863.109-.323 0-.539-.325-.755-.326-.108-.76-.323-1.086-.431l-.977-.324c0 .324 0 .647-.108.863 0 .108-.326.216-.434.324 0-.216-.109-.324-.109-.54.109-.215.217-.539.326-.754-1.086-.863-1.954-2.05-3.365-2.48 0 .107 0 .215-.109.323-.108.108-.217.215-.217.323-.108-.108-.217-.215-.217-.323v-.324c.217-.647-.217-.97-.434-1.51-.109.108-.109.216-.109.324-.217 1.078-.325 2.265-.542 3.343 0 .324.108.324.325.324.869 0 1.52.43 2.063 1.186.434.539.542 1.186.217 1.833a3.425 3.425 0 0 0-.543.647zm-2.062-16.715s-.109 0-.109-.108c-.326.431-.651.862-.868 1.294-.652 1.402-.543 2.804-.326 4.206.109.647.434 1.294.977 1.725.109.108.326.108.543.216 0-.216.108-.432.108-.54 0-.43-.108-.862 0-1.293.109-1.834 0-3.667-.325-5.5zm13.785.754c-.108.108-.326.216-.434.324 0 .108.108.323.217.54.109.215.434.43.543.754.217.431.217.863.434 1.294.217.863.543 1.726 1.52 1.834.76.107 1.302.539 1.845 1.078.108.108.217.323.325.323.109 0 .435 0 .543-.107.217-.216.109-1.079-.108-1.294-.543-.648-1.194-1.079-1.954-1.295-.434-.215-.869-.431-1.086-.97l-.65-1.618c-.218-.431-.544-.863-1.195-.863zm6.404 11.755c-.108-.323-.108-.647-.325-.97-.543-.863-1.086-1.618-1.52-2.48l-.651-1.295c-.109-.215-.434-.431-.652-.647-.217-.216-.868 0-.976.324-.218.323 0 .539.217.755.434.431.65.97.76 1.51a2.955 2.955 0 0 0 1.085 1.94c.543.432.977.755 1.085 1.403 0 .107.326.323.435.323.108 0 .217-.216.325-.323.217-.108.217-.324.217-.54zm-6.947-16.068c-.217-.432-.325-.863-.542-1.294-.435-.647-.977-.971-1.629-.647-.434.215-.76.215-1.194 0-.542-.216-.977-.108-1.302.323l-.977 1.294a.326.326 0 0 0 0 .432c.108.107.217.107.434.107.326 0 .434-.107.543-.431.217-.647.543-.647.977-.216.434.432.651.432 1.194.108.108-.108.217-.108.325-.216.326-.323.652-.215.76.324 0 .216 0 .54.109.755.108.216.217.431.434.54.109 0 .434-.109.543-.324.108-.108.217-.432.325-.755zm2.823 18.549c.108.215.217.323.217.431.108.431.325.863.434 1.294.217.54.543.97 1.085 1.186.434.216.869 0 1.194-.323 0 0 .109 0 .109-.108.543-.216.543-.647.217-1.078-.217-.324-.434-.324-.76 0-.108.108-.326.323-.434.215-.109-.107-.326-.215-.326-.431-.108-.54-.108-.97-.108-1.51 0-.863-.543-1.402-1.303-1.186h-.325c-.76.108-1.194.755-.977 1.402.108.323.325.431.65.216.11 0 .218-.108.327-.108zM56.374 43.01c.109 0 .109-.108.217-.108-.108-.216-.217-.431-.325-.431-.109 0-.434.107-.543.215-.434.432-.543.97-.217 1.51.217.324.326.54.651.863.217.216.326.431.109.755-.217.215-.217.431 0 .647.217.108.543.323.651.215.977-.323 1.194-1.078.651-1.94-.217-.216-.434-.432-.65-.756-.218-.323-.327-.647-.544-.97zm15.631 19.196c0-.863-.543-1.726-1.411-1.941-.76-.216-1.628.108-1.737.862 0 .432.217.648.543.432.434-.108.76 0 .977.216.217.323.326.647.543.97.108.108.108.324.217.431.108.108.325.216.434.108.108 0 .217-.215.326-.323.108-.108.108-.432.108-.755zM56.591 47.755c0 .216 0 .323.109.323.326.647.76 1.187 1.194 1.834.109.108.434.215.543.215.868-.107 1.52-.539 1.737-1.51 0-.215 0-.539-.109-.754-.109-.108-.434-.108-.651 0-.109 0-.217.108-.326.215-.76.54-.76.54-1.52 0l-.977-.323zm11.29 16.069c.108 0 .108 0 0 0 .108.107.108.215.108.323.108.647.326 1.186 1.085 1.51.435.216.76 0 .652-.54-.109-.323-.217-.754-.326-1.078-.109-.323-.109-.539.217-.755.217-.108.326-.323.217-.539a1.304 1.304 0 0 0-.543-.54c-.325-.107-.65 0-.868.324-.217.432-.326.863-.543 1.295zm7.598 10.245l-.109-.108c-.217.108-.543.323-.76.323-.542.108-1.194.108-1.736.108-.543 0-1.195.108-1.52.647-.434.54-.326.863.325 1.079.109 0 .109 0 .218.107.325.108.434.216.542.432 0 .108.217.216.435.323v-.431c-.109-.431 0-.863.434-1.078.434-.324.868-.54 1.302-.863.326-.216.652-.432.869-.54zM59.956 61.235v-.755c0-.539-.108-.97-.542-1.294-.326-.323-.435-.323-.652.108-.108.108-.217.216-.325.431 0 .108-.109.216-.109.324l.326 1.294c.108.54.217.97.651 1.186a.332.332 0 0 0 .434 0c.109-.107.217-.215.217-.431.109-.323 0-.647 0-.863zm-7.164-11.539c.543-.216.977-1.402.543-1.941-.109-.216-.434-.324-.651-.324-1.086 0-1.846 1.187-1.411 2.157.108.216.325.324.434.432l.108-.108c-.108-.324-.325-.647.109-.97.108-.109.434 0 .543.107.217.108.217.324.325.647zm8.25 14.128c.217.323.326.754.651.97.326.324.76.647.977 1.079 0 .107.109.215.217.215a.527.527 0 0 0 .76 0c.217-.215.217-.431.109-.647-.218-.539-.652-.863-1.086-1.186a1.106 1.106 0 0 1-.543-.647c-.108-.216-.217-.432-.434-.324-.325.108-.434.324-.651.54zm6.187 2.049c0-.755-.434-1.079-.868-1.295-.217-.107-.435-.323-.652-.539-.108-.215-.325-.431-.542-.323-.326.108-.217.431-.109.539.434.647.76 1.186 1.194 1.833.109.108.434.324.543.216.217 0 .434-.324.434-.431zm-6.621-1.726c0-.431-.109-.755-.543-.863-.434-.215-1.194-.108-1.411.216-.109.108-.109.324-.109.431 0 .108.217.216.326.216.434 0 .76.216.76.647 0 .108.217.431.325.324.218 0 .326-.216.435-.324.325-.323.217-.54.217-.647zm-.109-8.412c.109-.323.109-.539.109-.755.108-.97-.217-1.617-1.194-1.725h-.326v.323l.977 1.618c.109.108.217.324.434.54zM54.746 45.06c.217-.863-.434-1.941-1.194-2.373-.217-.108-.434-.215-.651 0-.217.324-.109.54.108.647.435.324.76.647 1.194 1.079.218.108.326.323.543.647zm7.598 12.617c.326-.862.109-1.401-.434-1.617-.434-.108-.76-.216-1.302-.324.651.647 1.194 1.294 1.736 1.941zm12.158 2.05c.108-.108.108-.216.217-.216l-.326-.324s-.108.108-.217.108c.109.216.217.324.326.431z"/><path d="M119.766 56.382c-.109.324-.217.54-.326.863-.108.216-.217.216-.434.108-1.628-.755-3.148-1.726-4.45-2.912-.652-.539-1.412-.97-2.171-1.402a.332.332 0 0 0-.435 0c-.65.216-1.302.432-1.628 1.186-.108.324-.434.432-.76.432-.65 0-1.194-.108-1.845-.108-.651-.108-1.085 0-1.52.54-.76 1.293-2.062 1.293-3.365 1.078-.542-.108-.868 0-1.194.431-.108.216-.434.324-.65.431-.87.324-1.738.324-2.606.108-1.194-.215-2.388-.108-3.473.54-.543.323-1.194.43-1.737.215-.977-.431-1.737-.108-2.605.324-.435.323-.869.647-1.411.862-.326.216-.326.432-.326.863.217.755.651 1.294 1.411 1.618.217.108.434.216.651.216.326.107.434.323.326.647-.109.323-.326.43-.651.323-.543-.216-1.194-.431-1.737-.647-.109 0-.217-.108-.434-.216v2.157c-.109.863.217 1.618.651 2.265.543.755.977 1.402 1.411 2.157.217.431.434.755.651 1.186.109.324 0 .54-.217.647-.217.108-.542.108-.651-.216-.543-1.186-1.52-2.049-2.388-3.127-.434-.54-.868-1.294-1.194-1.941-.217-.432-.434-.755-.543-1.186-.325-.648-.868-.971-1.628-.971-.326 0-.543-.108-.543-.54 0-.323.109-.538.543-.646.76 0 1.52-.108 2.28.215 0 0 0-.107.108-.107-.108-.108-.217-.324-.326-.432-.217-.323-.434-.647-.542-.97-.217-.648 0-.863.76-1.079-.435-.863-.543-1.833-1.303-2.48-.217-.216-.651-.216-.977-.324-.217-.108-.326-.215-.543-.215.109-.108.217-.324.326-.432.76-.323 1.52-.755 2.28-1.078.325-.108.542 0 .65.215.326.54.543 1.187.87 1.726.108.323.325.431.65.216.109-.108.326-.108.435-.108h1.736c.217 0 .434-.216.543-.432.217-.431.434-.539.868-.539h.435c.76.216 1.302-.108 1.628-.647.543-.647 1.085-.755 1.845-.54.434.109.76.217 1.194.217.543.107 1.086 0 1.52-.324.651-.431 1.41-.54 2.17-.54a.832.832 0 0 0 .543-.215c.652-.54 1.303-.647 2.063-.54h.325c.977.217 1.52-.215 2.063-.862.326-.54.977-.755 1.411-1.186.109-.108.326 0 .434.108.326.215.543.431.869.647.542.431.76.323 1.194-.108.325-.324.65-.647.977-.97.65-.432 1.085-.432 1.52.107.325.324.759.54 1.193.755.326.216.651.431.977.755 1.194 1.51 2.822 2.588 4.56 3.235.216.54.325.647.542.647zM88.938 74.608c-.108.108-.217.323-.325.431-.217 0-.434 0-.543-.108-.217-.215-.434-.539-.651-.862-.434-.863-.76-1.834-1.194-2.696-.434-.863-.76-1.834-1.52-2.48-.108-.109-.108-.324-.108-.432.108-.108.325-.216.434-.108 1.628.647 2.713 1.725 2.93 3.559.11.863.326 1.725.76 2.48.109 0 .217.108.217.216zM86.116 75.578v.971c0 .431-.325.647-.76.647-.434 0-.542-.323-.542-.755-.109-.863-.326-1.725-.543-2.588 0-.108-.217-.216-.217-.324-.109-.107-.109-.323-.109-.431.109-.108.326-.216.434-.108 1.195.216 1.737.97 1.737 2.157v.431zM84.27 76.01c0 .108-.108.215-.108.431s.109.432.109.755v.54c-.109.107-.434.107-.543.107-.651-.216-.868-.863-.977-1.51v-1.617c0-.324.434-.54.652-.324.434.432.868.97.868 1.618zM88.179 69c-.109.216-.217.431-.326.431-.109 0-.326-.107-.434-.215-.543-.54-.977-1.187-1.52-1.726-.325-.431-.651-.755-.543-1.402 0-.108-.108-.323 0-.539 0-.216.218-.324.326-.431.109.107.434.215.434.323.109.755.652 1.294 1.086 1.941.325.432.651 1.079.977 1.618zM50.621 58.108c-.217.323-.108.755-.542.755-.217 0-.435-.432-.435-.647-.108-.216.326-.755.543-.647.217.107.326.323.434.539zM51.924 61.343c.217-.108.326-.323.326-.323.108.107.325.215.325.323 0 .108-.217.216-.325.324l-.326-.324z"/></g><g fill="#1E5D8A"><path d="M61.673 72.213v-.64h-.546V72c.11.96-.109 1.92-.545 2.773-.218.427-.655.747-.982 1.067-.11.107-.218.107-.327.213-.982.96-2.182 1.494-3.491 1.92a5.383 5.383 0 0 1-.764.32c-.218.107-.436.107-.763.214-.219 0-.437.106-.655.106-.11 0-.218.107-.327.107-.982 0-1.855.107-2.728 0-1.2-.107-2.4-.107-3.709 0H46.4c-.218 0-.436-.107-.655-.107-1.09.107-1.963-.32-2.945-.853-.327-.213-.764-.427-1.09-.64l-.655-.32c-.764-.32-1.2-.96-1.31-1.707-.109-.64-.109-1.386-.109-2.026v-.32c0-.107 0-.214-.109-.32v-.214h-.872c0 .534 0 .96.109 1.494 0 .32.109.533.218.853.109.213.109.533.109.747 0 .213 0 .32.218.533.327.32.655.747.982 1.067.654.533 1.418.96 2.182 1.28.218.106.545.106.763.213.655.32 1.419.533 2.182.747.655.106 1.2.32 1.855.32 1.09 0 2.29.213 3.382 0h.109c1.09 0 2.072-.214 3.054-.427.655-.107 1.418-.32 1.964-.533.763-.32 1.636-.64 2.4-.96.436-.107.763-.534 1.2-.534 0 0 .109 0 .109-.106.327-.32.654-.64.873-.96.545-.534.763-1.28 1.09-1.92 0-.107.11-.107.11-.214.109-.533.109-1.066.109-1.6z"/><path d="M61.455 69.44c-.11-.427-.328-.747-.655-1.067-.327-.32-.655-.426-1.2-.32-.11 0-.327.107-.436.107-.11-.107-.11-.213-.219-.32-.436-.533-.981-.96-1.854-.747h-.436c-.11-.106-.11-.213-.219-.213-.436-.533-.654-.64-1.418-.533-.218.106-.436 0-.654-.107-.219-.107-.437-.213-.546-.32-.218.107-.436.107-.763.213-.219-.213-.546-.426-.764-.746-.327-.32-.436-.32-.873-.107-.436.213-.763.213-1.2 0-.218-.107-.327-.213-.545-.213h-.546c-.436.106-.872 0-1.2-.107-.327-.107-.545 0-.763.213-.219.214-.437.534-.764.534-.436.106-.764.32-.982.533-.327.32-.654.32-.982.107-.109-.107-.327-.107-.545-.107-.546.107-.982.213-1.31.747 0 .106-.108.213-.217.32-1.091-.32-1.855 0-2.4.96-.219.106-.437.106-.546.213-.218.107-.545.32-.545.533-.11.427-.218.854-.11 1.174.11.64 0 1.28 0 1.92v1.173h.982c.11-.213 0-.32 0-.533-.109-.32-.109-.64-.109-.96 0-.107 0-.214.11-.32.109 0 .218.106.327.106.109.107.327.214.436.32.436.427.982.534 1.527.534h.328c.436.213.872.106 1.309.106.436 0 .872 0 1.309.107.763.107 1.527.213 2.4.213H49.127c.982.107 1.964-.213 2.946-.213.109 0 .327 0 .436-.107.546-.106 1.2-.106 1.746-.213h.654c1.091 0 2.182-.32 3.273-.64.545-.107 1.09-.427 1.636-.64.437-.213.764-.32 1.31-.213.108.64.217 1.173.217 1.813v.107h.546c0-.214 0-.427.109-.747v-.32c-.327-.747-.327-1.493-.545-2.24zm-3.164-1.067c0-.106 0-.106 0 0 .109-.106.218 0 .218 0 0 .107.11.214.11.427-.11.107-.219.107-.437.213 0-.106-.11-.106-.11-.106 0-.214.11-.427.219-.534zm-.982 0l.11.107c0 .107-.11.213-.219.213l-.11-.106c-.108 0 .11-.214.22-.214zm-4.254-1.386c.109 0 .218-.107.436-.107.109.32.109.427-.11.533-.108.107-.217.107-.326.107-.11 0-.11-.107-.219-.213 0-.214.11-.214.219-.32zM42.69 69.44c.436 0 .545-.107.545-.533 0-.214 0-.534-.109-.747-.109-.427 0-.64.328-.96.218-.213.545-.213.872-.107.11 0 .11.107.218.107.437.213.764.107 1.091-.107l.11-.106c.218-.214.545-.427.872-.427.327 0 .546-.107.655-.32.109-.107.109-.213.218-.32.218-.213.545-.32.764-.107.327.534.981.534 1.418.747h.218c.327-.32.764-.213 1.2-.213.109 0 .327.213.436.32.218.213.437.32.546.533.109.107.218.213.218.427.218.533.654.746 1.2.533.436-.213.545-.32.873-.96.327-.107.654-.213 1.09-.213.11 0 .219 0 .328.106.109 0 .109.107.218.214.11.32.436.533.764.746 0 .107 0 .32-.11.427 0 .107-.109.213-.218.32-.109.213-.109.533.11.64v.107c-.11 0-.11.106-.219.106-.545.107-1.09.214-1.745.32-.11 0-.327.107-.437.107-.545.213-1.09.213-1.636.213-.654 0-1.418 0-2.073.107-.436 0-.872.107-1.2.107-.327 0-.545 0-.872-.107-.873-.107-1.855-.213-2.728-.213-.981-.107-2.072-.107-3.054-.214-.11 0-.327-.106-.437-.213.219-.427.328-.32.546-.32zm-2.073-.96c.11-.213.218-.32.437-.533.218-.107.436-.214.654 0 .11.426-.109.853-.109 1.28-.436-.107-.655-.32-.982-.534v-.213zm19.31 1.173c-.764.427-1.528.747-2.292 1.067-.763.213-1.527.64-2.29.64h-.437c-.545.107-1.09.107-1.636.213-.982.214-1.964.32-3.055.427-.873.107-1.636-.107-2.4-.107h-1.09c-.873.107-1.746 0-2.51-.213a8.48 8.48 0 0 0-2.29-.32c-.655-.107-1.2-.213-1.855-.427-.218-.106-.328-.213-.437-.32-.109-.106-.109-.32-.218-.426-.109-.32-.109-.534.327-.747.873.427 1.855.747 2.728 1.28.654.427 1.309.533 1.963.533.873 0 1.746 0 2.619.107.654 0 1.2 0 1.854-.213.327-.107.655-.107.873-.107h3.382c.872.213 1.636.107 2.509-.107.436-.106.872-.213 1.2-.426.436-.214.872-.427 1.418-.534.436-.106.873-.213 1.2-.533.218-.107.327-.32.545-.427.328-.213.546-.106.764.214-.327.106-.655.213-.873.426z"/><path d="M52.073 66.133s.109.107 0 0c0 .107.109.107.109.107 0-.107 0-.107-.11-.107.11 0 0 0 0 0zM52.073 69.227c0 .106-.11.213-.11.32-.218.213-.763.426-1.09.32-.328-.107-.655-.214-.873-.427-.11-.213-.11-.427.11-.533.326-.214.654-.32 1.09-.534.218-.106.327 0 .545.107.11.213.219.533.328.747zm-.764 0c-.218-.107-.218-.107-.327-.107-.11 0-.218 0-.218.107 0 0-.11 0-.11.106v.107l.11.107c.109-.214.327-.214.545-.32zM45.964 67.947c0-.32 0-.534.327-.64.327-.107.654-.107.982 0 .109 0 .109.106.218.213.109.32.109.64-.11.853-.217.214-.436.32-.763.32s-.545-.213-.545-.533c-.11 0-.11-.107-.11-.213z"/></g><g><path d="M8.509 66.823a18.7 18.7 0 0 1-5.2-26.3c6-8.7 15.8-8 24.6-2 8.8 5.8 13.3 14.5 7.3 23.2-6 8.6-17.9 11-26.7 5v.1z" fill="#1E5D8A"/><path d="M17.109 55.023c0 1.9.9 2.5 2 2.5h.2c1 0 1.9-.6 1.9-2v-.2c0-1.3-.7-1.9-1.9-1.9h-2.1v-2.8h2c1.2 0 1.9-.5 1.9-1.7v-.2c0-1-.8-1.8-1.8-1.8h-.3c-1.2 0-1.9.7-1.9 2.7h-3.1v-.4c0-3.4 1.7-5 5.2-5 3.8 0 5 2.2 5 4.1v.4c0 1.6-.7 2.7-1.7 3.3 1 .6 1.9 1.7 1.9 3.4v.4c0 2-1.5 4.5-5.2 4.5-3.5 0-5.3-1.8-5.3-5v-.3h3.2z" fill="#FFF"/></g></g></svg>